<svg width="1920" height="1346" viewBox="0 0 1920 1346" fill="none" xmlns="http://www.w3.org/2000/svg">
<g clip-path="url(#clip0_1_5)">
<path d="M604.821 1010.01C577.024 1010.01 554.483 1025.05 554.483 1043.6C554.483 1062.14 577.024 1077.19 604.821 1077.19C632.619 1077.19 655.159 1062.14 655.159 1043.6C655.159 1025.05 632.619 1010.01 604.821 1010.01ZM604.821 1049.7C593.994 1049.7 585.214 1044.05 585.214 1041.41C585.214 1038.77 593.994 1033.12 604.821 1033.12C615.649 1033.12 624.429 1038.76 624.429 1041.41C624.429 1043.82 615.649 1049.7 604.821 1049.7Z" fill="#1B2030" stroke="#1B2030" stroke-linecap="round" stroke-linejoin="round"/>
<path d="M593.726 1019.81C597.12 1025.86 596.382 1033.16 596.014 1034.19L595.921 1034.41C598.596 1033.63 601.612 1033.12 604.812 1033.12C607.44 1033.12 609.94 1033.46 612.227 1034C611.858 1032 611.526 1025.3 614.699 1019.66C616.894 1015.75 620.38 1013.39 622.667 1012.18C617.115 1010.78 611.102 1010.01 604.812 1010.01C598.098 1010.01 591.688 1010.89 585.832 1012.48C588.045 1013.62 591.541 1015.92 593.726 1019.81Z" fill="#FDF5EB" stroke="#1B2030" stroke-linecap="round" stroke-linejoin="round"/>
<path d="M569.922 1042.76C577.07 1039.23 584.836 1040.75 584.836 1040.75L585.002 1040.72C585.232 1040.05 585.334 1038.96 584.965 1037.23C584.144 1033.35 577.531 1027.74 575.225 1026.09C572.92 1024.44 570.125 1022.73 565.477 1023.29L565.44 1023.24C558.56 1028.89 554.474 1035.94 554.474 1043.61C554.474 1049.88 557.223 1055.75 562.009 1060.79C561.474 1059.47 558.744 1048.29 569.922 1042.77V1042.76Z" fill="#FDF5EB" stroke="#1B2030" stroke-linecap="round" stroke-linejoin="round"/>
<path d="M625.978 1062.02C623.977 1052.34 618.333 1048.42 617.051 1047.88C616.673 1047.73 616.322 1047.64 616.018 1047.62C612.845 1048.82 608.981 1049.69 604.812 1049.69C599.869 1049.69 595.368 1048.51 591.919 1046.98C591.642 1047.03 591.347 1047.1 591.015 1047.24C589.724 1047.77 584.042 1051.73 582.032 1061.45C580.15 1070.54 582.391 1072.89 583.148 1073.92C589.705 1076.02 597.046 1077.19 604.803 1077.19C611.932 1077.19 618.72 1076.19 624.862 1074.41C625.628 1073.37 627.823 1071.01 625.96 1062.02H625.978Z" fill="#FDF5EB" stroke="#1B2030" stroke-linecap="round" stroke-linejoin="round"/>
<path d="M644.258 1023.02L643.622 1022.86C639.268 1023.06 637.47 1023.99 634.952 1025.67C632.582 1027.25 625.48 1033.58 624.659 1037.57C624.281 1039.41 624.401 1040.54 624.65 1041.24C626.688 1040.65 633.31 1040.43 638.429 1043.42C651.691 1051.16 645.512 1062.88 644.055 1064.34C651 1058.62 655.15 1051.42 655.15 1043.6C655.15 1035.77 651.083 1028.71 644.258 1023.02Z" fill="#FDF5EB" stroke="#1B2030" stroke-linecap="round" stroke-linejoin="round"/>
<path d="M407.113 812.395C379.315 812.395 356.775 827.439 356.775 845.986C356.775 864.533 379.315 879.577 407.113 879.577C434.91 879.577 457.451 864.533 457.451 845.986C457.451 827.439 434.91 812.395 407.113 812.395ZM407.113 852.088C396.285 852.088 387.505 846.438 387.505 843.801C387.505 841.165 396.285 835.514 407.113 835.514C417.94 835.514 426.72 841.146 426.72 843.801C426.72 846.207 417.94 852.088 407.113 852.088Z" fill="#1B2030" stroke="#1B2030" stroke-linecap="round" stroke-linejoin="round"/>
<path d="M396.027 822.212C399.421 828.259 398.683 835.56 398.314 836.593L398.222 836.805C400.897 836.03 403.912 835.523 407.113 835.523C409.741 835.523 412.241 835.855 414.528 836.399C414.159 834.399 413.827 827.697 416.999 822.055C419.194 818.147 422.681 815.787 424.968 814.58C419.416 813.178 413.403 812.404 407.113 812.404C400.398 812.404 393.989 813.289 388.132 814.875C390.346 816.018 393.841 818.322 396.027 822.212Z" fill="#FDF5EB" stroke="#1B2030" stroke-linecap="round" stroke-linejoin="round"/>
<path d="M372.223 845.147C379.371 841.616 387.136 843.137 387.136 843.137L387.302 843.11C387.533 842.437 387.634 841.349 387.265 839.616C386.444 835.744 379.832 830.131 377.526 828.481C375.22 826.831 372.426 825.116 367.778 825.678L367.741 825.632C360.86 831.283 356.775 838.335 356.775 845.995C356.775 852.273 359.523 858.145 364.31 863.178C363.775 861.86 361.045 850.678 372.223 845.156V845.147Z" fill="#FDF5EB" stroke="#1B2030" stroke-linecap="round" stroke-linejoin="round"/>
<path d="M428.279 864.413C426.278 854.734 420.633 850.807 419.351 850.272C418.973 850.116 418.623 850.033 418.318 850.005C415.146 851.213 411.281 852.079 407.113 852.079C402.169 852.079 397.669 850.899 394.219 849.369C393.943 849.415 393.647 849.489 393.315 849.627C392.024 850.162 386.343 854.116 384.332 863.841C382.451 872.931 384.692 875.281 385.448 876.314C392.006 878.406 399.347 879.577 407.103 879.577C414.233 879.577 421.021 878.581 427.163 876.802C427.928 875.761 430.124 873.401 428.261 864.413H428.279Z" fill="#FDF5EB" stroke="#1B2030" stroke-linecap="round" stroke-linejoin="round"/>
<path d="M446.558 825.411L445.922 825.245C441.569 825.448 439.771 826.379 437.253 828.056C434.882 829.642 427.781 835.966 426.96 839.957C426.582 841.801 426.702 842.935 426.951 843.626C428.989 843.036 435.611 842.824 440.73 845.811C453.992 853.545 447.813 865.27 446.356 866.727C453.3 861.012 457.451 853.812 457.451 845.986C457.451 838.16 453.383 831.099 446.558 825.411Z" fill="#FDF5EB" stroke="#1B2030" stroke-linecap="round" stroke-linejoin="round"/>
<path d="M789.646 1194.74C761.848 1194.74 739.308 1209.78 739.308 1228.33C739.308 1246.88 761.848 1261.92 789.646 1261.92C817.443 1261.92 839.983 1246.88 839.983 1228.33C839.983 1209.78 817.443 1194.74 789.646 1194.74ZM789.646 1234.43C778.818 1234.43 770.038 1228.78 770.038 1226.14C770.038 1223.51 778.818 1217.86 789.646 1217.86C800.473 1217.86 809.253 1223.49 809.253 1226.14C809.253 1228.55 800.473 1234.43 789.646 1234.43Z" fill="#1B2030" stroke="#1B2030" stroke-linecap="round" stroke-linejoin="round"/>
<path d="M778.56 1204.55C781.954 1210.6 781.216 1217.9 780.847 1218.94L780.755 1219.15C783.429 1218.37 786.445 1217.87 789.646 1217.87C792.274 1217.87 794.774 1218.2 797.061 1218.74C796.692 1216.74 796.36 1210.04 799.532 1204.4C801.727 1200.49 805.214 1198.13 807.501 1196.92C801.949 1195.52 795.936 1194.75 789.646 1194.75C782.931 1194.75 776.522 1195.63 770.665 1197.22C772.879 1198.36 776.374 1200.66 778.56 1204.55Z" fill="#FDF5EB" stroke="#1B2030" stroke-linecap="round" stroke-linejoin="round"/>
<path d="M754.756 1227.49C761.904 1223.96 769.669 1225.48 769.669 1225.48L769.835 1225.45C770.066 1224.78 770.167 1223.69 769.798 1221.96C768.977 1218.09 762.365 1212.47 760.059 1210.82C757.753 1209.17 754.959 1207.46 750.31 1208.02L750.274 1207.97C743.393 1213.63 739.308 1220.68 739.308 1228.34C739.308 1234.62 742.056 1240.49 746.843 1245.52C746.308 1244.2 743.578 1233.02 754.756 1227.5V1227.49Z" fill="#FDF5EB" stroke="#1B2030" stroke-linecap="round" stroke-linejoin="round"/>
<path d="M810.812 1246.76C808.811 1237.09 803.166 1233.16 801.884 1232.62C801.506 1232.47 801.156 1232.38 800.851 1232.36C797.679 1233.56 793.814 1234.43 789.646 1234.43C784.702 1234.43 780.202 1233.25 776.752 1231.72C776.476 1231.77 776.18 1231.84 775.848 1231.98C774.557 1232.51 768.876 1236.47 766.865 1246.19C764.984 1255.28 767.225 1257.63 767.981 1258.67C774.539 1260.76 781.88 1261.93 789.636 1261.93C796.766 1261.93 803.554 1260.93 809.696 1259.15C810.461 1258.11 812.657 1255.75 810.794 1246.76H810.812Z" fill="#FDF5EB" stroke="#1B2030" stroke-linecap="round" stroke-linejoin="round"/>
<path d="M829.091 1207.76L828.455 1207.6C824.102 1207.8 822.304 1208.73 819.786 1210.41C817.415 1211.99 810.314 1218.32 809.493 1222.31C809.115 1224.15 809.235 1225.29 809.484 1225.98C811.522 1225.39 818.144 1225.18 823.263 1228.16C836.525 1235.9 830.346 1247.62 828.889 1249.08C835.833 1243.36 839.983 1236.16 839.983 1228.34C839.983 1220.51 835.916 1213.45 829.091 1207.76Z" fill="#FDF5EB" stroke="#1B2030" stroke-linecap="round" stroke-linejoin="round"/>
<path d="M222.279 1010.01C194.482 1010.01 171.941 1025.05 171.941 1043.6C171.941 1062.14 194.482 1077.19 222.279 1077.19C250.077 1077.19 272.617 1062.14 272.617 1043.6C272.617 1025.05 250.077 1010.01 222.279 1010.01ZM222.279 1049.7C211.452 1049.7 202.671 1044.05 202.671 1041.41C202.671 1038.77 211.452 1033.12 222.279 1033.12C233.107 1033.12 241.887 1038.76 241.887 1041.41C241.887 1043.82 233.107 1049.7 222.279 1049.7Z" fill="#1B2030" stroke="#1B2030" stroke-linecap="round" stroke-linejoin="round"/>
<path d="M211.193 1019.81C214.587 1025.86 213.849 1033.16 213.481 1034.19L213.388 1034.41C216.063 1033.63 219.079 1033.12 222.279 1033.12C224.908 1033.12 227.407 1033.46 229.694 1034C229.325 1032 228.993 1025.3 232.166 1019.66C234.361 1015.75 237.847 1013.39 240.134 1012.18C234.582 1010.78 228.569 1010.01 222.279 1010.01C215.565 1010.01 209.155 1010.89 203.299 1012.48C205.512 1013.62 209.007 1015.92 211.193 1019.81Z" fill="#FDF5EB" stroke="#1B2030" stroke-linecap="round" stroke-linejoin="round"/>
<path d="M187.389 1042.76C194.537 1039.23 202.303 1040.75 202.303 1040.75L202.469 1040.72C202.699 1040.05 202.801 1038.96 202.432 1037.23C201.611 1033.35 194.998 1027.74 192.692 1026.09C190.387 1024.44 187.592 1022.73 182.944 1023.29L182.907 1023.24C176.027 1028.89 171.941 1035.94 171.941 1043.61C171.941 1049.88 174.69 1055.75 179.476 1060.79C178.941 1059.47 176.211 1048.29 187.389 1042.77V1042.76Z" fill="#FDF5EB" stroke="#1B2030" stroke-linecap="round" stroke-linejoin="round"/>
<path d="M243.445 1062.02C241.444 1052.34 235.8 1048.42 234.518 1047.88C234.14 1047.73 233.789 1047.64 233.485 1047.62C230.312 1048.82 226.448 1049.69 222.279 1049.69C217.336 1049.69 212.835 1048.51 209.386 1046.98C209.109 1047.03 208.814 1047.1 208.482 1047.24C207.191 1047.77 201.509 1051.73 199.499 1061.45C197.617 1070.54 199.859 1072.89 200.615 1073.92C207.172 1076.02 214.513 1077.19 222.27 1077.19C229.399 1077.19 236.187 1076.19 242.329 1074.41C243.095 1073.37 245.29 1071.01 243.427 1062.02H243.445Z" fill="#FDF5EB" stroke="#1B2030" stroke-linecap="round" stroke-linejoin="round"/>
<path d="M261.725 1023.02L261.089 1022.86C256.735 1023.06 254.937 1023.99 252.419 1025.67C250.049 1027.25 242.947 1033.58 242.126 1037.57C241.748 1039.41 241.868 1040.54 242.117 1041.24C244.155 1040.65 250.777 1040.43 255.896 1043.42C269.158 1051.16 262.979 1062.88 261.522 1064.34C268.467 1058.62 272.617 1051.42 272.617 1043.6C272.617 1035.77 268.55 1028.71 261.725 1023.02Z" fill="#FDF5EB" stroke="#1B2030" stroke-linecap="round" stroke-linejoin="round"/>
<path d="M24.5797 812.395C-3.21777 812.395 -25.7582 827.439 -25.7582 845.986C-25.7582 864.533 -3.21777 879.577 24.5797 879.577C52.3771 879.577 74.9176 864.533 74.9176 845.986C74.9176 827.439 52.3771 812.395 24.5797 812.395ZM24.5797 852.088C13.7521 852.088 4.97205 846.438 4.97205 843.801C4.97205 841.165 13.7521 835.514 24.5797 835.514C35.4072 835.514 44.1873 841.146 44.1873 843.801C44.1873 846.207 35.4072 852.088 24.5797 852.088Z" fill="#1B2030" stroke="#1B2030" stroke-linecap="round" stroke-linejoin="round"/>
<path d="M13.4847 822.212C16.8787 828.259 16.1408 835.56 15.7719 836.593L15.6797 836.805C18.3543 836.03 21.3701 835.523 24.5704 835.523C27.1989 835.523 29.6983 835.855 31.9856 836.399C31.6167 834.399 31.2846 827.697 34.4573 822.055C36.6523 818.147 40.1385 815.787 42.4257 814.58C36.8736 813.178 30.8604 812.404 24.5704 812.404C17.8563 812.404 11.4464 813.289 5.58997 814.875C7.80343 816.018 11.2989 818.322 13.4847 822.212Z" fill="#FDF5EB" stroke="#1B2030" stroke-linecap="round" stroke-linejoin="round"/>
<path d="M-10.3193 845.147C-3.17166 841.616 4.59393 843.137 4.59393 843.137L4.75993 843.11C4.9905 842.437 5.09197 841.349 4.72306 839.616C3.90223 835.744 -2.71052 830.131 -5.01621 828.481C-7.32191 826.831 -10.1164 825.116 -14.7647 825.678L-14.8016 825.632C-21.6818 831.283 -25.7675 838.335 -25.7675 845.995C-25.7675 852.273 -23.0191 858.145 -18.2324 863.178C-18.7674 861.86 -21.4973 850.678 -10.3193 845.156V845.147Z" fill="#FDF5EB" stroke="#1B2030" stroke-linecap="round" stroke-linejoin="round"/>
<path d="M45.7367 864.413C43.7354 854.734 38.091 850.807 36.8091 850.272C36.4309 850.116 36.0805 850.033 35.7761 850.005C32.6035 851.213 28.7392 852.079 24.5705 852.079C19.6271 852.079 15.1263 850.899 11.677 849.369C11.4003 849.415 11.1052 849.489 10.7732 849.627C9.48201 850.162 3.80076 854.116 1.79019 863.841C-0.0912515 872.931 2.1499 875.281 2.90617 876.314C9.46356 878.406 16.8049 879.577 24.5612 879.577C31.6904 879.577 38.4784 878.581 44.6208 876.802C45.3862 875.761 47.5813 873.401 45.7183 864.413H45.7367Z" fill="#FDF5EB" stroke="#1B2030" stroke-linecap="round" stroke-linejoin="round"/>
<path d="M64.0162 825.411L63.3799 825.245C59.0267 825.448 57.2283 826.379 54.7105 828.056C52.3402 829.642 45.2387 835.966 44.4179 839.957C44.0397 841.801 44.1596 842.935 44.4087 843.626C46.4469 843.036 53.0688 842.824 58.1875 845.811C71.4498 853.545 65.2705 865.27 63.8133 866.727C70.7581 861.012 74.9084 853.812 74.9084 845.986C74.9084 838.16 70.8411 831.099 64.0162 825.411Z" fill="#FDF5EB" stroke="#1B2030" stroke-linecap="round" stroke-linejoin="round"/>
<path d="M407.113 1194.74C379.315 1194.74 356.775 1209.78 356.775 1228.33C356.775 1246.88 379.315 1261.92 407.113 1261.92C434.91 1261.92 457.451 1246.88 457.451 1228.33C457.451 1209.78 434.91 1194.74 407.113 1194.74ZM407.113 1234.43C396.285 1234.43 387.505 1228.78 387.505 1226.14C387.505 1223.51 396.285 1217.86 407.113 1217.86C417.94 1217.86 426.72 1223.49 426.72 1226.14C426.72 1228.55 417.94 1234.43 407.113 1234.43Z" fill="#1B2030" stroke="#1B2030" stroke-linecap="round" stroke-linejoin="round"/>
<path d="M396.027 1204.55C399.421 1210.6 398.683 1217.9 398.314 1218.94L398.222 1219.15C400.897 1218.37 403.912 1217.87 407.113 1217.87C409.741 1217.87 412.241 1218.2 414.528 1218.74C414.159 1216.74 413.827 1210.04 416.999 1204.4C419.194 1200.49 422.681 1198.13 424.968 1196.92C419.416 1195.52 413.403 1194.75 407.113 1194.75C400.398 1194.75 393.989 1195.63 388.132 1197.22C390.346 1198.36 393.841 1200.66 396.027 1204.55Z" fill="#FDF5EB" stroke="#1B2030" stroke-linecap="round" stroke-linejoin="round"/>
<path d="M372.223 1227.49C379.371 1223.96 387.136 1225.48 387.136 1225.48L387.302 1225.45C387.533 1224.78 387.634 1223.69 387.265 1221.96C386.444 1218.09 379.832 1212.47 377.526 1210.82C375.22 1209.17 372.426 1207.46 367.778 1208.02L367.741 1207.97C360.86 1213.63 356.775 1220.68 356.775 1228.34C356.775 1234.62 359.523 1240.49 364.31 1245.52C363.775 1244.2 361.045 1233.02 372.223 1227.5V1227.49Z" fill="#FDF5EB" stroke="#1B2030" stroke-linecap="round" stroke-linejoin="round"/>
<path d="M428.279 1246.76C426.278 1237.09 420.633 1233.16 419.351 1232.62C418.973 1232.47 418.623 1232.38 418.318 1232.36C415.146 1233.56 411.281 1234.43 407.113 1234.43C402.169 1234.43 397.669 1233.25 394.219 1231.72C393.943 1231.77 393.647 1231.84 393.315 1231.98C392.024 1232.51 386.343 1236.47 384.332 1246.19C382.451 1255.28 384.692 1257.63 385.448 1258.67C392.006 1260.76 399.347 1261.93 407.103 1261.93C414.233 1261.93 421.021 1260.93 427.163 1259.15C427.928 1258.11 430.124 1255.75 428.261 1246.76H428.279Z" fill="#FDF5EB" stroke="#1B2030" stroke-linecap="round" stroke-linejoin="round"/>
<path d="M446.558 1207.76L445.922 1207.6C441.569 1207.8 439.771 1208.73 437.253 1210.41C434.882 1211.99 427.781 1218.32 426.96 1222.31C426.582 1224.15 426.702 1225.29 426.951 1225.98C428.989 1225.39 435.611 1225.18 440.73 1228.16C453.992 1235.9 447.813 1247.62 446.356 1249.08C453.3 1243.36 457.451 1236.16 457.451 1228.34C457.451 1220.51 453.383 1213.45 446.558 1207.76Z" fill="#FDF5EB" stroke="#1B2030" stroke-linecap="round" stroke-linejoin="round"/>
<path d="M26.3379 1194.74C-1.45958 1194.74 -24 1209.78 -24 1228.33C-24 1246.88 -1.45958 1261.92 26.3379 1261.92C54.1353 1261.92 76.6758 1246.88 76.6758 1228.33C76.6758 1209.78 54.1353 1194.74 26.3379 1194.74ZM26.3379 1234.43C15.5103 1234.43 6.73029 1228.78 6.73029 1226.14C6.73029 1223.51 15.5103 1217.86 26.3379 1217.86C37.1654 1217.86 45.9455 1223.49 45.9455 1226.14C45.9455 1228.55 37.1654 1234.43 26.3379 1234.43Z" fill="#1B2030" stroke="#1B2030" stroke-linecap="round" stroke-linejoin="round"/>
<path d="M15.2521 1204.55C18.6461 1210.6 17.9083 1217.9 17.5393 1218.94L17.4471 1219.15C20.1217 1218.37 23.1375 1217.87 26.3379 1217.87C28.9663 1217.87 31.4657 1218.2 33.753 1218.74C33.3841 1216.74 33.0521 1210.04 36.2247 1204.4C38.4197 1200.49 41.9059 1198.13 44.1932 1196.92C38.6411 1195.52 32.6278 1194.75 26.3379 1194.75C19.6237 1194.75 13.2139 1195.63 7.35742 1197.22C9.57089 1198.36 13.0663 1200.66 15.2521 1204.55Z" fill="#FDF5EB" stroke="#1B2030" stroke-linecap="round" stroke-linejoin="round"/>
<path d="M-8.55185 1227.49C-1.4042 1223.96 6.36136 1225.48 6.36136 1225.48L6.52736 1225.45C6.75793 1224.78 6.8594 1223.69 6.49049 1221.96C5.66966 1218.09 -0.943066 1212.47 -3.24876 1210.82C-5.55445 1209.17 -8.34896 1207.46 -12.9972 1208.02L-13.0341 1207.97C-19.9143 1213.63 -24 1220.68 -24 1228.34C-24 1234.62 -21.2516 1240.49 -16.465 1245.52C-16.9999 1244.2 -19.7299 1233.02 -8.55185 1227.5V1227.49Z" fill="#FDF5EB" stroke="#1B2030" stroke-linecap="round" stroke-linejoin="round"/>
<path d="M47.5041 1246.76C45.5028 1237.09 39.8585 1233.16 38.5765 1232.62C38.1984 1232.47 37.8479 1232.38 37.5436 1232.36C34.3709 1233.56 30.5066 1234.43 26.3379 1234.43C21.3945 1234.43 16.8938 1233.25 13.4444 1231.72C13.1678 1231.77 12.8727 1231.84 12.5406 1231.98C11.2494 1232.51 5.56823 1236.47 3.55766 1246.19C1.67622 1255.28 3.91731 1257.63 4.67358 1258.67C11.231 1260.76 18.5723 1261.93 26.3287 1261.93C33.4579 1261.93 40.2459 1260.93 46.3882 1259.15C47.1537 1258.11 49.3487 1255.75 47.4857 1246.76H47.5041Z" fill="#FDF5EB" stroke="#1B2030" stroke-linecap="round" stroke-linejoin="round"/>
<path d="M65.7837 1207.76L65.1473 1207.6C60.7941 1207.8 58.9957 1208.73 56.4779 1210.41C54.1077 1211.99 47.0061 1218.32 46.1853 1222.31C45.8071 1224.15 45.927 1225.29 46.176 1225.98C48.2143 1225.39 54.8362 1225.18 59.9549 1228.16C73.2172 1235.9 67.038 1247.62 65.5808 1249.08C72.5255 1243.36 76.6757 1236.16 76.6757 1228.34C76.6757 1220.51 72.6085 1213.45 65.7837 1207.76Z" fill="#FDF5EB" stroke="#1B2030" stroke-linecap="round" stroke-linejoin="round"/>
<path d="M224.041 629.414C196.243 629.414 173.703 644.458 173.703 663.005C173.703 681.552 196.243 696.596 224.041 696.596C251.838 696.596 274.379 681.552 274.379 663.005C274.379 644.458 251.838 629.414 224.041 629.414ZM224.041 669.107C213.213 669.107 204.433 663.457 204.433 660.82C204.433 658.184 213.213 652.533 224.041 652.533C234.868 652.533 243.648 658.165 243.648 660.82C243.648 663.226 234.868 669.107 224.041 669.107Z" fill="#1B2030" stroke="#1B2030" stroke-linecap="round" stroke-linejoin="round"/>
<path d="M212.955 639.231C216.349 645.278 215.611 652.579 215.242 653.612L215.15 653.824C217.825 653.049 220.84 652.542 224.041 652.542C226.669 652.542 229.169 652.874 231.456 653.418C231.087 651.418 230.755 644.716 233.927 639.074C236.122 635.166 239.609 632.806 241.896 631.599C236.344 630.197 230.331 629.423 224.041 629.423C217.326 629.423 210.917 630.308 205.06 631.894C207.274 633.037 210.769 635.341 212.955 639.231Z" fill="#FDF5EB" stroke="#1B2030" stroke-linecap="round" stroke-linejoin="round"/>
<path d="M189.151 662.166C196.299 658.635 204.064 660.156 204.064 660.156L204.23 660.129C204.461 659.456 204.562 658.368 204.193 656.635C203.372 652.763 196.76 647.15 194.454 645.5C192.148 643.85 189.354 642.135 184.706 642.697L184.669 642.651C177.788 648.302 173.703 655.354 173.703 663.014C173.703 669.292 176.451 675.164 181.238 680.197C180.703 678.879 177.973 667.697 189.151 662.175V662.166Z" fill="#FDF5EB" stroke="#1B2030" stroke-linecap="round" stroke-linejoin="round"/>
<path d="M245.207 681.432C243.206 671.753 237.561 667.826 236.279 667.291C235.901 667.135 235.551 667.052 235.246 667.024C232.074 668.232 228.209 669.098 224.041 669.098C219.097 669.098 214.597 667.918 211.147 666.388C210.871 666.434 210.575 666.508 210.243 666.646C208.952 667.181 203.271 671.135 201.26 680.861C199.379 689.95 201.62 692.3 202.376 693.333C208.934 695.425 216.275 696.596 224.031 696.596C231.161 696.596 237.949 695.6 244.091 693.821C244.856 692.78 247.051 690.42 245.188 681.432H245.207Z" fill="#FDF5EB" stroke="#1B2030" stroke-linecap="round" stroke-linejoin="round"/>
<path d="M263.486 642.43L262.85 642.264C258.497 642.467 256.698 643.398 254.181 645.076C251.81 646.661 244.709 652.985 243.888 656.976C243.51 658.82 243.63 659.954 243.879 660.645C245.917 660.055 252.539 659.843 257.658 662.83C270.92 670.564 264.741 682.289 263.284 683.746C270.228 678.031 274.379 670.831 274.379 663.005C274.379 655.179 270.311 648.118 263.486 642.43Z" fill="#FDF5EB" stroke="#1B2030" stroke-linecap="round" stroke-linejoin="round"/>
<path d="M26.3321 431.804C-1.46538 431.804 -24.0059 446.848 -24.0059 465.395C-24.0059 483.942 -1.46538 498.986 26.3321 498.986C54.1295 498.986 76.6699 483.942 76.6699 465.395C76.6699 446.848 54.1295 431.804 26.3321 431.804ZM26.3321 471.497C15.5045 471.497 6.72443 465.846 6.72443 463.21C6.72443 460.574 15.5045 454.923 26.3321 454.923C37.1596 454.923 45.9397 460.555 45.9397 463.21C45.9397 465.616 37.1596 471.497 26.3321 471.497Z" fill="#1B2030" stroke="#1B2030" stroke-linecap="round" stroke-linejoin="round"/>
<path d="M15.2463 441.621C18.6402 447.668 17.9024 454.969 17.5335 456.001L17.4413 456.213C20.1159 455.439 23.1317 454.932 26.332 454.932C28.9605 454.932 31.4599 455.264 33.7472 455.808C33.3783 453.807 33.0462 447.106 36.2189 441.464C38.4139 437.556 41.9001 435.196 44.1873 433.988C38.6352 432.587 32.622 431.813 26.332 431.813C19.6179 431.813 13.208 432.698 7.35156 434.283C9.56503 435.426 13.0605 437.731 15.2463 441.621Z" fill="#FDF5EB" stroke="#1B2030" stroke-linecap="round" stroke-linejoin="round"/>
<path d="M-8.55771 464.556C-1.41006 461.025 6.35552 462.546 6.35552 462.546L6.52153 462.519C6.7521 461.846 6.85354 460.758 6.48463 459.025C5.6638 455.153 -0.948927 449.539 -3.25462 447.889C-5.56031 446.239 -8.35479 444.525 -13.0031 445.087L-13.04 445.041C-19.9202 450.692 -24.0059 457.744 -24.0059 465.404C-24.0059 471.681 -21.2575 477.553 -16.4708 482.587C-17.0058 481.268 -19.7357 470.087 -8.55771 464.565V464.556Z" fill="#FDF5EB" stroke="#1B2030" stroke-linecap="round" stroke-linejoin="round"/>
<path d="M47.4983 483.831C45.497 474.152 39.8526 470.225 38.5707 469.69C38.1925 469.534 37.8421 469.451 37.5377 469.423C34.3651 470.631 30.5008 471.497 26.3321 471.497C21.3887 471.497 16.8879 470.317 13.4386 468.787C13.1619 468.833 12.8668 468.907 12.5348 469.045C11.2436 469.58 5.56236 473.534 3.5518 483.259C1.67035 492.349 3.91148 494.699 4.66774 495.732C11.2251 497.824 18.5665 498.995 26.3228 498.995C33.452 498.995 40.24 497.999 46.3824 496.22C47.1479 495.179 49.3429 492.819 47.4799 483.831H47.4983Z" fill="#FDF5EB" stroke="#1B2030" stroke-linecap="round" stroke-linejoin="round"/>
<path d="M65.7779 444.829L65.1415 444.663C60.7883 444.866 58.9899 445.797 56.4721 447.474C54.1018 449.06 47.0003 455.384 46.1795 459.375C45.8013 461.219 45.9212 462.353 46.1702 463.044C48.2085 462.454 54.8304 462.242 59.9491 465.229C73.2114 472.963 67.0322 484.688 65.575 486.145C72.5197 480.43 76.6699 473.23 76.6699 465.404C76.6699 457.578 72.6027 450.516 65.7779 444.829Z" fill="#FDF5EB" stroke="#1B2030" stroke-linecap="round" stroke-linejoin="round"/>
<path d="M987.354 1010.01C959.557 1010.01 937.016 1025.05 937.016 1043.6C937.016 1062.14 959.557 1077.19 987.354 1077.19C1015.15 1077.19 1037.69 1062.14 1037.69 1043.6C1037.69 1025.05 1015.15 1010.01 987.354 1010.01ZM987.354 1049.7C976.527 1049.7 967.747 1044.05 967.747 1041.41C967.747 1038.77 976.527 1033.12 987.354 1033.12C998.182 1033.12 1006.96 1038.76 1006.96 1041.41C1006.96 1043.82 998.182 1049.7 987.354 1049.7Z" fill="#1B2030" stroke="#1B2030" stroke-linecap="round" stroke-linejoin="round"/>
<path d="M976.268 1019.81C979.662 1025.86 978.925 1033.16 978.556 1034.19L978.463 1034.41C981.138 1033.63 984.154 1033.12 987.354 1033.12C989.983 1033.12 992.482 1033.46 994.769 1034C994.4 1032 994.068 1025.3 997.241 1019.66C999.436 1015.75 1002.92 1013.39 1005.21 1012.18C999.657 1010.78 993.644 1010.01 987.354 1010.01C980.64 1010.01 974.23 1010.89 968.374 1012.48C970.587 1013.62 974.083 1015.92 976.268 1019.81Z" fill="#FDF5EB" stroke="#1B2030" stroke-linecap="round" stroke-linejoin="round"/>
<path d="M952.465 1042.76C959.612 1039.23 967.378 1040.75 967.378 1040.75L967.544 1040.72C967.774 1040.05 967.876 1038.96 967.507 1037.23C966.686 1033.35 960.073 1027.74 957.768 1026.09C955.462 1024.44 952.667 1022.73 948.019 1023.29L947.982 1023.24C941.102 1028.89 937.016 1035.94 937.016 1043.61C937.016 1049.88 939.765 1055.75 944.551 1060.79C944.016 1059.47 941.287 1048.29 952.465 1042.77V1042.76Z" fill="#FDF5EB" stroke="#1B2030" stroke-linecap="round" stroke-linejoin="round"/>
<path d="M1008.52 1062.02C1006.52 1052.34 1000.87 1048.42 999.593 1047.88C999.215 1047.73 998.864 1047.64 998.56 1047.62C995.387 1048.82 991.523 1049.69 987.354 1049.69C982.411 1049.69 977.91 1048.51 974.461 1046.98C974.184 1047.03 973.889 1047.1 973.557 1047.24C972.266 1047.77 966.585 1051.73 964.574 1061.45C962.693 1070.54 964.934 1072.89 965.69 1073.92C972.247 1076.02 979.589 1077.19 987.345 1077.19C994.474 1077.19 1001.26 1076.19 1007.4 1074.41C1008.17 1073.37 1010.37 1071.01 1008.5 1062.02H1008.52Z" fill="#FDF5EB" stroke="#1B2030" stroke-linecap="round" stroke-linejoin="round"/>
<path d="M1026.8 1023.02L1026.16 1022.86C1021.81 1023.06 1020.01 1023.99 1017.49 1025.67C1015.12 1027.25 1008.02 1033.58 1007.2 1037.57C1006.82 1039.41 1006.94 1040.54 1007.19 1041.24C1009.23 1040.65 1015.85 1040.43 1020.97 1043.42C1034.23 1051.16 1028.05 1062.88 1026.6 1064.34C1033.54 1058.62 1037.69 1051.42 1037.69 1043.6C1037.69 1035.77 1033.62 1028.71 1026.8 1023.02Z" fill="#FDF5EB" stroke="#1B2030" stroke-linecap="round" stroke-linejoin="round"/>
<path d="M789.646 812.395C761.848 812.395 739.308 827.439 739.308 845.986C739.308 864.533 761.848 879.577 789.646 879.577C817.443 879.577 839.983 864.533 839.983 845.986C839.983 827.439 817.443 812.395 789.646 812.395ZM789.646 852.088C778.818 852.088 770.038 846.438 770.038 843.801C770.038 841.165 778.818 835.514 789.646 835.514C800.473 835.514 809.253 841.146 809.253 843.801C809.253 846.207 800.473 852.088 789.646 852.088Z" fill="#1B2030" stroke="#1B2030" stroke-linecap="round" stroke-linejoin="round"/>
<path d="M778.56 822.212C781.954 828.259 781.216 835.56 780.847 836.593L780.755 836.805C783.429 836.03 786.445 835.523 789.646 835.523C792.274 835.523 794.774 835.855 797.061 836.399C796.692 834.399 796.36 827.697 799.532 822.055C801.727 818.147 805.214 815.787 807.501 814.58C801.949 813.178 795.936 812.404 789.646 812.404C782.931 812.404 776.522 813.289 770.665 814.875C772.879 816.018 776.374 818.322 778.56 822.212Z" fill="#FDF5EB" stroke="#1B2030" stroke-linecap="round" stroke-linejoin="round"/>
<path d="M754.756 845.147C761.904 841.616 769.669 843.137 769.669 843.137L769.835 843.11C770.066 842.437 770.167 841.349 769.798 839.616C768.977 835.744 762.365 830.131 760.059 828.481C757.753 826.831 754.959 825.116 750.31 825.678L750.274 825.632C743.393 831.283 739.308 838.335 739.308 845.995C739.308 852.273 742.056 858.145 746.843 863.178C746.308 861.86 743.578 850.678 754.756 845.156V845.147Z" fill="#FDF5EB" stroke="#1B2030" stroke-linecap="round" stroke-linejoin="round"/>
<path d="M810.812 864.413C808.811 854.734 803.166 850.807 801.884 850.272C801.506 850.116 801.156 850.033 800.851 850.005C797.679 851.213 793.814 852.079 789.646 852.079C784.702 852.079 780.202 850.899 776.752 849.369C776.476 849.415 776.18 849.489 775.848 849.627C774.557 850.162 768.876 854.116 766.865 863.841C764.984 872.931 767.225 875.281 767.981 876.314C774.539 878.406 781.88 879.577 789.636 879.577C796.766 879.577 803.554 878.581 809.696 876.802C810.461 875.761 812.657 873.401 810.794 864.413H810.812Z" fill="#FDF5EB" stroke="#1B2030" stroke-linecap="round" stroke-linejoin="round"/>
<path d="M829.091 825.411L828.455 825.245C824.102 825.448 822.304 826.379 819.786 828.056C817.415 829.642 810.314 835.966 809.493 839.957C809.115 841.801 809.235 842.935 809.484 843.626C811.522 843.036 818.144 842.824 823.263 845.811C836.525 853.545 830.346 865.27 828.889 866.727C835.833 861.012 839.983 853.812 839.983 845.986C839.983 838.16 835.916 831.099 829.091 825.411Z" fill="#FDF5EB" stroke="#1B2030" stroke-linecap="round" stroke-linejoin="round"/>
<path d="M1172.19 1194.74C1144.39 1194.74 1121.85 1209.78 1121.85 1228.33C1121.85 1246.88 1144.39 1261.92 1172.19 1261.92C1199.99 1261.92 1222.53 1246.88 1222.53 1228.33C1222.53 1209.78 1199.99 1194.74 1172.19 1194.74ZM1172.19 1234.43C1161.36 1234.43 1152.58 1228.78 1152.58 1226.14C1152.58 1223.51 1161.36 1217.86 1172.19 1217.86C1183.02 1217.86 1191.8 1223.49 1191.8 1226.14C1191.8 1228.55 1183.02 1234.43 1172.19 1234.43Z" fill="#1B2030" stroke="#1B2030" stroke-linecap="round" stroke-linejoin="round"/>
<path d="M1161.09 1204.55C1164.49 1210.6 1163.75 1217.9 1163.38 1218.94L1163.29 1219.15C1165.96 1218.37 1168.98 1217.87 1172.18 1217.87C1174.81 1217.87 1177.31 1218.2 1179.59 1218.74C1179.22 1216.74 1178.89 1210.04 1182.07 1204.4C1184.26 1200.49 1187.75 1198.13 1190.03 1196.92C1184.48 1195.52 1178.47 1194.75 1172.18 1194.75C1165.46 1194.75 1159.05 1195.63 1153.2 1197.22C1155.41 1198.36 1158.91 1200.66 1161.09 1204.55Z" fill="#FDF5EB" stroke="#1B2030" stroke-linecap="round" stroke-linejoin="round"/>
<path d="M1137.29 1227.49C1144.44 1223.96 1152.2 1225.48 1152.2 1225.48L1152.37 1225.45C1152.6 1224.78 1152.7 1223.69 1152.33 1221.96C1151.51 1218.09 1144.9 1212.47 1142.59 1210.82C1140.29 1209.17 1137.49 1207.46 1132.84 1208.02L1132.81 1207.97C1125.93 1213.63 1121.84 1220.68 1121.84 1228.34C1121.84 1234.62 1124.59 1240.49 1129.38 1245.52C1128.84 1244.2 1126.11 1233.02 1137.29 1227.5V1227.49Z" fill="#FDF5EB" stroke="#1B2030" stroke-linecap="round" stroke-linejoin="round"/>
<path d="M1193.34 1246.76C1191.34 1237.09 1185.7 1233.16 1184.42 1232.62C1184.04 1232.47 1183.69 1232.38 1183.38 1232.36C1180.21 1233.56 1176.35 1234.43 1172.18 1234.43C1167.24 1234.43 1162.73 1233.25 1159.29 1231.72C1159.01 1231.77 1158.71 1231.84 1158.38 1231.98C1157.09 1232.51 1151.41 1236.47 1149.4 1246.19C1147.52 1255.28 1149.76 1257.63 1150.51 1258.67C1157.07 1260.76 1164.41 1261.93 1172.17 1261.93C1179.3 1261.93 1186.09 1260.93 1192.23 1259.15C1192.99 1258.11 1195.19 1255.75 1193.33 1246.76H1193.34Z" fill="#FDF5EB" stroke="#1B2030" stroke-linecap="round" stroke-linejoin="round"/>
<path d="M1211.62 1207.76L1210.99 1207.6C1206.63 1207.8 1204.84 1208.73 1202.32 1210.41C1199.95 1211.99 1192.85 1218.32 1192.03 1222.31C1191.65 1224.15 1191.77 1225.29 1192.02 1225.98C1194.06 1225.39 1200.68 1225.18 1205.8 1228.16C1219.06 1235.9 1212.88 1247.62 1211.42 1249.08C1218.37 1243.36 1222.52 1236.16 1222.52 1228.34C1222.52 1220.51 1218.45 1213.45 1211.62 1207.76Z" fill="#FDF5EB" stroke="#1B2030" stroke-linecap="round" stroke-linejoin="round"/>
<path d="M224.041 247.071C196.243 247.071 173.703 262.115 173.703 280.662C173.703 299.209 196.243 314.253 224.041 314.253C251.838 314.253 274.379 299.209 274.379 280.662C274.379 262.115 251.838 247.071 224.041 247.071ZM224.041 286.765C213.213 286.765 204.433 281.114 204.433 278.478C204.433 275.841 213.213 270.19 224.041 270.19C234.868 270.19 243.648 275.823 243.648 278.478C243.648 280.883 234.868 286.765 224.041 286.765Z" fill="#1B2030" stroke="#1B2030" stroke-linecap="round" stroke-linejoin="round"/>
<path d="M212.955 256.879C216.349 262.926 215.611 270.227 215.242 271.26L215.15 271.472C217.825 270.697 220.84 270.19 224.041 270.19C226.669 270.19 229.169 270.522 231.456 271.066C231.087 269.066 230.755 262.364 233.927 256.723C236.122 252.814 239.609 250.454 241.896 249.247C236.344 247.845 230.331 247.071 224.041 247.071C217.326 247.071 210.917 247.956 205.06 249.542C207.274 250.685 210.769 252.989 212.955 256.879Z" fill="#FDF5EB" stroke="#1B2030" stroke-linecap="round" stroke-linejoin="round"/>
<path d="M189.151 279.823C196.299 276.293 204.064 277.814 204.064 277.814L204.23 277.786C204.461 277.113 204.562 276.025 204.193 274.292C203.372 270.421 196.76 264.807 194.454 263.157C192.148 261.507 189.354 259.792 184.706 260.355L184.669 260.308C177.788 265.959 173.703 273.011 173.703 280.671C173.703 286.949 176.451 292.821 181.238 297.854C180.703 296.536 177.973 285.354 189.151 279.833V279.823Z" fill="#FDF5EB" stroke="#1B2030" stroke-linecap="round" stroke-linejoin="round"/>
<path d="M245.207 299.089C243.206 289.41 237.561 285.483 236.279 284.949C235.901 284.792 235.551 284.709 235.246 284.681C232.074 285.889 228.209 286.755 224.041 286.755C219.097 286.755 214.597 285.576 211.147 284.045C210.871 284.091 210.575 284.165 210.243 284.303C208.952 284.838 203.271 288.793 201.26 298.518C199.379 307.607 201.62 309.958 202.376 310.99C208.934 313.083 216.275 314.253 224.031 314.253C231.161 314.253 237.949 313.258 244.091 311.479C244.856 310.437 247.051 308.077 245.188 299.089H245.207Z" fill="#FDF5EB" stroke="#1B2030" stroke-linecap="round" stroke-linejoin="round"/>
<path d="M263.486 260.087L262.85 259.921C258.497 260.124 256.698 261.055 254.181 262.733C251.81 264.318 244.709 270.642 243.888 274.634C243.51 276.477 243.63 277.611 243.879 278.302C245.917 277.712 252.539 277.5 257.658 280.487C270.92 288.221 264.741 299.947 263.284 301.403C270.228 295.688 274.379 288.488 274.379 280.662C274.379 272.836 270.311 265.775 263.486 260.087Z" fill="#FDF5EB" stroke="#1B2030" stroke-linecap="round" stroke-linejoin="round"/>
<path d="M26.3321 49.4609C-1.46538 49.4609 -24.0059 64.505 -24.0059 83.052C-24.0059 101.599 -1.46538 116.643 26.3321 116.643C54.1295 116.643 76.6699 101.599 76.6699 83.052C76.6699 64.505 54.1387 49.4609 26.3321 49.4609ZM26.3321 89.1544C15.5045 89.1544 6.72443 83.5037 6.72443 80.8673C6.72443 78.2309 15.5045 72.5801 26.3321 72.5801C37.1596 72.5801 45.9397 78.2125 45.9397 80.8673C45.9397 83.2732 37.1596 89.1544 26.3321 89.1544Z" fill="#1B2030" stroke="#1B2030" stroke-linecap="round" stroke-linejoin="round"/>
<path d="M15.2463 59.2783C18.6402 65.3254 17.9024 72.6262 17.5335 73.6587L17.4413 73.8707C20.1159 73.0964 23.1317 72.5894 26.332 72.5894C28.9605 72.5894 31.4599 72.9212 33.7472 73.4651C33.3783 71.4647 33.0462 64.7631 36.2189 59.1216C38.4139 55.2131 41.9001 52.8532 44.1873 51.6456C38.6352 50.2445 32.622 49.4702 26.332 49.4702C19.6179 49.4702 13.208 50.3551 7.35156 51.9406C9.56503 53.0837 13.0605 55.3882 15.2463 59.2783Z" fill="#FDF5EB" stroke="#1B2030" stroke-linecap="round" stroke-linejoin="round"/>
<path d="M-8.55771 82.2132C-1.41006 78.6826 6.35552 80.2036 6.35552 80.2036L6.52153 80.1759C6.7521 79.503 6.85354 78.4153 6.48463 76.6823C5.6638 72.8106 -0.948927 67.1967 -3.25462 65.5467C-5.56031 63.8966 -8.35479 62.182 -13.0031 62.7444L-13.04 62.6983C-19.9202 68.349 -24.0059 75.4009 -24.0059 83.0612C-24.0059 89.3388 -21.2575 95.2108 -16.4708 100.244C-17.0058 98.9257 -19.7357 87.7441 -8.55771 82.2224V82.2132Z" fill="#FDF5EB" stroke="#1B2030" stroke-linecap="round" stroke-linejoin="round"/>
<path d="M47.4983 101.479C45.497 91.8 39.8526 87.8731 38.5707 87.3384C38.1925 87.1817 37.8421 87.0988 37.5377 87.0711C34.3651 88.2787 30.5008 89.1452 26.3321 89.1452C21.3887 89.1452 16.8879 87.9653 13.4386 86.4351C13.1619 86.4811 12.8668 86.5549 12.5348 86.6932C11.2436 87.2278 5.56236 91.1824 3.5518 100.908C1.67035 109.997 3.91148 112.347 4.66774 113.38C11.2251 115.472 18.5665 116.643 26.3228 116.643C33.452 116.643 40.24 115.647 46.3824 113.868C47.1479 112.827 49.3429 110.467 47.4799 101.479H47.4983Z" fill="#FDF5EB" stroke="#1B2030" stroke-linecap="round" stroke-linejoin="round"/>
<path d="M65.7779 62.477L65.1415 62.3111C60.7883 62.5139 58.9899 63.4449 56.4721 65.1226C54.1018 66.7082 47.0003 73.0318 46.1795 77.0233C45.8013 78.867 45.9212 80.0008 46.1702 80.6922C48.2085 80.1022 54.8304 79.8902 59.9491 82.8769C73.2114 90.6109 67.0322 102.336 65.575 103.793C72.5197 98.0777 76.6699 90.8783 76.6699 83.052C76.6699 75.2258 72.6027 68.1646 65.7779 62.477Z" fill="#FDF5EB" stroke="#1B2030" stroke-linecap="round" stroke-linejoin="round"/>
<path d="M606.574 629.414C578.776 629.414 556.236 644.458 556.236 663.005C556.236 681.552 578.776 696.596 606.574 696.596C634.371 696.596 656.911 681.552 656.911 663.005C656.911 644.458 634.371 629.414 606.574 629.414ZM606.574 669.107C595.746 669.107 586.966 663.457 586.966 660.82C586.966 658.184 595.746 652.533 606.574 652.533C617.401 652.533 626.181 658.165 626.181 660.82C626.181 663.226 617.401 669.107 606.574 669.107Z" fill="#1B2030" stroke="#1B2030" stroke-linecap="round" stroke-linejoin="round"/>
<path d="M595.488 639.231C598.882 645.278 598.144 652.579 597.775 653.612L597.683 653.824C600.357 653.049 603.373 652.542 606.574 652.542C609.202 652.542 611.701 652.874 613.989 653.418C613.62 651.418 613.288 644.716 616.46 639.074C618.655 635.166 622.142 632.806 624.429 631.599C618.877 630.197 612.864 629.423 606.574 629.423C599.859 629.423 593.45 630.308 587.593 631.894C589.807 633.037 593.302 635.341 595.488 639.231Z" fill="#FDF5EB" stroke="#1B2030" stroke-linecap="round" stroke-linejoin="round"/>
<path d="M571.684 662.166C578.832 658.635 586.597 660.156 586.597 660.156L586.763 660.129C586.994 659.456 587.095 658.368 586.726 656.635C585.905 652.763 579.293 647.15 576.987 645.5C574.681 643.85 571.887 642.135 567.238 642.697L567.202 642.651C560.321 648.302 556.236 655.354 556.236 663.014C556.236 669.292 558.984 675.164 563.771 680.197C563.236 678.879 560.506 667.697 571.684 662.175V662.166Z" fill="#FDF5EB" stroke="#1B2030" stroke-linecap="round" stroke-linejoin="round"/>
<path d="M627.74 681.432C625.738 671.753 620.094 667.826 618.812 667.291C618.434 667.135 618.084 667.052 617.779 667.024C614.607 668.232 610.742 669.098 606.574 669.098C601.63 669.098 597.129 667.918 593.68 666.388C593.403 666.434 593.108 666.508 592.776 666.646C591.485 667.181 585.804 671.135 583.793 680.861C581.912 689.95 584.153 692.3 584.909 693.333C591.467 695.425 598.808 696.596 606.564 696.596C613.694 696.596 620.482 695.6 626.624 693.821C627.389 692.78 629.584 690.42 627.721 681.432H627.74Z" fill="#FDF5EB" stroke="#1B2030" stroke-linecap="round" stroke-linejoin="round"/>
<path d="M646.019 642.43L645.383 642.264C641.03 642.467 639.231 643.398 636.714 645.076C634.343 646.661 627.242 652.985 626.421 656.976C626.043 658.82 626.163 659.954 626.412 660.645C628.45 660.055 635.072 659.843 640.191 662.83C653.453 670.564 647.274 682.289 645.816 683.746C652.761 678.031 656.911 670.831 656.911 663.005C656.911 655.179 652.844 648.118 646.019 642.43Z" fill="#FDF5EB" stroke="#1B2030" stroke-linecap="round" stroke-linejoin="round"/>
<path d="M408.874 431.804C381.077 431.804 358.536 446.848 358.536 465.395C358.536 483.942 381.077 498.986 408.874 498.986C436.672 498.986 459.212 483.942 459.212 465.395C459.212 446.848 436.672 431.804 408.874 431.804ZM408.874 471.497C398.047 471.497 389.266 465.846 389.266 463.21C389.266 460.574 398.047 454.923 408.874 454.923C419.702 454.923 428.482 460.555 428.482 463.21C428.482 465.616 419.702 471.497 408.874 471.497Z" fill="#1B2030" stroke="#1B2030" stroke-linecap="round" stroke-linejoin="round"/>
<path d="M397.779 441.621C401.173 447.668 400.435 454.969 400.066 456.001L399.974 456.213C402.649 455.439 405.665 454.932 408.865 454.932C411.493 454.932 413.993 455.264 416.28 455.808C415.911 453.807 415.579 447.106 418.752 441.464C420.947 437.556 424.433 435.196 426.72 433.988C421.168 432.587 415.155 431.813 408.865 431.813C402.151 431.813 395.741 432.698 389.885 434.283C392.098 435.426 395.593 437.731 397.779 441.621Z" fill="#FDF5EB" stroke="#1B2030" stroke-linecap="round" stroke-linejoin="round"/>
<path d="M373.975 464.556C381.123 461.025 388.889 462.546 388.889 462.546L389.055 462.519C389.285 461.846 389.386 460.758 389.018 459.025C388.197 455.153 381.584 449.539 379.278 447.889C376.973 446.239 374.178 444.525 369.53 445.087L369.493 445.041C362.613 450.692 358.527 457.744 358.527 465.404C358.527 471.681 361.276 477.553 366.062 482.587C365.527 481.268 362.797 470.087 373.975 464.565V464.556Z" fill="#FDF5EB" stroke="#1B2030" stroke-linecap="round" stroke-linejoin="round"/>
<path d="M430.031 483.831C428.03 474.152 422.386 470.225 421.104 469.69C420.726 469.534 420.375 469.451 420.071 469.423C416.898 470.631 413.034 471.497 408.865 471.497C403.922 471.497 399.421 470.317 395.972 468.787C395.695 468.833 395.4 468.907 395.068 469.045C393.777 469.58 388.095 473.534 386.085 483.259C384.203 492.349 386.444 494.699 387.201 495.732C393.758 497.824 401.099 498.995 408.856 498.995C415.985 498.995 422.773 497.999 428.915 496.22C429.681 495.179 431.876 492.819 430.013 483.831H430.031Z" fill="#FDF5EB" stroke="#1B2030" stroke-linecap="round" stroke-linejoin="round"/>
<path d="M448.32 444.829L447.684 444.663C443.331 444.866 441.532 445.797 439.014 447.474C436.644 449.06 429.542 455.384 428.722 459.375C428.344 461.219 428.463 462.353 428.712 463.044C430.751 462.454 437.373 462.242 442.491 465.229C455.754 472.963 449.574 484.688 448.117 486.145C455.062 480.43 459.212 473.23 459.212 465.404C459.212 457.578 455.145 450.516 448.32 444.829Z" fill="#FDF5EB" stroke="#1B2030" stroke-linecap="round" stroke-linejoin="round"/>
<path d="M1368.13 1010.01C1340.34 1010.01 1317.8 1025.05 1317.8 1043.6C1317.8 1062.14 1340.34 1077.19 1368.13 1077.19C1395.93 1077.19 1418.47 1062.14 1418.47 1043.6C1418.47 1025.05 1395.93 1010.01 1368.13 1010.01ZM1368.13 1049.7C1357.31 1049.7 1348.53 1044.05 1348.53 1041.41C1348.53 1038.77 1357.31 1033.12 1368.13 1033.12C1378.96 1033.12 1387.74 1038.76 1387.74 1041.41C1387.74 1043.82 1378.96 1049.7 1368.13 1049.7Z" fill="#1B2030" stroke="#1B2030" stroke-linecap="round" stroke-linejoin="round"/>
<path d="M1357.04 1019.81C1360.43 1025.86 1359.7 1033.16 1359.33 1034.19L1359.23 1034.41C1361.91 1033.63 1364.93 1033.12 1368.13 1033.12C1370.75 1033.12 1373.25 1033.46 1375.54 1034C1375.17 1032 1374.84 1025.3 1378.01 1019.66C1380.21 1015.75 1383.69 1013.39 1385.98 1012.18C1380.43 1010.78 1374.42 1010.01 1368.13 1010.01C1361.41 1010.01 1355 1010.89 1349.15 1012.48C1351.36 1013.62 1354.85 1015.92 1357.04 1019.81Z" fill="#FDF5EB" stroke="#1B2030" stroke-linecap="round" stroke-linejoin="round"/>
<path d="M1333.24 1042.76C1340.38 1039.23 1348.15 1040.75 1348.15 1040.75L1348.32 1040.72C1348.55 1040.05 1348.65 1038.96 1348.28 1037.23C1347.46 1033.35 1340.84 1027.74 1338.54 1026.09C1336.23 1024.44 1333.44 1022.73 1328.79 1023.29L1328.75 1023.24C1321.87 1028.89 1317.79 1035.94 1317.79 1043.61C1317.79 1049.88 1320.54 1055.75 1325.32 1060.79C1324.79 1059.47 1322.06 1048.29 1333.24 1042.77V1042.76Z" fill="#FDF5EB" stroke="#1B2030" stroke-linecap="round" stroke-linejoin="round"/>
<path d="M1389.29 1062.02C1387.29 1052.34 1381.65 1048.42 1380.36 1047.88C1379.99 1047.73 1379.64 1047.64 1379.33 1047.62C1376.16 1048.82 1372.29 1049.69 1368.13 1049.69C1363.18 1049.69 1358.68 1048.51 1355.23 1046.98C1354.96 1047.03 1354.66 1047.1 1354.33 1047.24C1353.04 1047.77 1347.36 1051.73 1345.35 1061.45C1343.46 1070.54 1345.71 1072.89 1346.46 1073.92C1353.02 1076.02 1360.36 1077.19 1368.12 1077.19C1375.25 1077.19 1382.03 1076.19 1388.18 1074.41C1388.94 1073.37 1391.14 1071.01 1389.27 1062.02H1389.29Z" fill="#FDF5EB" stroke="#1B2030" stroke-linecap="round" stroke-linejoin="round"/>
<path d="M1407.57 1023.02L1406.94 1022.86C1402.58 1023.06 1400.78 1023.99 1398.27 1025.67C1395.9 1027.25 1388.79 1033.58 1387.97 1037.57C1387.59 1039.41 1387.71 1040.54 1387.96 1041.24C1390 1040.65 1396.62 1040.43 1401.74 1043.42C1415.01 1051.16 1408.83 1062.88 1407.37 1064.34C1414.31 1058.62 1418.46 1051.42 1418.46 1043.6C1418.46 1035.77 1414.4 1028.71 1407.57 1023.02Z" fill="#FDF5EB" stroke="#1B2030" stroke-linecap="round" stroke-linejoin="round"/>
<path d="M1170.43 812.395C1142.63 812.395 1120.09 827.439 1120.09 845.986C1120.09 864.533 1142.63 879.577 1170.43 879.577C1198.22 879.577 1220.76 864.533 1220.76 845.986C1220.76 827.439 1198.22 812.395 1170.43 812.395ZM1170.43 852.088C1159.6 852.088 1150.82 846.438 1150.82 843.801C1150.82 841.165 1159.6 835.514 1170.43 835.514C1181.25 835.514 1190.03 841.146 1190.03 843.801C1190.03 846.207 1181.25 852.088 1170.43 852.088Z" fill="#1B2030" stroke="#1B2030" stroke-linecap="round" stroke-linejoin="round"/>
<path d="M1159.34 822.212C1162.73 828.259 1162 835.56 1161.63 836.593L1161.54 836.805C1164.21 836.03 1167.23 835.523 1170.43 835.523C1173.05 835.523 1175.55 835.855 1177.84 836.399C1177.47 834.399 1177.14 827.697 1180.31 822.055C1182.51 818.147 1185.99 815.787 1188.28 814.58C1182.73 813.178 1176.72 812.404 1170.43 812.404C1163.71 812.404 1157.3 813.289 1151.45 814.875C1153.66 816.018 1157.15 818.322 1159.34 822.212Z" fill="#FDF5EB" stroke="#1B2030" stroke-linecap="round" stroke-linejoin="round"/>
<path d="M1135.53 845.147C1142.68 841.616 1150.44 843.137 1150.44 843.137L1150.61 843.11C1150.84 842.437 1150.94 841.349 1150.57 839.616C1149.75 835.744 1143.14 830.131 1140.83 828.481C1138.52 826.831 1135.73 825.116 1131.08 825.678L1131.05 825.632C1124.16 831.283 1120.08 838.335 1120.08 845.995C1120.08 852.273 1122.83 858.145 1127.61 863.178C1127.08 861.86 1124.35 850.678 1135.53 845.156V845.147Z" fill="#FDF5EB" stroke="#1B2030" stroke-linecap="round" stroke-linejoin="round"/>
<path d="M1191.58 864.413C1189.58 854.734 1183.94 850.807 1182.66 850.272C1182.28 850.116 1181.93 850.033 1181.62 850.005C1178.45 851.213 1174.59 852.079 1170.42 852.079C1165.47 852.079 1160.97 850.899 1157.52 849.369C1157.25 849.415 1156.95 849.489 1156.62 849.627C1155.33 850.162 1149.65 854.116 1147.64 863.841C1145.76 872.931 1148 875.281 1148.75 876.314C1155.31 878.406 1162.65 879.577 1170.41 879.577C1177.54 879.577 1184.33 878.581 1190.47 876.802C1191.23 875.761 1193.43 873.401 1191.56 864.413H1191.58Z" fill="#FDF5EB" stroke="#1B2030" stroke-linecap="round" stroke-linejoin="round"/>
<path d="M1209.87 825.411L1209.24 825.245C1204.88 825.448 1203.08 826.379 1200.57 828.056C1198.2 829.642 1191.09 835.966 1190.27 839.957C1189.9 841.801 1190.02 842.935 1190.26 843.626C1192.3 843.036 1198.92 842.824 1204.04 845.811C1217.31 853.545 1211.13 865.27 1209.67 866.727C1216.61 861.012 1220.76 853.812 1220.76 845.986C1220.76 838.16 1216.7 831.099 1209.87 825.411Z" fill="#FDF5EB" stroke="#1B2030" stroke-linecap="round" stroke-linejoin="round"/>
<path d="M1552.96 1194.74C1525.16 1194.74 1502.62 1209.78 1502.62 1228.33C1502.62 1246.88 1525.16 1261.92 1552.96 1261.92C1580.76 1261.92 1603.3 1246.88 1603.3 1228.33C1603.3 1209.78 1580.76 1194.74 1552.96 1194.74ZM1552.96 1234.43C1542.13 1234.43 1533.35 1228.78 1533.35 1226.14C1533.35 1223.51 1542.13 1217.86 1552.96 1217.86C1563.79 1217.86 1572.57 1223.49 1572.57 1226.14C1572.57 1228.55 1563.79 1234.43 1552.96 1234.43Z" fill="#1B2030" stroke="#1B2030" stroke-linecap="round" stroke-linejoin="round"/>
<path d="M1541.87 1204.55C1545.27 1210.6 1544.53 1217.9 1544.16 1218.94L1544.07 1219.15C1546.74 1218.37 1549.76 1217.87 1552.96 1217.87C1555.59 1217.87 1558.09 1218.2 1560.37 1218.74C1560.01 1216.74 1559.67 1210.04 1562.85 1204.4C1565.04 1200.49 1568.53 1198.13 1570.81 1196.92C1565.26 1195.52 1559.25 1194.75 1552.96 1194.75C1546.25 1194.75 1539.84 1195.63 1533.98 1197.22C1536.19 1198.36 1539.69 1200.66 1541.87 1204.55Z" fill="#FDF5EB" stroke="#1B2030" stroke-linecap="round" stroke-linejoin="round"/>
<path d="M1518.07 1227.49C1525.22 1223.96 1532.98 1225.48 1532.98 1225.48L1533.15 1225.45C1533.38 1224.78 1533.48 1223.69 1533.11 1221.96C1532.29 1218.09 1525.68 1212.47 1523.37 1210.82C1521.07 1209.17 1518.27 1207.46 1513.62 1208.02L1513.59 1207.97C1506.71 1213.63 1502.62 1220.68 1502.62 1228.34C1502.62 1234.62 1505.37 1240.49 1510.16 1245.52C1509.62 1244.2 1506.89 1233.02 1518.07 1227.5V1227.49Z" fill="#FDF5EB" stroke="#1B2030" stroke-linecap="round" stroke-linejoin="round"/>
<path d="M1574.13 1246.76C1572.12 1237.09 1566.48 1233.16 1565.2 1232.62C1564.82 1232.47 1564.47 1232.38 1564.16 1232.36C1560.99 1233.56 1557.13 1234.43 1552.96 1234.43C1548.02 1234.43 1543.51 1233.25 1540.07 1231.72C1539.79 1231.77 1539.49 1231.84 1539.16 1231.98C1537.87 1232.51 1532.19 1236.47 1530.18 1246.19C1528.3 1255.28 1530.54 1257.63 1531.29 1258.67C1537.85 1260.76 1545.19 1261.93 1552.95 1261.93C1560.08 1261.93 1566.87 1260.93 1573.01 1259.15C1573.78 1258.11 1575.97 1255.75 1574.11 1246.76H1574.13Z" fill="#FDF5EB" stroke="#1B2030" stroke-linecap="round" stroke-linejoin="round"/>
<path d="M1592.41 1207.76L1591.77 1207.6C1587.42 1207.8 1585.62 1208.73 1583.1 1210.41C1580.73 1211.99 1573.63 1218.32 1572.81 1222.31C1572.43 1224.15 1572.55 1225.29 1572.8 1225.98C1574.84 1225.39 1581.46 1225.18 1586.58 1228.16C1599.84 1235.9 1593.66 1247.62 1592.2 1249.08C1599.15 1243.36 1603.3 1236.16 1603.3 1228.34C1603.3 1220.51 1599.23 1213.45 1592.41 1207.76Z" fill="#FDF5EB" stroke="#1B2030" stroke-linecap="round" stroke-linejoin="round"/>
<path d="M604.821 247.071C577.024 247.071 554.483 262.115 554.483 280.662C554.483 299.209 577.024 314.253 604.821 314.253C632.619 314.253 655.159 299.209 655.159 280.662C655.159 262.115 632.619 247.071 604.821 247.071ZM604.821 286.765C593.994 286.765 585.214 281.114 585.214 278.478C585.214 275.841 593.994 270.19 604.821 270.19C615.649 270.19 624.429 275.823 624.429 278.478C624.429 280.883 615.649 286.765 604.821 286.765Z" fill="#1B2030" stroke="#1B2030" stroke-linecap="round" stroke-linejoin="round"/>
<path d="M593.726 256.879C597.12 262.926 596.382 270.227 596.014 271.26L595.921 271.472C598.596 270.697 601.612 270.19 604.812 270.19C607.44 270.19 609.94 270.522 612.227 271.066C611.858 269.066 611.526 262.364 614.699 256.723C616.894 252.814 620.38 250.454 622.667 249.247C617.115 247.845 611.102 247.071 604.812 247.071C598.098 247.071 591.688 247.956 585.832 249.542C588.045 250.685 591.541 252.989 593.726 256.879Z" fill="#FDF5EB" stroke="#1B2030" stroke-linecap="round" stroke-linejoin="round"/>
<path d="M569.922 279.823C577.07 276.293 584.836 277.814 584.836 277.814L585.002 277.786C585.232 277.113 585.334 276.025 584.965 274.292C584.144 270.421 577.531 264.807 575.225 263.157C572.92 261.507 570.125 259.792 565.477 260.355L565.44 260.308C558.56 265.959 554.474 273.011 554.474 280.671C554.474 286.949 557.223 292.821 562.009 297.854C561.474 296.536 558.744 285.354 569.922 279.833V279.823Z" fill="#FDF5EB" stroke="#1B2030" stroke-linecap="round" stroke-linejoin="round"/>
<path d="M625.978 299.089C623.977 289.41 618.333 285.483 617.051 284.949C616.673 284.792 616.322 284.709 616.018 284.681C612.845 285.889 608.981 286.755 604.812 286.755C599.869 286.755 595.368 285.576 591.919 284.045C591.642 284.091 591.347 284.165 591.015 284.303C589.724 284.838 584.042 288.793 582.032 298.518C580.15 307.607 582.391 309.958 583.148 310.99C589.705 313.083 597.046 314.253 604.803 314.253C611.932 314.253 618.72 313.258 624.862 311.479C625.628 310.437 627.823 308.077 625.96 299.089H625.978Z" fill="#FDF5EB" stroke="#1B2030" stroke-linecap="round" stroke-linejoin="round"/>
<path d="M644.258 260.087L643.622 259.921C639.268 260.124 637.47 261.055 634.952 262.733C632.582 264.318 625.48 270.642 624.659 274.634C624.281 276.477 624.401 277.611 624.65 278.302C626.688 277.712 633.31 277.5 638.429 280.487C651.691 288.221 645.512 299.947 644.055 301.403C651 295.688 655.15 288.488 655.15 280.662C655.15 272.836 651.083 265.775 644.258 260.087Z" fill="#FDF5EB" stroke="#1B2030" stroke-linecap="round" stroke-linejoin="round"/>
<path d="M407.113 49.4609C379.315 49.4609 356.775 64.505 356.775 83.052C356.775 101.599 379.315 116.643 407.113 116.643C434.91 116.643 457.451 101.599 457.451 83.052C457.451 64.505 434.91 49.4609 407.113 49.4609ZM407.113 89.1544C396.285 89.1544 387.505 83.5037 387.505 80.8673C387.505 78.2309 396.285 72.5801 407.113 72.5801C417.94 72.5801 426.72 78.2125 426.72 80.8673C426.72 83.2732 417.94 89.1544 407.113 89.1544Z" fill="#1B2030" stroke="#1B2030" stroke-linecap="round" stroke-linejoin="round"/>
<path d="M396.027 59.2783C399.421 65.3254 398.683 72.6262 398.314 73.6587L398.222 73.8707C400.897 73.0964 403.912 72.5894 407.113 72.5894C409.741 72.5894 412.241 72.9212 414.528 73.4651C414.159 71.4647 413.827 64.7631 416.999 59.1216C419.194 55.2131 422.681 52.8532 424.968 51.6456C419.416 50.2445 413.403 49.4702 407.113 49.4702C400.398 49.4702 393.989 50.3551 388.132 51.9406C390.346 53.0837 393.841 55.3882 396.027 59.2783Z" fill="#FDF5EB" stroke="#1B2030" stroke-linecap="round" stroke-linejoin="round"/>
<path d="M372.223 82.2132C379.371 78.6826 387.136 80.2036 387.136 80.2036L387.302 80.1759C387.533 79.503 387.634 78.4153 387.265 76.6823C386.444 72.8106 379.832 67.1967 377.526 65.5467C375.22 63.8966 372.426 62.182 367.778 62.7444L367.741 62.6983C360.86 68.349 356.775 75.4009 356.775 83.0612C356.775 89.3388 359.523 95.2108 364.31 100.244C363.775 98.9257 361.045 87.7441 372.223 82.2224V82.2132Z" fill="#FDF5EB" stroke="#1B2030" stroke-linecap="round" stroke-linejoin="round"/>
<path d="M428.279 101.479C426.278 91.8 420.633 87.8731 419.351 87.3384C418.973 87.1817 418.623 87.0988 418.318 87.0711C415.146 88.2787 411.281 89.1452 407.113 89.1452C402.169 89.1452 397.669 87.9653 394.219 86.4351C393.943 86.4811 393.647 86.5549 393.315 86.6932C392.024 87.2278 386.343 91.1824 384.332 100.908C382.451 109.997 384.692 112.347 385.448 113.38C392.006 115.472 399.347 116.643 407.103 116.643C414.233 116.643 421.021 115.647 427.163 113.868C427.928 112.827 430.124 110.467 428.261 101.479H428.279Z" fill="#FDF5EB" stroke="#1B2030" stroke-linecap="round" stroke-linejoin="round"/>
<path d="M446.558 62.477L445.922 62.3111C441.569 62.5139 439.771 63.4449 437.253 65.1226C434.882 66.7082 427.781 73.0318 426.96 77.0233C426.582 78.867 426.702 80.0008 426.951 80.6922C428.989 80.1022 435.611 79.8902 440.73 82.8769C453.992 90.6109 447.813 102.336 446.356 103.793C453.3 98.0777 457.451 90.8783 457.451 83.052C457.451 75.2258 453.383 68.1646 446.558 62.477Z" fill="#FDF5EB" stroke="#1B2030" stroke-linecap="round" stroke-linejoin="round"/>
<path d="M987.354 629.414C959.557 629.414 937.016 644.458 937.016 663.005C937.016 681.552 959.557 696.596 987.354 696.596C1015.15 696.596 1037.69 681.552 1037.69 663.005C1037.69 644.458 1015.15 629.414 987.354 629.414ZM987.354 669.107C976.527 669.107 967.747 663.457 967.747 660.82C967.747 658.184 976.527 652.533 987.354 652.533C998.182 652.533 1006.96 658.165 1006.96 660.82C1006.96 663.226 998.182 669.107 987.354 669.107Z" fill="#1B2030" stroke="#1B2030" stroke-linecap="round" stroke-linejoin="round"/>
<path d="M976.268 639.231C979.662 645.278 978.925 652.579 978.556 653.612L978.463 653.824C981.138 653.049 984.154 652.542 987.354 652.542C989.983 652.542 992.482 652.874 994.769 653.418C994.4 651.418 994.068 644.716 997.241 639.074C999.436 635.166 1002.92 632.806 1005.21 631.599C999.657 630.197 993.644 629.423 987.354 629.423C980.64 629.423 974.23 630.308 968.374 631.894C970.587 633.037 974.083 635.341 976.268 639.231Z" fill="#FDF5EB" stroke="#1B2030" stroke-linecap="round" stroke-linejoin="round"/>
<path d="M952.465 662.166C959.612 658.635 967.378 660.156 967.378 660.156L967.544 660.129C967.774 659.456 967.876 658.368 967.507 656.635C966.686 652.763 960.073 647.15 957.768 645.5C955.462 643.85 952.667 642.135 948.019 642.697L947.982 642.651C941.102 648.302 937.016 655.354 937.016 663.014C937.016 669.292 939.765 675.164 944.551 680.197C944.016 678.879 941.287 667.697 952.465 662.175V662.166Z" fill="#FDF5EB" stroke="#1B2030" stroke-linecap="round" stroke-linejoin="round"/>
<path d="M1008.52 681.432C1006.52 671.753 1000.87 667.826 999.593 667.291C999.215 667.135 998.864 667.052 998.56 667.024C995.387 668.232 991.523 669.098 987.354 669.098C982.411 669.098 977.91 667.918 974.461 666.388C974.184 666.434 973.889 666.508 973.557 666.646C972.266 667.181 966.585 671.135 964.574 680.861C962.693 689.95 964.934 692.3 965.69 693.333C972.247 695.425 979.589 696.596 987.345 696.596C994.474 696.596 1001.26 695.6 1007.4 693.821C1008.17 692.78 1010.37 690.42 1008.5 681.432H1008.52Z" fill="#FDF5EB" stroke="#1B2030" stroke-linecap="round" stroke-linejoin="round"/>
<path d="M1026.8 642.43L1026.16 642.264C1021.81 642.467 1020.01 643.398 1017.49 645.076C1015.12 646.661 1008.02 652.985 1007.2 656.976C1006.82 658.82 1006.94 659.954 1007.19 660.645C1009.23 660.055 1015.85 659.843 1020.97 662.83C1034.23 670.564 1028.05 682.289 1026.6 683.746C1033.54 678.031 1037.69 670.831 1037.69 663.005C1037.69 655.179 1033.62 648.118 1026.8 642.43Z" fill="#FDF5EB" stroke="#1B2030" stroke-linecap="round" stroke-linejoin="round"/>
<path d="M789.646 431.804C761.848 431.804 739.308 446.848 739.308 465.395C739.308 483.942 761.848 498.986 789.646 498.986C817.443 498.986 839.983 483.942 839.983 465.395C839.983 446.848 817.443 431.804 789.646 431.804ZM789.646 471.497C778.818 471.497 770.038 465.846 770.038 463.21C770.038 460.574 778.818 454.923 789.646 454.923C800.473 454.923 809.253 460.555 809.253 463.21C809.253 465.616 800.473 471.497 789.646 471.497Z" fill="#1B2030" stroke="#1B2030" stroke-linecap="round" stroke-linejoin="round"/>
<path d="M778.56 441.621C781.954 447.668 781.216 454.969 780.847 456.001L780.755 456.213C783.429 455.439 786.445 454.932 789.646 454.932C792.274 454.932 794.774 455.264 797.061 455.808C796.692 453.807 796.36 447.106 799.532 441.464C801.727 437.556 805.214 435.196 807.501 433.988C801.949 432.587 795.936 431.813 789.646 431.813C782.931 431.813 776.522 432.698 770.665 434.283C772.879 435.426 776.374 437.731 778.56 441.621Z" fill="#FDF5EB" stroke="#1B2030" stroke-linecap="round" stroke-linejoin="round"/>
<path d="M754.756 464.556C761.904 461.025 769.669 462.546 769.669 462.546L769.835 462.519C770.066 461.846 770.167 460.758 769.798 459.025C768.977 455.153 762.365 449.539 760.059 447.889C757.753 446.239 754.959 444.525 750.31 445.087L750.274 445.041C743.393 450.692 739.308 457.744 739.308 465.404C739.308 471.681 742.056 477.553 746.843 482.587C746.308 481.268 743.578 470.087 754.756 464.565V464.556Z" fill="#FDF5EB" stroke="#1B2030" stroke-linecap="round" stroke-linejoin="round"/>
<path d="M810.812 483.831C808.811 474.152 803.166 470.225 801.884 469.69C801.506 469.534 801.156 469.451 800.851 469.423C797.679 470.631 793.814 471.497 789.646 471.497C784.702 471.497 780.202 470.317 776.752 468.787C776.476 468.833 776.18 468.907 775.848 469.045C774.557 469.58 768.876 473.534 766.865 483.259C764.984 492.349 767.225 494.699 767.981 495.732C774.539 497.824 781.88 498.995 789.636 498.995C796.766 498.995 803.554 497.999 809.696 496.22C810.461 495.179 812.657 492.819 810.794 483.831H810.812Z" fill="#FDF5EB" stroke="#1B2030" stroke-linecap="round" stroke-linejoin="round"/>
<path d="M829.091 444.829L828.455 444.663C824.102 444.866 822.304 445.797 819.786 447.474C817.415 449.06 810.314 455.384 809.493 459.375C809.115 461.219 809.235 462.353 809.484 463.044C811.522 462.454 818.144 462.242 823.263 465.229C836.525 472.963 830.346 484.688 828.889 486.145C835.833 480.43 839.983 473.23 839.983 465.404C839.983 457.578 835.916 450.516 829.091 444.829Z" fill="#FDF5EB" stroke="#1B2030" stroke-linecap="round" stroke-linejoin="round"/>
<path d="M1750.67 1010.01C1722.87 1010.01 1700.33 1025.05 1700.33 1043.6C1700.33 1062.14 1722.87 1077.19 1750.67 1077.19C1778.47 1077.19 1801.01 1062.14 1801.01 1043.6C1801.01 1025.05 1778.47 1010.01 1750.67 1010.01ZM1750.67 1049.7C1739.84 1049.7 1731.06 1044.05 1731.06 1041.41C1731.06 1038.77 1739.84 1033.12 1750.67 1033.12C1761.5 1033.12 1770.28 1038.76 1770.28 1041.41C1770.28 1043.82 1761.5 1049.7 1750.67 1049.7Z" fill="#1B2030" stroke="#1B2030" stroke-linecap="round" stroke-linejoin="round"/>
<path d="M1739.58 1019.81C1742.98 1025.86 1742.24 1033.16 1741.87 1034.19L1741.78 1034.41C1744.45 1033.63 1747.47 1033.12 1750.67 1033.12C1753.3 1033.12 1755.8 1033.46 1758.08 1034C1757.71 1032 1757.38 1025.3 1760.55 1019.66C1762.75 1015.75 1766.24 1013.39 1768.52 1012.18C1762.97 1010.78 1756.96 1010.01 1750.67 1010.01C1743.95 1010.01 1737.54 1010.89 1731.69 1012.48C1733.9 1013.62 1737.4 1015.92 1739.58 1019.81Z" fill="#FDF5EB" stroke="#1B2030" stroke-linecap="round" stroke-linejoin="round"/>
<path d="M1715.78 1042.76C1722.93 1039.23 1730.69 1040.75 1730.69 1040.75L1730.86 1040.72C1731.09 1040.05 1731.19 1038.96 1730.82 1037.23C1730 1033.35 1723.39 1027.74 1721.08 1026.09C1718.78 1024.44 1715.98 1022.73 1711.33 1023.29L1711.3 1023.24C1704.42 1028.89 1700.33 1035.94 1700.33 1043.61C1700.33 1049.88 1703.08 1055.75 1707.87 1060.79C1707.33 1059.47 1704.6 1048.29 1715.78 1042.77V1042.76Z" fill="#FDF5EB" stroke="#1B2030" stroke-linecap="round" stroke-linejoin="round"/>
<path d="M1771.82 1062.02C1769.82 1052.34 1764.18 1048.42 1762.9 1047.88C1762.52 1047.73 1762.17 1047.64 1761.86 1047.62C1758.69 1048.82 1754.83 1049.69 1750.66 1049.69C1745.72 1049.69 1741.21 1048.51 1737.77 1046.98C1737.49 1047.03 1737.19 1047.1 1736.86 1047.24C1735.57 1047.77 1729.89 1051.73 1727.88 1061.45C1726 1070.54 1728.24 1072.89 1728.99 1073.92C1735.55 1076.02 1742.89 1077.19 1750.65 1077.19C1757.78 1077.19 1764.57 1076.19 1770.71 1074.41C1771.47 1073.37 1773.67 1071.01 1771.81 1062.02H1771.82Z" fill="#FDF5EB" stroke="#1B2030" stroke-linecap="round" stroke-linejoin="round"/>
<path d="M1790.11 1023.02L1789.48 1022.86C1785.12 1023.06 1783.33 1023.99 1780.81 1025.67C1778.44 1027.25 1771.34 1033.58 1770.52 1037.57C1770.14 1039.41 1770.26 1040.54 1770.51 1041.24C1772.54 1040.65 1779.17 1040.43 1784.28 1043.42C1797.55 1051.16 1791.37 1062.88 1789.91 1064.34C1796.86 1058.62 1801.01 1051.42 1801.01 1043.6C1801.01 1035.77 1796.94 1028.71 1790.11 1023.02Z" fill="#FDF5EB" stroke="#1B2030" stroke-linecap="round" stroke-linejoin="round"/>
<path d="M1552.96 812.395C1525.16 812.395 1502.62 827.439 1502.62 845.986C1502.62 864.533 1525.16 879.577 1552.96 879.577C1580.76 879.577 1603.3 864.533 1603.3 845.986C1603.3 827.439 1580.76 812.395 1552.96 812.395ZM1552.96 852.088C1542.13 852.088 1533.35 846.438 1533.35 843.801C1533.35 841.165 1542.13 835.514 1552.96 835.514C1563.79 835.514 1572.57 841.146 1572.57 843.801C1572.57 846.207 1563.79 852.088 1552.96 852.088Z" fill="#1B2030" stroke="#1B2030" stroke-linecap="round" stroke-linejoin="round"/>
<path d="M1541.87 822.212C1545.27 828.259 1544.53 835.56 1544.16 836.593L1544.07 836.805C1546.74 836.03 1549.76 835.523 1552.96 835.523C1555.59 835.523 1558.09 835.855 1560.37 836.399C1560.01 834.399 1559.67 827.697 1562.85 822.055C1565.04 818.147 1568.53 815.787 1570.81 814.58C1565.26 813.178 1559.25 812.404 1552.96 812.404C1546.25 812.404 1539.84 813.289 1533.98 814.875C1536.19 816.018 1539.69 818.322 1541.87 822.212Z" fill="#FDF5EB" stroke="#1B2030" stroke-linecap="round" stroke-linejoin="round"/>
<path d="M1518.07 845.147C1525.22 841.616 1532.98 843.137 1532.98 843.137L1533.15 843.11C1533.38 842.437 1533.48 841.349 1533.11 839.616C1532.29 835.744 1525.68 830.131 1523.37 828.481C1521.07 826.831 1518.27 825.116 1513.62 825.678L1513.59 825.632C1506.71 831.283 1502.62 838.335 1502.62 845.995C1502.62 852.273 1505.37 858.145 1510.16 863.178C1509.62 861.86 1506.89 850.678 1518.07 845.156V845.147Z" fill="#FDF5EB" stroke="#1B2030" stroke-linecap="round" stroke-linejoin="round"/>
<path d="M1574.13 864.413C1572.12 854.734 1566.48 850.807 1565.2 850.272C1564.82 850.116 1564.47 850.033 1564.16 850.005C1560.99 851.213 1557.13 852.079 1552.96 852.079C1548.02 852.079 1543.51 850.899 1540.07 849.369C1539.79 849.415 1539.49 849.489 1539.16 849.627C1537.87 850.162 1532.19 854.116 1530.18 863.841C1528.3 872.931 1530.54 875.281 1531.29 876.314C1537.85 878.406 1545.19 879.577 1552.95 879.577C1560.08 879.577 1566.87 878.581 1573.01 876.802C1573.78 875.761 1575.97 873.401 1574.11 864.413H1574.13Z" fill="#FDF5EB" stroke="#1B2030" stroke-linecap="round" stroke-linejoin="round"/>
<path d="M1592.4 825.411L1591.77 825.245C1587.42 825.448 1585.62 826.379 1583.1 828.056C1580.73 829.642 1573.63 835.966 1572.81 839.957C1572.43 841.801 1572.55 842.935 1572.8 843.626C1574.84 843.036 1581.46 842.824 1586.58 845.811C1599.84 853.545 1593.66 865.27 1592.2 866.727C1599.15 861.012 1603.3 853.812 1603.3 845.986C1603.3 838.16 1599.23 831.099 1592.4 825.411Z" fill="#FDF5EB" stroke="#1B2030" stroke-linecap="round" stroke-linejoin="round"/>
<path d="M1935.5 1194.74C1907.7 1194.74 1885.16 1209.78 1885.16 1228.33C1885.16 1246.88 1907.7 1261.92 1935.5 1261.92C1963.3 1261.92 1985.84 1246.88 1985.84 1228.33C1985.84 1209.78 1963.3 1194.74 1935.5 1194.74ZM1935.5 1234.43C1924.67 1234.43 1915.89 1228.78 1915.89 1226.14C1915.89 1223.51 1924.67 1217.86 1935.5 1217.86C1946.33 1217.86 1955.11 1223.49 1955.11 1226.14C1955.11 1228.55 1946.33 1234.43 1935.5 1234.43Z" fill="#1B2030" stroke="#1B2030" stroke-linecap="round" stroke-linejoin="round"/>
<path d="M1924.41 1204.55C1927.8 1210.6 1927.06 1217.9 1926.69 1218.94L1926.6 1219.15C1929.28 1218.37 1932.29 1217.87 1935.49 1217.87C1938.12 1217.87 1940.62 1218.2 1942.91 1218.74C1942.54 1216.74 1942.21 1210.04 1945.38 1204.4C1947.57 1200.49 1951.06 1198.13 1953.35 1196.92C1947.8 1195.52 1941.78 1194.75 1935.49 1194.75C1928.78 1194.75 1922.37 1195.63 1916.51 1197.22C1918.73 1198.36 1922.22 1200.66 1924.41 1204.55Z" fill="#FDF5EB" stroke="#1B2030" stroke-linecap="round" stroke-linejoin="round"/>
<path d="M1900.6 1227.49C1907.75 1223.96 1915.52 1225.48 1915.52 1225.48L1915.68 1225.45C1915.91 1224.78 1916.01 1223.69 1915.64 1221.96C1914.82 1218.09 1908.21 1212.47 1905.91 1210.82C1903.6 1209.17 1900.81 1207.46 1896.16 1208.02L1896.12 1207.97C1889.24 1213.63 1885.15 1220.68 1885.15 1228.34C1885.15 1234.62 1887.9 1240.49 1892.69 1245.52C1892.15 1244.2 1889.42 1233.02 1900.6 1227.5V1227.49Z" fill="#FDF5EB" stroke="#1B2030" stroke-linecap="round" stroke-linejoin="round"/>
<path d="M1956.66 1246.76C1954.66 1237.09 1949.01 1233.16 1947.73 1232.62C1947.35 1232.47 1947 1232.38 1946.7 1232.36C1943.53 1233.56 1939.66 1234.43 1935.49 1234.43C1930.55 1234.43 1926.05 1233.25 1922.6 1231.72C1922.32 1231.77 1922.03 1231.84 1921.69 1231.98C1920.4 1232.51 1914.72 1236.47 1912.71 1246.19C1910.83 1255.28 1913.07 1257.63 1913.83 1258.67C1920.39 1260.76 1927.73 1261.93 1935.48 1261.93C1942.61 1261.93 1949.4 1260.93 1955.54 1259.15C1956.31 1258.11 1958.5 1255.75 1956.64 1246.76H1956.66Z" fill="#FDF5EB" stroke="#1B2030" stroke-linecap="round" stroke-linejoin="round"/>
<path d="M987.354 247.071C959.557 247.071 937.016 262.115 937.016 280.662C937.016 299.209 959.557 314.253 987.354 314.253C1015.15 314.253 1037.69 299.209 1037.69 280.662C1037.69 262.115 1015.15 247.071 987.354 247.071ZM987.354 286.765C976.527 286.765 967.747 281.114 967.747 278.478C967.747 275.841 976.527 270.19 987.354 270.19C998.182 270.19 1006.96 275.823 1006.96 278.478C1006.96 280.883 998.182 286.765 987.354 286.765Z" fill="#1B2030" stroke="#1B2030" stroke-linecap="round" stroke-linejoin="round"/>
<path d="M976.268 256.879C979.662 262.926 978.925 270.227 978.556 271.26L978.463 271.472C981.138 270.697 984.154 270.19 987.354 270.19C989.983 270.19 992.482 270.522 994.769 271.066C994.4 269.066 994.068 262.364 997.241 256.723C999.436 252.814 1002.92 250.454 1005.21 249.247C999.657 247.845 993.644 247.071 987.354 247.071C980.64 247.071 974.23 247.956 968.374 249.542C970.587 250.685 974.083 252.989 976.268 256.879Z" fill="#FDF5EB" stroke="#1B2030" stroke-linecap="round" stroke-linejoin="round"/>
<path d="M952.465 279.823C959.612 276.293 967.378 277.814 967.378 277.814L967.544 277.786C967.774 277.113 967.876 276.025 967.507 274.292C966.686 270.421 960.073 264.807 957.768 263.157C955.462 261.507 952.667 259.792 948.019 260.355L947.982 260.308C941.102 265.959 937.016 273.011 937.016 280.671C937.016 286.949 939.765 292.821 944.551 297.854C944.016 296.536 941.287 285.354 952.465 279.833V279.823Z" fill="#FDF5EB" stroke="#1B2030" stroke-linecap="round" stroke-linejoin="round"/>
<path d="M1008.52 299.089C1006.52 289.41 1000.87 285.483 999.593 284.949C999.215 284.792 998.864 284.709 998.56 284.681C995.387 285.889 991.523 286.755 987.354 286.755C982.411 286.755 977.91 285.576 974.461 284.045C974.184 284.091 973.889 284.165 973.557 284.303C972.266 284.838 966.585 288.793 964.574 298.518C962.693 307.607 964.934 309.958 965.69 310.99C972.247 313.083 979.589 314.253 987.345 314.253C994.474 314.253 1001.26 313.258 1007.4 311.479C1008.17 310.437 1010.37 308.077 1008.5 299.089H1008.52Z" fill="#FDF5EB" stroke="#1B2030" stroke-linecap="round" stroke-linejoin="round"/>
<path d="M1026.8 260.087L1026.16 259.921C1021.81 260.124 1020.01 261.055 1017.49 262.733C1015.12 264.318 1008.02 270.642 1007.2 274.634C1006.82 276.477 1006.94 277.611 1007.19 278.302C1009.23 277.712 1015.85 277.5 1020.97 280.487C1034.23 288.221 1028.05 299.947 1026.6 301.403C1033.54 295.688 1037.69 288.488 1037.69 280.662C1037.69 272.836 1033.62 265.775 1026.8 260.087Z" fill="#FDF5EB" stroke="#1B2030" stroke-linecap="round" stroke-linejoin="round"/>
<path d="M789.646 49.4609C761.848 49.4609 739.308 64.505 739.308 83.052C739.308 101.599 761.848 116.643 789.646 116.643C817.443 116.643 839.983 101.599 839.983 83.052C839.983 64.505 817.452 49.4609 789.646 49.4609ZM789.646 89.1544C778.818 89.1544 770.038 83.5037 770.038 80.8673C770.038 78.2309 778.818 72.5801 789.646 72.5801C800.473 72.5801 809.253 78.2125 809.253 80.8673C809.253 83.2732 800.473 89.1544 789.646 89.1544Z" fill="#1B2030" stroke="#1B2030" stroke-linecap="round" stroke-linejoin="round"/>
<path d="M778.56 59.2783C781.954 65.3254 781.216 72.6262 780.847 73.6587L780.755 73.8707C783.429 73.0964 786.445 72.5894 789.646 72.5894C792.274 72.5894 794.774 72.9212 797.061 73.4651C796.692 71.4647 796.36 64.7631 799.532 59.1216C801.727 55.2131 805.214 52.8532 807.501 51.6456C801.949 50.2445 795.936 49.4702 789.646 49.4702C782.931 49.4702 776.522 50.3551 770.665 51.9406C772.879 53.0837 776.374 55.3882 778.56 59.2783Z" fill="#FDF5EB" stroke="#1B2030" stroke-linecap="round" stroke-linejoin="round"/>
<path d="M754.756 82.2132C761.904 78.6826 769.669 80.2036 769.669 80.2036L769.835 80.1759C770.066 79.503 770.167 78.4153 769.798 76.6823C768.977 72.8106 762.365 67.1967 760.059 65.5467C757.753 63.8966 754.959 62.182 750.31 62.7444L750.274 62.6983C743.393 68.349 739.308 75.4009 739.308 83.0612C739.308 89.3388 742.056 95.2108 746.843 100.244C746.308 98.9257 743.578 87.7441 754.756 82.2224V82.2132Z" fill="#FDF5EB" stroke="#1B2030" stroke-linecap="round" stroke-linejoin="round"/>
<path d="M810.812 101.479C808.811 91.8 803.166 87.8731 801.884 87.3384C801.506 87.1817 801.156 87.0988 800.851 87.0711C797.679 88.2787 793.814 89.1452 789.646 89.1452C784.702 89.1452 780.202 87.9653 776.752 86.4351C776.476 86.4811 776.18 86.5549 775.848 86.6932C774.557 87.2278 768.876 91.1824 766.865 100.908C764.984 109.997 767.225 112.347 767.981 113.38C774.539 115.472 781.88 116.643 789.636 116.643C796.766 116.643 803.554 115.647 809.696 113.868C810.461 112.827 812.657 110.467 810.794 101.479H810.812Z" fill="#FDF5EB" stroke="#1B2030" stroke-linecap="round" stroke-linejoin="round"/>
<path d="M829.091 62.477L828.455 62.3111C824.102 62.5139 822.304 63.4449 819.786 65.1226C817.415 66.7082 810.314 73.0318 809.493 77.0233C809.115 78.867 809.235 80.0008 809.484 80.6922C811.522 80.1022 818.144 79.8902 823.263 82.8769C836.525 90.6109 830.346 102.336 828.889 103.793C835.833 98.0777 839.983 90.8783 839.983 83.052C839.983 75.2258 835.916 68.1646 829.091 62.477Z" fill="#FDF5EB" stroke="#1B2030" stroke-linecap="round" stroke-linejoin="round"/>
<path d="M1369.89 629.414C1342.09 629.414 1319.55 644.458 1319.55 663.005C1319.55 681.552 1342.09 696.596 1369.89 696.596C1397.68 696.596 1420.23 681.552 1420.23 663.005C1420.23 644.458 1397.68 629.414 1369.89 629.414ZM1369.89 669.107C1359.06 669.107 1350.28 663.457 1350.28 660.82C1350.28 658.184 1359.06 652.533 1369.89 652.533C1380.71 652.533 1389.49 658.165 1389.49 660.82C1389.49 663.226 1380.71 669.107 1369.89 669.107Z" fill="#1B2030" stroke="#1B2030" stroke-linecap="round" stroke-linejoin="round"/>
<path d="M1358.8 639.231C1362.2 645.278 1361.46 652.579 1361.09 653.612L1361 653.824C1363.67 653.049 1366.69 652.542 1369.89 652.542C1372.52 652.542 1375.02 652.874 1377.3 653.418C1376.93 651.418 1376.6 644.716 1379.77 639.074C1381.97 635.166 1385.46 632.806 1387.74 631.599C1382.19 630.197 1376.18 629.423 1369.89 629.423C1363.17 629.423 1356.76 630.308 1350.91 631.894C1353.12 633.037 1356.62 635.341 1358.8 639.231Z" fill="#FDF5EB" stroke="#1B2030" stroke-linecap="round" stroke-linejoin="round"/>
<path d="M1335 662.166C1342.15 658.635 1349.91 660.156 1349.91 660.156L1350.08 660.129C1350.31 659.456 1350.41 658.368 1350.04 656.635C1349.22 652.763 1342.61 647.15 1340.3 645.5C1337.99 643.85 1335.2 642.135 1330.55 642.697L1330.52 642.651C1323.63 648.302 1319.55 655.354 1319.55 663.014C1319.55 669.292 1322.3 675.164 1327.08 680.197C1326.55 678.879 1323.82 667.697 1335 662.175V662.166Z" fill="#FDF5EB" stroke="#1B2030" stroke-linecap="round" stroke-linejoin="round"/>
<path d="M1391.05 681.432C1389.05 671.753 1383.41 667.826 1382.13 667.291C1381.75 667.135 1381.4 667.052 1381.09 667.024C1377.92 668.232 1374.06 669.098 1369.89 669.098C1364.94 669.098 1360.44 667.918 1356.99 666.388C1356.72 666.434 1356.42 666.508 1356.09 666.646C1354.8 667.181 1349.12 671.135 1347.11 680.861C1345.23 689.95 1347.47 692.3 1348.22 693.333C1354.78 695.425 1362.12 696.596 1369.88 696.596C1377.01 696.596 1383.8 695.6 1389.94 693.821C1390.7 692.78 1392.9 690.42 1391.04 681.432H1391.05Z" fill="#FDF5EB" stroke="#1B2030" stroke-linecap="round" stroke-linejoin="round"/>
<path d="M1409.33 642.43L1408.7 642.264C1404.34 642.467 1402.55 643.398 1400.03 645.076C1397.66 646.661 1390.56 652.985 1389.73 656.976C1389.36 658.82 1389.48 659.954 1389.73 660.645C1391.76 660.055 1398.39 659.843 1403.5 662.83C1416.77 670.564 1410.59 682.289 1409.13 683.746C1416.07 678.031 1420.23 670.831 1420.23 663.005C1420.23 655.179 1416.16 648.118 1409.33 642.43Z" fill="#FDF5EB" stroke="#1B2030" stroke-linecap="round" stroke-linejoin="round"/>
<path d="M1172.19 431.804C1144.39 431.804 1121.85 446.848 1121.85 465.395C1121.85 483.942 1144.39 498.986 1172.19 498.986C1199.99 498.986 1222.53 483.942 1222.53 465.395C1222.53 446.848 1199.99 431.804 1172.19 431.804ZM1172.19 471.497C1161.36 471.497 1152.58 465.846 1152.58 463.21C1152.58 460.574 1161.36 454.923 1172.19 454.923C1183.02 454.923 1191.8 460.555 1191.8 463.21C1191.8 465.616 1183.02 471.497 1172.19 471.497Z" fill="#1B2030" stroke="#1B2030" stroke-linecap="round" stroke-linejoin="round"/>
<path d="M1161.09 441.621C1164.49 447.668 1163.75 454.969 1163.38 456.001L1163.29 456.213C1165.96 455.439 1168.98 454.932 1172.18 454.932C1174.81 454.932 1177.31 455.264 1179.59 455.808C1179.22 453.807 1178.89 447.106 1182.07 441.464C1184.26 437.556 1187.75 435.196 1190.03 433.988C1184.48 432.587 1178.47 431.813 1172.18 431.813C1165.46 431.813 1159.05 432.698 1153.2 434.283C1155.41 435.426 1158.91 437.731 1161.09 441.621Z" fill="#FDF5EB" stroke="#1B2030" stroke-linecap="round" stroke-linejoin="round"/>
<path d="M1137.29 464.556C1144.44 461.025 1152.2 462.546 1152.2 462.546L1152.37 462.519C1152.6 461.846 1152.7 460.758 1152.33 459.025C1151.51 455.153 1144.9 449.539 1142.59 447.889C1140.29 446.239 1137.49 444.525 1132.84 445.087L1132.81 445.041C1125.93 450.692 1121.84 457.744 1121.84 465.404C1121.84 471.681 1124.59 477.553 1129.38 482.587C1128.84 481.268 1126.11 470.087 1137.29 464.565V464.556Z" fill="#FDF5EB" stroke="#1B2030" stroke-linecap="round" stroke-linejoin="round"/>
<path d="M1193.34 483.831C1191.34 474.152 1185.7 470.225 1184.42 469.69C1184.04 469.534 1183.69 469.451 1183.38 469.423C1180.21 470.631 1176.35 471.497 1172.18 471.497C1167.24 471.497 1162.73 470.317 1159.29 468.787C1159.01 468.833 1158.71 468.907 1158.38 469.045C1157.09 469.58 1151.41 473.534 1149.4 483.259C1147.52 492.349 1149.76 494.699 1150.51 495.732C1157.07 497.824 1164.41 498.995 1172.17 498.995C1179.3 498.995 1186.09 497.999 1192.23 496.22C1192.99 495.179 1195.19 492.819 1193.33 483.831H1193.34Z" fill="#FDF5EB" stroke="#1B2030" stroke-linecap="round" stroke-linejoin="round"/>
<path d="M1211.62 444.829L1210.99 444.663C1206.63 444.866 1204.84 445.797 1202.32 447.474C1199.95 449.06 1192.85 455.384 1192.03 459.375C1191.65 461.219 1191.77 462.353 1192.02 463.044C1194.06 462.454 1200.68 462.242 1205.8 465.229C1219.06 472.963 1212.88 484.688 1211.42 486.145C1218.37 480.43 1222.52 473.23 1222.52 465.404C1222.52 457.578 1218.45 450.516 1211.62 444.829Z" fill="#FDF5EB" stroke="#1B2030" stroke-linecap="round" stroke-linejoin="round"/>
<path d="M1935.5 812.395C1907.7 812.395 1885.16 827.439 1885.16 845.986C1885.16 864.533 1907.7 879.577 1935.5 879.577C1963.3 879.577 1985.84 864.533 1985.84 845.986C1985.84 827.439 1963.3 812.395 1935.5 812.395ZM1935.5 852.088C1924.67 852.088 1915.89 846.438 1915.89 843.801C1915.89 841.165 1924.67 835.514 1935.5 835.514C1946.33 835.514 1955.11 841.146 1955.11 843.801C1955.11 846.207 1946.33 852.088 1935.5 852.088Z" fill="#1B2030" stroke="#1B2030" stroke-linecap="round" stroke-linejoin="round"/>
<path d="M1924.41 822.212C1927.8 828.259 1927.06 835.56 1926.69 836.593L1926.6 836.805C1929.28 836.03 1932.29 835.523 1935.49 835.523C1938.12 835.523 1940.62 835.855 1942.91 836.399C1942.54 834.399 1942.21 827.697 1945.38 822.055C1947.57 818.147 1951.06 815.787 1953.35 814.58C1947.8 813.178 1941.78 812.404 1935.49 812.404C1928.78 812.404 1922.37 813.289 1916.51 814.875C1918.73 816.018 1922.22 818.322 1924.41 822.212Z" fill="#FDF5EB" stroke="#1B2030" stroke-linecap="round" stroke-linejoin="round"/>
<path d="M1900.6 845.147C1907.75 841.616 1915.52 843.137 1915.52 843.137L1915.68 843.11C1915.91 842.437 1916.01 841.349 1915.64 839.616C1914.82 835.744 1908.21 830.131 1905.91 828.481C1903.6 826.831 1900.81 825.116 1896.16 825.678L1896.12 825.632C1889.24 831.283 1885.15 838.335 1885.15 845.995C1885.15 852.273 1887.9 858.145 1892.69 863.178C1892.15 861.86 1889.42 850.678 1900.6 845.156V845.147Z" fill="#FDF5EB" stroke="#1B2030" stroke-linecap="round" stroke-linejoin="round"/>
<path d="M1956.66 864.413C1954.66 854.734 1949.01 850.807 1947.73 850.272C1947.35 850.116 1947 850.033 1946.7 850.005C1943.53 851.213 1939.66 852.079 1935.49 852.079C1930.55 852.079 1926.05 850.899 1922.6 849.369C1922.32 849.415 1922.03 849.489 1921.69 849.627C1920.4 850.162 1914.72 854.116 1912.71 863.841C1910.83 872.931 1913.07 875.281 1913.83 876.314C1920.39 878.406 1927.73 879.577 1935.48 879.577C1942.61 879.577 1949.4 878.581 1955.54 876.802C1956.31 875.761 1958.5 873.401 1956.64 864.413H1956.66Z" fill="#FDF5EB" stroke="#1B2030" stroke-linecap="round" stroke-linejoin="round"/>
<path d="M1369.89 247.071C1342.09 247.071 1319.55 262.115 1319.55 280.662C1319.55 299.209 1342.09 314.253 1369.89 314.253C1397.68 314.253 1420.23 299.209 1420.23 280.662C1420.23 262.115 1397.68 247.071 1369.89 247.071ZM1369.89 286.765C1359.06 286.765 1350.28 281.114 1350.28 278.478C1350.28 275.841 1359.06 270.19 1369.89 270.19C1380.71 270.19 1389.49 275.823 1389.49 278.478C1389.49 280.883 1380.71 286.765 1369.89 286.765Z" fill="#1B2030" stroke="#1B2030" stroke-linecap="round" stroke-linejoin="round"/>
<path d="M1358.8 256.879C1362.2 262.926 1361.46 270.227 1361.09 271.26L1361 271.472C1363.67 270.697 1366.69 270.19 1369.89 270.19C1372.52 270.19 1375.02 270.522 1377.3 271.066C1376.93 269.066 1376.6 262.364 1379.77 256.723C1381.97 252.814 1385.46 250.454 1387.74 249.247C1382.19 247.845 1376.18 247.071 1369.89 247.071C1363.17 247.071 1356.76 247.956 1350.91 249.542C1353.12 250.685 1356.62 252.989 1358.8 256.879Z" fill="#FDF5EB" stroke="#1B2030" stroke-linecap="round" stroke-linejoin="round"/>
<path d="M1335 279.823C1342.15 276.293 1349.91 277.814 1349.91 277.814L1350.08 277.786C1350.31 277.113 1350.41 276.025 1350.04 274.292C1349.22 270.421 1342.61 264.807 1340.3 263.157C1337.99 261.507 1335.2 259.792 1330.55 260.355L1330.52 260.308C1323.63 265.959 1319.55 273.011 1319.55 280.671C1319.55 286.949 1322.3 292.821 1327.08 297.854C1326.55 296.536 1323.82 285.354 1335 279.833V279.823Z" fill="#FDF5EB" stroke="#1B2030" stroke-linecap="round" stroke-linejoin="round"/>
<path d="M1391.05 299.089C1389.05 289.41 1383.41 285.483 1382.13 284.949C1381.75 284.792 1381.4 284.709 1381.09 284.681C1377.92 285.889 1374.06 286.755 1369.89 286.755C1364.94 286.755 1360.44 285.576 1356.99 284.045C1356.72 284.091 1356.42 284.165 1356.09 284.303C1354.8 284.838 1349.12 288.793 1347.11 298.518C1345.23 307.607 1347.47 309.958 1348.22 310.99C1354.78 313.083 1362.12 314.253 1369.88 314.253C1377.01 314.253 1383.8 313.258 1389.94 311.479C1390.7 310.437 1392.9 308.077 1391.04 299.089H1391.05Z" fill="#FDF5EB" stroke="#1B2030" stroke-linecap="round" stroke-linejoin="round"/>
<path d="M1409.33 260.087L1408.7 259.921C1404.34 260.124 1402.55 261.055 1400.03 262.733C1397.66 264.318 1390.56 270.642 1389.73 274.634C1389.36 276.477 1389.48 277.611 1389.73 278.302C1391.76 277.712 1398.39 277.5 1403.5 280.487C1416.77 288.221 1410.59 299.947 1409.13 301.403C1416.07 295.688 1420.23 288.488 1420.23 280.662C1420.23 272.836 1416.16 265.775 1409.33 260.087Z" fill="#FDF5EB" stroke="#1B2030" stroke-linecap="round" stroke-linejoin="round"/>
<path d="M1172.19 49.4609C1144.39 49.4609 1121.85 64.505 1121.85 83.052C1121.85 101.599 1144.39 116.643 1172.19 116.643C1199.99 116.643 1222.53 101.599 1222.53 83.052C1222.53 64.505 1199.99 49.4609 1172.19 49.4609ZM1172.19 89.1544C1161.36 89.1544 1152.58 83.5037 1152.58 80.8673C1152.58 78.2309 1161.36 72.5801 1172.19 72.5801C1183.02 72.5801 1191.8 78.2125 1191.8 80.8673C1191.8 83.2732 1183.02 89.1544 1172.19 89.1544Z" fill="#1B2030" stroke="#1B2030" stroke-linecap="round" stroke-linejoin="round"/>
<path d="M1161.09 59.2783C1164.49 65.3254 1163.75 72.6262 1163.38 73.6587L1163.29 73.8707C1165.96 73.0964 1168.98 72.5894 1172.18 72.5894C1174.81 72.5894 1177.31 72.9212 1179.59 73.4651C1179.22 71.4647 1178.89 64.7631 1182.07 59.1216C1184.26 55.2131 1187.75 52.8532 1190.03 51.6456C1184.48 50.2445 1178.47 49.4702 1172.18 49.4702C1165.46 49.4702 1159.05 50.3551 1153.2 51.9406C1155.41 53.0837 1158.91 55.3882 1161.09 59.2783Z" fill="#FDF5EB" stroke="#1B2030" stroke-linecap="round" stroke-linejoin="round"/>
<path d="M1137.29 82.2132C1144.44 78.6826 1152.2 80.2036 1152.2 80.2036L1152.37 80.1759C1152.6 79.503 1152.7 78.4153 1152.33 76.6823C1151.51 72.8106 1144.9 67.1967 1142.59 65.5467C1140.29 63.8966 1137.49 62.182 1132.84 62.7444L1132.81 62.6983C1125.93 68.349 1121.84 75.4009 1121.84 83.0612C1121.84 89.3388 1124.59 95.2108 1129.38 100.244C1128.84 98.9257 1126.11 87.7441 1137.29 82.2224V82.2132Z" fill="#FDF5EB" stroke="#1B2030" stroke-linecap="round" stroke-linejoin="round"/>
<path d="M1193.34 101.479C1191.34 91.8 1185.7 87.8731 1184.42 87.3384C1184.04 87.1817 1183.69 87.0988 1183.38 87.0711C1180.21 88.2787 1176.35 89.1452 1172.18 89.1452C1167.24 89.1452 1162.73 87.9653 1159.29 86.4351C1159.01 86.4811 1158.71 86.5549 1158.38 86.6932C1157.09 87.2278 1151.41 91.1824 1149.4 100.908C1147.52 109.997 1149.76 112.347 1150.51 113.38C1157.07 115.472 1164.41 116.643 1172.17 116.643C1179.3 116.643 1186.09 115.647 1192.23 113.868C1192.99 112.827 1195.19 110.467 1193.33 101.479H1193.34Z" fill="#FDF5EB" stroke="#1B2030" stroke-linecap="round" stroke-linejoin="round"/>
<path d="M1211.62 62.477L1210.99 62.3111C1206.63 62.5139 1204.84 63.4449 1202.32 65.1226C1199.95 66.7082 1192.85 73.0318 1192.03 77.0233C1191.65 78.867 1191.77 80.0008 1192.02 80.6922C1194.06 80.1022 1200.68 79.8902 1205.8 82.8769C1219.06 90.6109 1212.88 102.336 1211.42 103.793C1218.37 98.0777 1222.52 90.8783 1222.52 83.052C1222.52 75.2258 1218.45 68.1646 1211.62 62.477Z" fill="#FDF5EB" stroke="#1B2030" stroke-linecap="round" stroke-linejoin="round"/>
<path d="M1752.43 629.414C1724.63 629.414 1702.09 644.458 1702.09 663.005C1702.09 681.552 1724.63 696.596 1752.43 696.596C1780.23 696.596 1802.77 681.552 1802.77 663.005C1802.77 644.458 1780.23 629.414 1752.43 629.414ZM1752.43 669.107C1741.6 669.107 1732.82 663.457 1732.82 660.82C1732.82 658.184 1741.6 652.533 1752.43 652.533C1763.26 652.533 1772.04 658.165 1772.04 660.82C1772.04 663.226 1763.26 669.107 1752.43 669.107Z" fill="#1B2030" stroke="#1B2030" stroke-linecap="round" stroke-linejoin="round"/>
<path d="M1741.33 639.231C1744.73 645.278 1743.99 652.579 1743.62 653.612L1743.53 653.824C1746.2 653.049 1749.22 652.542 1752.42 652.542C1755.05 652.542 1757.55 652.874 1759.84 653.418C1759.47 651.418 1759.13 644.716 1762.31 639.074C1764.5 635.166 1767.99 632.806 1770.28 631.599C1764.72 630.197 1758.71 629.423 1752.42 629.423C1745.71 629.423 1739.3 630.308 1733.44 631.894C1735.65 633.037 1739.15 635.341 1741.33 639.231Z" fill="#FDF5EB" stroke="#1B2030" stroke-linecap="round" stroke-linejoin="round"/>
<path d="M1717.53 662.166C1724.68 658.635 1732.44 660.156 1732.44 660.156L1732.61 660.129C1732.84 659.456 1732.94 658.368 1732.57 656.635C1731.75 652.763 1725.14 647.15 1722.83 645.5C1720.53 643.85 1717.73 642.135 1713.09 642.697L1713.05 642.651C1706.17 648.302 1702.08 655.354 1702.08 663.014C1702.08 669.292 1704.83 675.164 1709.62 680.197C1709.08 678.879 1706.35 667.697 1717.53 662.175V662.166Z" fill="#FDF5EB" stroke="#1B2030" stroke-linecap="round" stroke-linejoin="round"/>
<path d="M1773.59 681.432C1771.59 671.753 1765.94 667.826 1764.66 667.291C1764.28 667.135 1763.93 667.052 1763.63 667.024C1760.45 668.232 1756.59 669.098 1752.42 669.098C1747.48 669.098 1742.98 667.918 1739.53 666.388C1739.25 666.434 1738.95 666.508 1738.62 666.646C1737.33 667.181 1731.65 671.135 1729.64 680.861C1727.76 689.95 1730 692.3 1730.76 693.333C1737.31 695.425 1744.65 696.596 1752.41 696.596C1759.54 696.596 1766.33 695.6 1772.47 693.821C1773.24 692.78 1775.43 690.42 1773.57 681.432H1773.59Z" fill="#FDF5EB" stroke="#1B2030" stroke-linecap="round" stroke-linejoin="round"/>
<path d="M1791.88 642.43L1791.24 642.264C1786.89 642.467 1785.09 643.398 1782.57 645.076C1780.2 646.661 1773.1 652.985 1772.28 656.976C1771.9 658.82 1772.02 659.954 1772.27 660.645C1774.31 660.055 1780.93 659.843 1786.05 662.83C1799.31 670.564 1793.13 682.289 1791.67 683.746C1798.62 678.031 1802.77 670.831 1802.77 663.005C1802.77 655.179 1798.7 648.118 1791.88 642.43Z" fill="#FDF5EB" stroke="#1B2030" stroke-linecap="round" stroke-linejoin="round"/>
<path d="M1554.72 431.804C1526.92 431.804 1504.38 446.848 1504.38 465.395C1504.38 483.942 1526.92 498.986 1554.72 498.986C1582.52 498.986 1605.06 483.942 1605.06 465.395C1605.06 446.848 1582.52 431.804 1554.72 431.804ZM1554.72 471.497C1543.89 471.497 1535.11 465.846 1535.11 463.21C1535.11 460.574 1543.89 454.923 1554.72 454.923C1565.55 454.923 1574.33 460.555 1574.33 463.21C1574.33 465.616 1565.55 471.497 1554.72 471.497Z" fill="#1B2030" stroke="#1B2030" stroke-linecap="round" stroke-linejoin="round"/>
<path d="M1543.64 441.621C1547.03 447.668 1546.29 454.969 1545.92 456.001L1545.83 456.213C1548.5 455.439 1551.52 454.932 1554.72 454.932C1557.35 454.932 1559.85 455.264 1562.14 455.808C1561.77 453.807 1561.44 447.106 1564.61 441.464C1566.8 437.556 1570.29 435.196 1572.58 433.988C1567.02 432.587 1561.01 431.813 1554.72 431.813C1548.01 431.813 1541.6 432.698 1535.74 434.283C1537.95 435.426 1541.45 437.731 1543.64 441.621Z" fill="#FDF5EB" stroke="#1B2030" stroke-linecap="round" stroke-linejoin="round"/>
<path d="M1519.83 464.556C1526.98 461.025 1534.74 462.546 1534.74 462.546L1534.91 462.519C1535.14 461.846 1535.24 460.758 1534.87 459.025C1534.05 455.153 1527.44 449.539 1525.13 447.889C1522.83 446.239 1520.03 444.525 1515.39 445.087L1515.35 445.041C1508.47 450.692 1504.38 457.744 1504.38 465.404C1504.38 471.681 1507.13 477.553 1511.92 482.587C1511.38 481.268 1508.65 470.087 1519.83 464.565V464.556Z" fill="#FDF5EB" stroke="#1B2030" stroke-linecap="round" stroke-linejoin="round"/>
<path d="M1575.89 483.831C1573.89 474.152 1568.24 470.225 1566.96 469.69C1566.58 469.534 1566.23 469.451 1565.93 469.423C1562.75 470.631 1558.89 471.497 1554.72 471.497C1549.78 471.497 1545.28 470.317 1541.83 468.787C1541.55 468.833 1541.26 468.907 1540.92 469.045C1539.63 469.58 1533.95 473.534 1531.94 483.259C1530.06 492.349 1532.3 494.699 1533.06 495.732C1539.61 497.824 1546.96 498.995 1554.71 498.995C1561.84 498.995 1568.63 497.999 1574.77 496.22C1575.54 495.179 1577.73 492.819 1575.87 483.831H1575.89Z" fill="#FDF5EB" stroke="#1B2030" stroke-linecap="round" stroke-linejoin="round"/>
<path d="M1594.17 444.829L1593.53 444.663C1589.18 444.866 1587.38 445.797 1584.86 447.474C1582.49 449.06 1575.39 455.384 1574.57 459.375C1574.19 461.219 1574.31 462.353 1574.56 463.044C1576.6 462.454 1583.22 462.242 1588.34 465.229C1601.6 472.963 1595.42 484.688 1593.96 486.145C1600.91 480.43 1605.06 473.23 1605.06 465.404C1605.06 457.578 1600.99 450.516 1594.17 444.829Z" fill="#FDF5EB" stroke="#1B2030" stroke-linecap="round" stroke-linejoin="round"/>
<path d="M1750.67 247.071C1722.87 247.071 1700.33 262.115 1700.33 280.662C1700.33 299.209 1722.87 314.253 1750.67 314.253C1778.47 314.253 1801.01 299.209 1801.01 280.662C1801.01 262.115 1778.47 247.071 1750.67 247.071ZM1750.67 286.765C1739.84 286.765 1731.06 281.114 1731.06 278.478C1731.06 275.841 1739.84 270.19 1750.67 270.19C1761.5 270.19 1770.28 275.823 1770.28 278.478C1770.28 280.883 1761.5 286.765 1750.67 286.765Z" fill="#1B2030" stroke="#1B2030" stroke-linecap="round" stroke-linejoin="round"/>
<path d="M1739.58 256.879C1742.98 262.926 1742.24 270.227 1741.87 271.26L1741.78 271.472C1744.45 270.697 1747.47 270.19 1750.67 270.19C1753.3 270.19 1755.8 270.522 1758.08 271.066C1757.71 269.066 1757.38 262.364 1760.55 256.723C1762.75 252.814 1766.24 250.454 1768.52 249.247C1762.97 247.845 1756.96 247.071 1750.67 247.071C1743.95 247.071 1737.54 247.956 1731.69 249.542C1733.9 250.685 1737.4 252.989 1739.58 256.879Z" fill="#FDF5EB" stroke="#1B2030" stroke-linecap="round" stroke-linejoin="round"/>
<path d="M1715.78 279.823C1722.93 276.293 1730.69 277.814 1730.69 277.814L1730.86 277.786C1731.09 277.113 1731.19 276.025 1730.82 274.292C1730 270.421 1723.39 264.807 1721.08 263.157C1718.78 261.507 1715.98 259.792 1711.33 260.355L1711.3 260.308C1704.42 265.959 1700.33 273.011 1700.33 280.671C1700.33 286.949 1703.08 292.821 1707.87 297.854C1707.33 296.536 1704.6 285.354 1715.78 279.833V279.823Z" fill="#FDF5EB" stroke="#1B2030" stroke-linecap="round" stroke-linejoin="round"/>
<path d="M1771.82 299.089C1769.82 289.41 1764.18 285.483 1762.9 284.949C1762.52 284.792 1762.17 284.709 1761.86 284.681C1758.69 285.889 1754.83 286.755 1750.66 286.755C1745.72 286.755 1741.21 285.576 1737.77 284.045C1737.49 284.091 1737.19 284.165 1736.86 284.303C1735.57 284.838 1729.89 288.793 1727.88 298.518C1726 307.607 1728.24 309.958 1728.99 310.99C1735.55 313.083 1742.89 314.253 1750.65 314.253C1757.78 314.253 1764.57 313.258 1770.71 311.479C1771.47 310.437 1773.67 308.077 1771.81 299.089H1771.82Z" fill="#FDF5EB" stroke="#1B2030" stroke-linecap="round" stroke-linejoin="round"/>
<path d="M1790.11 260.087L1789.48 259.921C1785.12 260.124 1783.33 261.055 1780.81 262.733C1778.44 264.318 1771.34 270.642 1770.52 274.634C1770.14 276.477 1770.26 277.611 1770.51 278.302C1772.54 277.712 1779.17 277.5 1784.28 280.487C1797.55 288.221 1791.37 299.947 1789.91 301.403C1796.86 295.688 1801.01 288.488 1801.01 280.662C1801.01 272.836 1796.94 265.775 1790.11 260.087Z" fill="#FDF5EB" stroke="#1B2030" stroke-linecap="round" stroke-linejoin="round"/>
<path d="M1552.96 49.4609C1525.16 49.4609 1502.62 64.505 1502.62 83.052C1502.62 101.599 1525.16 116.643 1552.96 116.643C1580.76 116.643 1603.3 101.599 1603.3 83.052C1603.3 64.505 1580.76 49.4609 1552.96 49.4609ZM1552.96 89.1544C1542.13 89.1544 1533.35 83.5037 1533.35 80.8673C1533.35 78.2309 1542.13 72.5801 1552.96 72.5801C1563.79 72.5801 1572.57 78.2125 1572.57 80.8673C1572.57 83.2732 1563.79 89.1544 1552.96 89.1544Z" fill="#1B2030" stroke="#1B2030" stroke-linecap="round" stroke-linejoin="round"/>
<path d="M1541.87 59.2783C1545.27 65.3254 1544.53 72.6262 1544.16 73.6587L1544.07 73.8707C1546.74 73.0964 1549.76 72.5894 1552.96 72.5894C1555.59 72.5894 1558.09 72.9212 1560.37 73.4651C1560.01 71.4647 1559.67 64.7631 1562.85 59.1216C1565.04 55.2131 1568.53 52.8532 1570.81 51.6456C1565.26 50.2445 1559.25 49.4702 1552.96 49.4702C1546.25 49.4702 1539.84 50.3551 1533.98 51.9406C1536.19 53.0837 1539.69 55.3882 1541.87 59.2783Z" fill="#FDF5EB" stroke="#1B2030" stroke-linecap="round" stroke-linejoin="round"/>
<path d="M1518.07 82.2132C1525.22 78.6826 1532.98 80.2036 1532.98 80.2036L1533.15 80.1759C1533.38 79.503 1533.48 78.4153 1533.11 76.6823C1532.29 72.8106 1525.68 67.1967 1523.37 65.5467C1521.07 63.8966 1518.27 62.182 1513.62 62.7444L1513.59 62.6983C1506.71 68.349 1502.62 75.4009 1502.62 83.0612C1502.62 89.3388 1505.37 95.2108 1510.16 100.244C1509.62 98.9257 1506.89 87.7441 1518.07 82.2224V82.2132Z" fill="#FDF5EB" stroke="#1B2030" stroke-linecap="round" stroke-linejoin="round"/>
<path d="M1574.13 101.479C1572.12 91.8 1566.48 87.8731 1565.2 87.3384C1564.82 87.1817 1564.47 87.0988 1564.16 87.0711C1560.99 88.2787 1557.13 89.1452 1552.96 89.1452C1548.02 89.1452 1543.51 87.9653 1540.07 86.4351C1539.79 86.4811 1539.49 86.5549 1539.16 86.6932C1537.87 87.2278 1532.19 91.1824 1530.18 100.908C1528.3 109.997 1530.54 112.347 1531.29 113.38C1537.85 115.472 1545.19 116.643 1552.95 116.643C1560.08 116.643 1566.87 115.647 1573.01 113.868C1573.78 112.827 1575.97 110.467 1574.11 101.479H1574.13Z" fill="#FDF5EB" stroke="#1B2030" stroke-linecap="round" stroke-linejoin="round"/>
<path d="M1592.41 62.477L1591.77 62.3111C1587.42 62.5139 1585.62 63.4449 1583.1 65.1226C1580.73 66.7082 1573.63 73.0318 1572.81 77.0233C1572.43 78.867 1572.55 80.0008 1572.8 80.6922C1574.84 80.1022 1581.46 79.8902 1586.58 82.8769C1599.84 90.6109 1593.66 102.336 1592.2 103.793C1599.15 98.0777 1603.3 90.8783 1603.3 83.052C1603.3 75.2258 1599.23 68.1646 1592.41 62.477Z" fill="#FDF5EB" stroke="#1B2030" stroke-linecap="round" stroke-linejoin="round"/>
<path d="M1935.5 431.804C1907.7 431.804 1885.16 446.848 1885.16 465.395C1885.16 483.942 1907.7 498.986 1935.5 498.986C1963.3 498.986 1985.84 483.942 1985.84 465.395C1985.84 446.848 1963.3 431.804 1935.5 431.804ZM1935.5 471.497C1924.67 471.497 1915.89 465.846 1915.89 463.21C1915.89 460.574 1924.67 454.923 1935.5 454.923C1946.33 454.923 1955.11 460.555 1955.11 463.21C1955.11 465.616 1946.33 471.497 1935.5 471.497Z" fill="#1B2030" stroke="#1B2030" stroke-linecap="round" stroke-linejoin="round"/>
<path d="M1924.41 441.621C1927.8 447.668 1927.06 454.969 1926.69 456.001L1926.6 456.213C1929.28 455.439 1932.29 454.932 1935.49 454.932C1938.12 454.932 1940.62 455.264 1942.91 455.808C1942.54 453.807 1942.21 447.106 1945.38 441.464C1947.57 437.556 1951.06 435.196 1953.35 433.988C1947.8 432.587 1941.78 431.813 1935.49 431.813C1928.78 431.813 1922.37 432.698 1916.51 434.283C1918.73 435.426 1922.22 437.731 1924.41 441.621Z" fill="#FDF5EB" stroke="#1B2030" stroke-linecap="round" stroke-linejoin="round"/>
<path d="M1900.6 464.556C1907.75 461.025 1915.52 462.546 1915.52 462.546L1915.68 462.519C1915.91 461.846 1916.01 460.758 1915.64 459.025C1914.82 455.153 1908.21 449.539 1905.91 447.889C1903.6 446.239 1900.81 444.525 1896.16 445.087L1896.12 445.041C1889.24 450.692 1885.15 457.744 1885.15 465.404C1885.15 471.681 1887.9 477.553 1892.69 482.587C1892.15 481.268 1889.42 470.087 1900.6 464.565V464.556Z" fill="#FDF5EB" stroke="#1B2030" stroke-linecap="round" stroke-linejoin="round"/>
<path d="M1956.66 483.831C1954.66 474.152 1949.01 470.225 1947.73 469.69C1947.35 469.534 1947 469.451 1946.7 469.423C1943.53 470.631 1939.66 471.497 1935.49 471.497C1930.55 471.497 1926.05 470.317 1922.6 468.787C1922.32 468.833 1922.03 468.907 1921.69 469.045C1920.4 469.58 1914.72 473.534 1912.71 483.259C1910.83 492.349 1913.07 494.699 1913.83 495.732C1920.39 497.824 1927.73 498.995 1935.48 498.995C1942.61 498.995 1949.4 497.999 1955.54 496.22C1956.31 495.179 1958.5 492.819 1956.64 483.831H1956.66Z" fill="#FDF5EB" stroke="#1B2030" stroke-linecap="round" stroke-linejoin="round"/>
<path d="M1935.5 33C1907.7 33 1885.16 48.0441 1885.16 66.5911C1885.16 85.1381 1907.7 100.182 1935.5 100.182C1963.3 100.182 1985.84 85.1381 1985.84 66.5911C1985.84 48.0441 1963.3 33 1935.5 33ZM1935.5 72.6935C1924.67 72.6935 1915.89 67.0428 1915.89 64.4064C1915.89 61.77 1924.67 56.1192 1935.5 56.1192C1946.33 56.1192 1955.11 61.7515 1955.11 64.4064C1955.11 66.8123 1946.33 72.6935 1935.5 72.6935Z" fill="#1B2030" stroke="#1B2030" stroke-linecap="round" stroke-linejoin="round"/>
<path d="M1924.41 42.8174C1927.8 48.8645 1927.06 56.1653 1926.69 57.1977L1926.6 57.4098C1929.28 56.6354 1932.29 56.1284 1935.49 56.1284C1938.12 56.1284 1940.62 56.4603 1942.91 57.0042C1942.54 55.0038 1942.21 48.3022 1945.38 42.6607C1947.57 38.7521 1951.06 36.3923 1953.35 35.1847C1947.8 33.7836 1941.78 33.0092 1935.49 33.0092C1928.78 33.0092 1922.37 33.8942 1916.51 35.4797C1918.73 36.6227 1922.22 38.9273 1924.41 42.8174Z" fill="#FDF5EB" stroke="#1B2030" stroke-linecap="round" stroke-linejoin="round"/>
<path d="M1900.6 65.7522C1907.75 62.2217 1915.52 63.7427 1915.52 63.7427L1915.68 63.715C1915.91 63.0421 1916.01 61.9543 1915.64 60.2213C1914.82 56.3497 1908.21 50.7358 1905.91 49.0858C1903.6 47.4357 1900.81 45.7211 1896.16 46.2834L1896.12 46.2373C1889.24 51.8881 1885.15 58.94 1885.15 66.6003C1885.15 72.8779 1887.9 78.7499 1892.69 83.783C1892.15 82.4648 1889.42 71.2831 1900.6 65.7614V65.7522Z" fill="#FDF5EB" stroke="#1B2030" stroke-linecap="round" stroke-linejoin="round"/>
<path d="M1956.66 85.0274C1954.66 75.3483 1949.01 71.4214 1947.73 70.8867C1947.35 70.73 1947 70.647 1946.7 70.6194C1943.53 71.8269 1939.66 72.6935 1935.49 72.6935C1930.55 72.6935 1926.05 71.5136 1922.6 69.9833C1922.32 70.0294 1922.03 70.1032 1921.69 70.2414C1920.4 70.7761 1914.72 74.7307 1912.71 84.4559C1910.83 93.545 1913.07 95.8956 1913.83 96.9281C1920.39 99.0206 1927.73 100.191 1935.48 100.191C1942.61 100.191 1949.4 99.1957 1955.54 97.4166C1956.31 96.375 1958.5 94.0151 1956.64 85.0274H1956.66Z" fill="#FDF5EB" stroke="#1B2030" stroke-linecap="round" stroke-linejoin="round"/>
</g>
<defs>
<clipPath id="clip0_1_5">
<rect width="2591" height="1411" fill="white" transform="translate(-407)"/>
</clipPath>
</defs>
</svg>
