<svg width="75" height="20" viewBox="0 0 75 20" fill="none" xmlns="http://www.w3.org/2000/svg">
  <path fill-rule="evenodd" clip-rule="evenodd" d="M31.5475 0.0140838C32.3402 0.0281675 33.0301 0.507015 33.309 1.19712L33.3531 1.30979L40.6195 18.2103C40.6782 18.3371 40.7075 18.4638 40.7075 18.5906V18.6892C40.7222 19.0272 40.6048 19.3652 40.3552 19.6328C40.1057 19.8863 39.7534 20.013 39.3864 19.9989C39.1221 19.9989 38.8579 19.9144 38.6377 19.7595C38.4469 19.6187 38.3001 19.4497 38.1827 19.2525L38.1239 19.1257L31.2099 2.59141L28.6556 8.66151H29.8887C30.564 8.66151 31.1218 9.16853 31.1805 9.81638V9.91497V9.94314C31.1805 10.591 30.652 11.1262 29.9915 11.1966H29.8887H27.5987L24.2664 19.1257C24.1637 19.3793 23.9728 19.5905 23.7526 19.7595C23.5324 19.9144 23.2682 19.9989 23.004 19.9989C22.637 20.013 22.2847 19.8863 22.0351 19.6328C21.8003 19.3793 21.6681 19.0412 21.6828 18.6892C21.6828 18.5624 21.6975 18.4497 21.7415 18.323L21.7856 18.2103L24.7949 11.1825H23.5031C22.8278 11.1825 22.27 10.6755 22.2113 10.0276V9.91497C22.2113 9.26712 22.7397 8.73193 23.4003 8.66151H23.5031H25.9252L29.0813 1.29571C29.3162 0.577434 29.9915 0.0704188 30.7695 0H30.9016L31.5475 0.0140838ZM9.83641 0.0140838C10.6291 0.0281675 11.3337 0.492932 11.6126 1.19712L11.6567 1.30979L18.9231 18.2103C18.9671 18.323 18.9965 18.4497 19.0111 18.5624V18.8018C18.9965 19.1117 18.879 19.3933 18.6588 19.6328C18.4093 19.8863 18.057 20.013 17.69 19.9989C17.4257 19.9989 17.1615 19.9144 16.9413 19.7595C16.7505 19.6187 16.6037 19.4497 16.4863 19.2525L16.4275 19.1257L9.51346 2.59141L6.98858 8.66151H8.22166C8.9116 8.66151 9.46942 9.16853 9.52814 9.81638V9.91497V9.94314C9.52814 10.6051 8.99968 11.1403 8.32442 11.1966H8.22166H5.91697L2.58471 19.1257C2.48195 19.3793 2.29112 19.5905 2.07092 19.7595C1.85073 19.9144 1.5865 19.9989 1.32227 19.9989C0.955278 20.013 0.602969 19.8863 0.353416 19.6328C0.118543 19.3793 -0.013573 19.0412 0.00110653 18.6892C0.00110653 18.5624 0.0157861 18.4497 0.0598248 18.323L0.103863 18.2103L3.11317 11.1825H1.82137C1.14611 11.1825 0.588289 10.6755 0.529571 10.0276V9.91497C0.529571 9.26712 1.05804 8.73193 1.71862 8.66151H1.82137H4.21414L7.37025 1.29571C7.60512 0.577434 8.28038 0.0704188 9.0584 0H9.19051L9.83641 0.0140838ZM40.2084 0.0140838C40.4727 0.0140838 40.7369 0.0985863 40.9571 0.253508C41.1773 0.422513 41.3681 0.633769 41.4709 0.887277L48.3849 17.4216L55.299 0.887277C55.4165 0.633769 55.5926 0.422513 55.8128 0.253508C56.033 0.0985863 56.2972 0.0140838 56.5615 0.0140838C56.9138 0 57.2661 0.126754 57.5156 0.380262C57.7652 0.633769 57.8826 0.97178 57.8826 1.32387C57.8826 1.49288 57.8533 1.6478 57.7945 1.80272L50.5282 18.7032C50.2786 19.4638 49.5446 19.9849 48.7079 19.9989H48.062C47.2253 19.9849 46.4913 19.4638 46.2417 18.7032L38.9753 1.80272C38.9166 1.6478 38.8873 1.49288 38.8873 1.32387C38.8726 0.97178 39.0047 0.647853 39.2396 0.380262C39.5038 0.126754 39.8561 -0.0140838 40.2084 0.0140838ZM73.7219 0.140838C74.0595 0.126754 74.3824 0.267591 74.6173 0.507015C74.8669 0.732356 74.999 1.0422 74.999 1.36612C75.0137 1.69005 74.8669 1.98581 74.6173 2.21115C74.3824 2.43649 74.0595 2.56324 73.7219 2.56324H63.2847V8.80235H72.6649C73.0026 8.78827 73.3255 8.9291 73.5604 9.16853C73.7953 9.39387 73.9421 9.70371 73.9421 10.0276C73.9567 10.3516 73.81 10.6473 73.5604 10.8727C73.3255 11.098 73.0026 11.2248 72.6649 11.2248H63.2847V17.492H73.7219C74.0595 17.4779 74.3824 17.6188 74.6173 17.8582C74.8669 18.0836 74.999 18.3934 74.999 18.7173C75.0137 19.0412 74.8669 19.337 74.6173 19.5623C74.3824 19.7877 74.0595 19.9144 73.7219 19.9004H61.9195C61.5672 19.9285 61.2149 19.7877 60.98 19.5342C60.7305 19.2948 60.5983 18.9708 60.5983 18.6328V1.45063C60.5837 1.09853 60.7305 0.774607 60.98 0.521099C61.2296 0.267591 61.5672 0.140838 61.9195 0.154921L73.7219 0.140838Z" fill="url(#paint0_linear_278_696)"/>
  <defs>
    <linearGradient id="paint0_linear_278_696" x1="8.82353" y1="5.92593" x2="70.1236" y2="14.8439" gradientUnits="userSpaceOnUse">
      <stop stop-color="#B6509E"/>
      <stop offset="0.953125" stop-color="#2EBAC6"/>
    </linearGradient>
  </defs>
</svg>
