<svg width="166" height="183" viewBox="0 0 166 183" fill="none" xmlns="http://www.w3.org/2000/svg">
<path d="M83 72C37.7094 72 1 96.6277 1 127.005C1 157.382 37.7094 182 83 182C128.291 182 165 157.382 165 127.005C165 96.6277 128.291 72.0093 83 72.0093V72ZM83 136.975C65.355 136.975 51.0591 127.722 51.0591 123.408C51.0591 119.094 65.3643 109.841 83 109.841C100.636 109.841 114.941 119.066 114.941 123.408C114.941 127.349 100.636 136.975 83 136.975Z" fill="#1B2030" stroke="#1B2030" stroke-linecap="round" stroke-linejoin="round"/>
<path d="M64.991 88.1044C70.5037 98.0192 69.3012 109.997 68.7093 111.687L68.5613 112.032C72.8993 110.753 77.8015 109.922 83.009 109.922C87.2731 109.922 91.3336 110.473 95.0519 111.351C94.4507 108.074 93.9142 97.0856 99.057 87.8244C102.627 81.4106 108.288 77.5455 111.997 75.5663C102.988 73.2604 93.2113 72 82.9998 72C72.0853 72 61.6796 73.4471 52.1619 76.0611C55.7599 77.947 61.4391 81.7187 64.991 88.1044Z" fill="#FEF6EC" stroke="#1B2030" stroke-linecap="round" stroke-linejoin="round"/>
<path d="M26.3281 125.728C37.9363 119.94 50.5434 122.432 50.5434 122.432L50.8209 122.386C51.1908 121.275 51.3573 119.492 50.7561 116.644C49.4149 110.296 38.6855 101.081 34.9394 98.3831C31.1934 95.685 26.6519 92.8655 19.1135 93.7898L19.058 93.7151C7.88457 102.976 1.24341 114.553 1.24341 127.11C1.24341 137.407 5.71093 147.042 13.4805 155.285C12.6018 153.129 8.18055 134.784 26.3281 125.728Z" fill="#FEF6EC" stroke="#1B2030" stroke-linecap="round" stroke-linejoin="round"/>
<path d="M117.371 157.33C114.125 141.459 104.949 135.008 102.868 134.14C102.258 133.888 101.693 133.757 101.194 133.692C96.0326 135.671 89.7707 137.099 83 137.099C74.9807 137.099 67.6551 135.167 62.0498 132.655C61.6059 132.721 61.1156 132.851 60.5884 133.076C58.498 133.953 49.267 140.432 46.0019 156.387C42.9496 171.297 46.5754 175.143 47.8148 176.852C58.4703 180.278 70.3929 182.201 82.9908 182.201C94.5712 182.201 105.597 180.577 115.577 177.645C116.826 175.937 120.377 172.072 117.362 157.321L117.371 157.33Z" fill="#FEF6EC" stroke="#1B2030" stroke-linecap="round" stroke-linejoin="round"/>
<path d="M147.071 93.3605L146.045 93.0897C138.978 93.4258 136.046 94.9569 131.967 97.711C128.119 100.306 116.585 110.688 115.244 117.232C114.624 120.257 114.828 122.115 115.225 123.245C118.537 122.274 129.285 121.928 137.609 126.83C159.16 139.508 149.116 158.749 146.738 161.139C158.023 151.766 164.756 139.956 164.756 127.11C164.756 114.264 158.152 102.687 147.062 93.3605H147.071Z" fill="#FEF6EC" stroke="#1B2030" stroke-linecap="round" stroke-linejoin="round"/>
<path d="M61.1841 121.418C61.0745 120.956 61.2293 122.42 61.1519 123.416C61.5259 123.826 61.6936 123.533 61.1841 121.418Z" fill="#1B2030" stroke="#1B2030" stroke-linecap="round" stroke-linejoin="round"/>
<path d="M108.317 88.9383V38.9954C108.317 36.8279 108.246 34.8102 108.124 32.9096L104.913 8.99582C104.261 8.27333 97.1031 3.33958 97.1031 3.33958C93.0792 0.814118 85.676 -1.69181 74.1393 7.46623C60.2359 18.5053 53.5164 38.2143 52.0526 46.4937C51.8591 47.6002 51.6785 48.7132 51.5496 49.8262C51.5173 50.1126 51.4851 50.399 51.4593 50.6854C51.4593 50.731 51.4528 50.7831 51.4464 50.8286C51.4464 50.8872 51.4399 50.9393 51.4335 50.9978C51.4335 51.0629 51.4206 51.128 51.4141 51.1931C51.4012 51.3689 51.3819 51.5446 51.369 51.7268C51.369 51.7464 51.369 51.7724 51.369 51.7919C51.3625 51.9156 51.3561 52.0458 51.3432 52.1695C51.3432 52.2671 51.3303 52.3647 51.3238 52.4624C51.3238 52.5665 51.311 52.6641 51.3045 52.7683C51.2981 52.9115 51.2916 53.0482 51.2916 53.1914C51.2916 53.2499 51.2916 53.315 51.2852 53.3736C51.2852 53.4777 51.2787 53.5754 51.2723 53.6795C51.2723 53.7251 51.2723 53.7706 51.2723 53.8162C51.2658 54.1677 51.2594 54.5192 51.2594 54.8641V55.3393C51.2594 55.3718 51.2594 55.4109 51.2594 55.4499C51.2594 55.4695 51.2594 55.489 51.2594 55.502L50.9111 96.8727V119.14C50.9111 120.591 51.3948 121.327 52.0848 121.912C52.2331 122.036 60.3133 127.341 60.5906 127.25C60.7776 127.191 60.7131 124.347 60.9131 124.23C61.0614 124.145 61.1259 123.813 61.1581 123.403C60.61 122.798 59.6104 120.643 59.6943 120.5C60.3327 119.439 60.7325 118.15 60.7325 116.959V105.438C60.7325 104.163 61.2742 102.744 62.0803 101.618C62.2802 101.344 62.493 101.097 62.7187 100.863V102.796C62.7187 103.46 62.8412 107.072 63.0605 107.482C63.37 108.055 63.744 108.433 64.2019 108.83C64.4469 109.038 72.2241 114.173 72.6239 113.939C72.8238 113.822 72.4949 109.083 72.6819 108.927C73.5267 108.211 71.8049 106.779 72.1983 105.582C72.4175 104.918 72.5401 104.228 72.5401 103.564V98.5325C72.5401 97.8946 72.6755 97.2177 72.9076 96.5668C73.0044 96.3064 73.114 96.0461 73.2365 95.7922C72.5723 96.3585 73.6621 94.9265 73.2365 95.7922C73.2688 95.8378 83.8253 102.646 83.8253 102.646C83.9156 102.633 91.093 99.1638 85.6051 98.2851C85.4117 98.2526 85.7792 98.1484 85.9791 98.0313C87.5784 97.094 84.3541 94.7573 84.3541 92.6419V91.62C84.3541 90.7283 84.6185 89.7649 85.057 88.8797C85.1215 88.7561 85.1859 88.6324 85.2569 88.5087C85.5664 87.962 85.934 87.4673 86.3467 87.0442V88.9774C86.3467 89.5762 86.4048 93.6247 86.8304 94.165C86.9206 94.2952 95.7811 99.8733 95.9359 99.9774C96.4454 100.283 96.1681 91.8608 96.1681 89.7454V84.714C96.1681 83.1259 97.0064 81.3164 98.1543 80.1383V91.7632C98.1543 93.9502 107.879 99.5088 107.879 99.5088C109.536 98.539 108.311 91.1709 108.311 88.9123L108.317 88.9383Z" fill="#1B2030"/>
<path d="M73.2365 95.7922C73.114 96.0461 73.0044 96.3064 72.9076 96.5668C72.6755 97.2177 72.5401 97.8946 72.5401 98.5325V103.564C72.5401 104.228 72.4175 104.918 72.1983 105.582C71.8049 106.779 73.5267 108.211 72.6819 108.927C72.4949 109.083 72.8238 113.822 72.6239 113.939C72.2241 114.173 64.4469 109.038 64.2019 108.83C63.744 108.433 63.37 108.055 63.0605 107.482C62.8412 107.072 62.7187 103.46 62.7187 102.796V100.863C62.493 101.097 62.2802 101.344 62.0803 101.618C61.2742 102.744 60.7325 104.163 60.7325 105.438V116.959C60.7325 118.15 60.3327 119.439 59.6943 120.5C59.6104 120.643 60.61 122.798 61.1581 123.403C61.1259 123.813 61.0614 124.145 60.9131 124.23C60.7131 124.347 60.7776 127.191 60.5906 127.25C60.3133 127.341 52.2331 122.036 52.0848 121.912C51.3948 121.327 50.9111 120.591 50.9111 119.14V96.8727L51.2594 55.502C51.2594 55.489 51.2594 55.4695 51.2594 55.4499C51.2594 55.4109 51.2594 55.3718 51.2594 55.3393V54.8641C51.2594 54.5192 51.2658 54.1677 51.2723 53.8162C51.2723 53.7706 51.2723 53.7251 51.2723 53.6795C51.2787 53.5754 51.2852 53.4777 51.2852 53.3736C51.2916 53.315 51.2916 53.2499 51.2916 53.1914C51.2916 53.0482 51.2981 52.9115 51.3045 52.7683C51.311 52.6641 51.3238 52.5665 51.3238 52.4624C51.3303 52.3647 51.3432 52.2671 51.3432 52.1695C51.3561 52.0458 51.3625 51.9156 51.369 51.7919C51.369 51.7724 51.369 51.7464 51.369 51.7268C51.3819 51.5446 51.4012 51.3689 51.4141 51.1931C51.4206 51.128 51.4335 51.0629 51.4335 50.9978C51.4399 50.9393 51.4464 50.8872 51.4464 50.8286C51.4528 50.7831 51.4593 50.731 51.4593 50.6854C51.4851 50.399 51.5173 50.1126 51.5496 49.8262C51.6785 48.7132 51.8591 47.6002 52.0526 46.4937C53.5164 38.2143 60.2359 18.5053 74.1393 7.46623C85.676 -1.69181 93.0792 0.814118 97.1031 3.33958C97.1031 3.33958 104.261 8.27333 104.913 8.99582L108.124 32.9096C108.246 34.8102 108.317 36.8279 108.317 38.9954V88.9383L108.311 88.9123C108.311 91.1709 109.536 98.539 107.879 99.5088C107.879 99.5088 98.1543 93.9502 98.1543 91.7632V80.1383C97.0064 81.3164 96.1681 83.1259 96.1681 84.714V89.7454C96.1681 91.8608 96.4454 100.283 95.9359 99.9774C95.7811 99.8733 86.9206 94.2952 86.8304 94.165C86.4048 93.6247 86.3467 89.5762 86.3467 88.9774V87.0442C85.934 87.4673 85.5664 87.962 85.2569 88.5087C85.1859 88.6324 85.1215 88.7561 85.057 88.8797C84.6185 89.7649 84.3541 90.7283 84.3541 91.62V92.6419C84.3541 94.7573 87.5784 97.094 85.9791 98.0313C85.7792 98.1484 85.4117 98.2526 85.6051 98.2851C91.093 99.1638 83.9156 102.633 83.8253 102.646C83.8253 102.646 73.2688 95.8378 73.2365 95.7922ZM73.2365 95.7922C73.6621 94.9265 72.5723 96.3585 73.2365 95.7922Z" stroke="#1B2030" stroke-linecap="round" stroke-linejoin="round"/>
<path fill-rule="evenodd" clip-rule="evenodd" d="M112.683 37.5178V29.2645C112.683 9.87446 100.798 1.12648 86.1147 9.70523C73.6687 16.9822 63.2347 34.3675 60.3457 51.3037C59.8298 54.0635 59.5525 56.8688 59.5525 59.6807V60.1558C59.5525 60.2079 59.5525 60.2665 59.5525 60.3186V105.601V108.218V124.926C59.5525 127.041 60.8229 127.972 62.4222 127.041C64.0214 126.111 65.2918 123.689 65.2918 121.574V110.053C65.2918 108.009 66.6719 105.601 68.3292 104.631L68.3872 104.599C70.0445 103.7 71.3665 104.534 71.3665 106.577V111.537C71.3665 113.653 72.6369 114.583 74.2362 113.653C75.8354 112.722 77.1058 110.301 77.1058 108.185V103.154C77.1058 101.11 78.4859 98.7016 80.1432 97.7318L80.2012 97.6992C81.8585 96.801 83.1805 97.6342 83.1805 99.678V100.628C83.1805 102.744 84.4509 103.674 86.0502 102.744C87.6495 101.806 88.9198 99.3916 88.9198 97.2762V96.2543C88.9198 94.2105 90.2999 91.8022 91.9572 90.8323L92.0152 90.7998C93.6725 89.9016 94.9945 90.7347 94.9945 92.7785V97.7383C94.9945 99.8537 96.2649 100.784 97.8642 99.8537C99.4635 98.9229 100.734 96.5016 100.734 94.3862V89.3548C100.734 87.311 102.114 84.9027 103.771 83.9329L103.829 83.9004C105.487 83.0021 106.809 83.8353 106.809 85.8791V97.1069C106.809 99.2939 108.131 100.342 109.846 99.3395C111.503 98.3697 112.883 95.8182 112.883 93.5531V43.6037C112.883 41.4362 112.812 39.4184 112.69 37.5178H112.683Z" fill="white"/>
<path fill-rule="evenodd" clip-rule="evenodd" d="M88.0943 59.6091C90.5771 58.1576 92.4021 54.6884 92.4021 52.9375C92.4021 52.2801 92.0732 51.8895 91.5766 52.1108C90.8028 52.4168 89.5904 53.712 88.1008 54.5842C86.6111 55.4564 85.8373 55.3978 84.7346 56.0422C83.6318 56.6866 83.6834 58.2618 83.8511 58.7434C84.238 60.1949 85.618 61.0671 88.1008 59.6156L88.0943 59.6091Z" fill="#1B2030"/>
<path d="M82.3082 50.1387C84.1884 45.8642 83.7625 41.5252 81.357 40.4473C78.9515 39.3693 75.4772 41.9606 73.597 46.235C71.7168 50.5095 72.1427 54.8485 74.5482 55.9264C76.9538 57.0044 80.428 54.4131 82.3082 50.1387Z" fill="#1B2030"/>
<path d="M102.138 38.5453C104.018 34.2708 103.592 29.9318 101.187 28.8539C98.7813 27.7759 95.307 30.3672 93.4269 34.6416C91.5467 38.9161 91.9725 43.2551 94.3781 44.3331C96.7836 45.411 100.258 42.8198 102.138 38.5453Z" fill="#1B2030"/>
<path fill-rule="evenodd" clip-rule="evenodd" d="M105.738 79.6891C81.994 93.5661 62.4415 82.3122 59.8427 54.6428C59.6492 56.3156 59.5525 58.0014 59.5525 59.6872V60.1624C59.5525 60.2145 59.5525 60.273 59.5525 60.3251V105.608V108.224V124.933C59.5525 127.048 60.8229 127.979 62.4222 127.048C64.0214 126.117 65.2918 123.696 65.2918 121.581V110.06C65.2918 108.016 66.6719 105.608 68.3292 104.638L68.3872 104.605C70.0445 103.707 71.3665 104.54 71.3665 106.584V111.544C71.3665 113.659 72.6369 114.59 74.2362 113.659C75.8354 112.728 77.1058 110.307 77.1058 108.192V103.16C77.1058 101.116 78.4859 98.7082 80.1432 97.7383L80.2012 97.7058C81.8585 96.8076 83.1805 97.6407 83.1805 99.6845V100.635C83.1805 102.75 84.4509 103.681 86.0502 102.75C87.6495 101.813 88.9198 99.3981 88.9198 97.2827V96.2608C88.9198 94.217 90.2999 91.8087 91.9572 90.8389L92.0152 90.8064C93.6725 89.9081 94.9945 90.7413 94.9945 92.7851V97.7449C94.9945 99.8603 96.2649 100.791 97.8642 99.8603C99.4635 98.9295 100.734 96.5082 100.734 94.3928V89.3614C100.734 87.3176 102.114 84.9093 103.771 83.9394L103.829 83.9069C105.487 83.0087 106.809 83.8418 106.809 85.8856V97.1135C106.809 99.3005 108.131 100.348 109.846 99.3461C111.503 98.3762 112.883 95.8247 112.883 93.5596V74.8335C110.555 76.6495 108.169 78.2832 105.738 79.7021V79.6891Z" fill="#FEF6EC"/>
<path d="M94.9943 97.7319C94.9943 98.5065 95.0846 99.4373 95.9358 100.004C95.594 98.2006 95.7746 96.1893 95.852 94.1911C95.9036 92.8437 96.1357 90.6567 95.5296 89.6804C94.8138 88.5283 93.6272 87.9881 92.0666 88.8342L92.0408 88.8473L91.9634 88.8928C89.4807 90.3443 87.4558 94.0349 87.4558 97.1136V98.1355C87.4558 99.1704 86.8432 100.342 86.0564 100.804C85.2697 101.266 84.6571 100.804 84.6571 99.7757V98.8254C84.6571 95.7597 82.7225 94.4059 80.2526 95.7402L80.2268 95.7532L80.1494 95.7988C77.6667 97.2503 75.6418 100.941 75.6418 104.02V109.051C75.6418 110.086 75.0292 111.257 74.2424 111.72C73.4557 112.182 72.8431 111.72 72.8431 110.691V105.731C72.8431 102.666 70.9084 101.312 68.4386 102.646L68.4128 102.659L68.3354 102.705C65.8527 104.156 63.8278 107.847 63.8278 110.925V122.446C63.8278 123.481 63.2151 124.653 62.4284 125.115C61.6417 125.577 61.029 125.115 61.029 124.087V102.835V92.4988C60.8678 87.2005 60.6615 63.7359 60.4358 61.269C60.2552 59.3228 60.0101 57.4157 59.7651 55.5216C59.6361 56.908 59.5652 58.3009 59.5652 59.7003V60.1755C59.5652 60.2276 59.5652 60.2861 59.5652 60.3382V105.621V124.946C59.5652 127.061 60.8356 127.992 62.4349 127.061C64.0341 126.13 65.3045 123.709 65.3045 121.594V110.073C65.3045 108.029 66.6845 105.621 68.3419 104.651L68.3999 104.618C70.0572 103.72 71.3792 104.553 71.3792 106.597V111.557C71.3792 113.672 72.6496 114.603 74.2489 113.672C75.8481 112.741 77.1185 110.32 77.1185 108.205V103.173C77.1185 101.13 78.4986 98.7213 80.1559 97.7514L80.2139 97.7189C81.8712 96.8207 83.1932 97.6538 83.1932 99.6976V100.648C83.1932 102.763 84.4636 103.694 86.0629 102.763C87.6622 101.826 88.9325 99.4112 88.9325 97.2958V96.2739C88.9325 94.2301 90.3126 91.8218 91.9699 90.852L92.0279 90.8195C93.6852 89.9212 95.0072 90.7544 95.0072 92.7982V97.758L94.9943 97.7319Z" fill="white"/>
<path fill-rule="evenodd" clip-rule="evenodd" d="M112.683 37.5178V29.2645C112.683 9.87446 100.798 1.12648 86.1147 9.70523C73.6687 16.9822 63.2347 34.3675 60.3457 51.3037C59.8298 54.0635 59.5525 56.8688 59.5525 59.6807V60.1558C59.5525 60.2079 59.5525 60.2665 59.5525 60.3186V105.601V108.218V124.926C59.5525 127.041 60.8229 127.972 62.4222 127.041C64.0214 126.104 65.2918 123.689 65.2918 121.574V110.053C65.2918 108.009 66.6719 105.601 68.3292 104.631L68.3872 104.599C70.0445 103.7 71.3665 104.534 71.3665 106.577V111.537C71.3665 113.653 72.6369 114.583 74.2362 113.653C75.8354 112.722 77.1058 110.301 77.1058 108.185V103.154C77.1058 101.11 78.4859 98.7016 80.1432 97.7318L80.2012 97.6992C81.8585 96.801 83.1805 97.6342 83.1805 99.678V100.628C83.1805 102.744 84.4509 103.674 86.0502 102.744C87.6495 101.813 88.9198 99.3916 88.9198 97.2762V96.2543C88.9198 94.2105 90.2999 91.8022 91.9572 90.8323L92.0152 90.7998C93.6725 89.9016 94.9945 90.7347 94.9945 92.7785V97.7383C94.9945 99.8537 96.2649 100.784 97.8642 99.8537C99.4635 98.9229 100.734 96.5016 100.734 94.3862V89.3548C100.734 87.311 102.114 84.9027 103.771 83.9329L103.829 83.9004C105.487 83.0021 106.809 83.8353 106.809 85.8791V97.1069C106.809 99.2939 108.131 100.342 109.846 99.3395C111.561 98.3371 112.883 95.8182 112.883 93.5531L112.69 37.5243L112.683 37.5178Z" stroke="#1B2030" stroke-miterlimit="10"/>
</svg>
