<svg width="150" height="147" viewBox="0 0 150 147" fill="none" xmlns="http://www.w3.org/2000/svg">
<path d="M148.901 35.5099H31.2811L1 5.25672H118.62L148.901 35.5099Z" fill="#FEF6EC" stroke="#1B2030" stroke-linecap="round" stroke-linejoin="round"/>
<path d="M149.099 35.5099H31.2808V145.55H149.099V35.5099Z" fill="#FEF6EC" stroke="#1B2030" stroke-linecap="round" stroke-linejoin="round"/>
<path d="M31.209 145.55L1.08105 115.378V5.32874L31.209 35.5099V145.55Z" fill="#1B2030" stroke="#1B2030" stroke-linecap="round" stroke-linejoin="round"/>
<path d="M124.665 90.5254C124.665 109.851 108.979 125.522 89.6356 125.522C70.2921 125.522 54.6064 109.851 54.6064 90.5254C54.6064 82.2443 57.4805 74.6382 62.2916 68.6524C68.7154 60.6503 78.5719 55.5286 89.6356 55.5286C108.979 55.5286 124.665 71.1998 124.665 90.5254Z" stroke="#1B2030" stroke-width="10" stroke-linecap="round" stroke-linejoin="round"/>
<path d="M114.394 65.952L64.9316 115.369" stroke="#1B2030" stroke-width="10" stroke-linecap="round" stroke-linejoin="round"/>
<path d="M89.978 19.7667C87.9328 19.7667 86.2751 19.3527 86.2751 17.3184C86.2751 11.8456 81.8153 7.39001 76.3375 7.39001C70.8597 7.39001 66.4 11.8456 66.4 17.3184C66.4 19.3617 64.7422 19.7667 62.6971 19.7667C60.6519 19.7667 58.9941 19.3527 58.9941 17.3184C58.9941 7.76806 66.7694 0 76.3285 0C85.8877 0 93.6629 7.76806 93.6629 17.3184C93.6629 19.3617 92.0051 19.7667 89.96 19.7667H89.978Z" fill="#1B2030"/>
</svg>
