<svg width="123" height="83" viewBox="0 0 123 83" fill="none" xmlns="http://www.w3.org/2000/svg">
<path d="M61.6621 1.43768C28.3425 1.43768 1.32422 19.4703 1.32422 41.7018C1.32422 63.9332 28.3425 81.9659 61.6621 81.9659C94.9816 81.9659 122 63.9332 122 41.7018C122 19.4703 94.9816 1.43768 61.6621 1.43768ZM61.6621 49.0165C48.6836 49.0165 38.1593 42.2432 38.1593 39.0831C38.1593 35.9229 48.6836 29.1496 61.6621 29.1496C74.6405 29.1496 85.1648 35.9008 85.1648 39.0831C85.1648 41.967 74.6405 49.0165 61.6621 49.0165Z" fill="#1B2030" stroke="#1B2030" stroke-linecap="round" stroke-linejoin="round"/>
<path d="M48.3742 13.2053C52.4424 20.4537 51.558 29.2049 51.1158 30.4424L51.0052 30.6965C54.2111 29.7684 57.8262 29.1606 61.6622 29.1606C64.8129 29.1606 67.8088 29.5584 70.5504 30.2103C70.1082 27.8126 69.7102 19.7797 73.5131 13.0175C76.1442 8.3325 80.3228 5.50386 83.0644 4.05639C76.4094 2.37688 69.2017 1.44874 61.6622 1.44874C53.6143 1.44874 45.931 2.50948 38.9111 4.40998C41.5643 5.78011 45.7542 8.54242 48.3742 13.2053Z" fill="#FDF5EB" stroke="#1B2030" stroke-linecap="round" stroke-linejoin="round"/>
<path d="M19.8412 40.6962C28.4088 36.4643 37.7172 38.2875 37.7172 38.2875L37.9161 38.2544C38.1925 37.4478 38.314 36.1439 37.8718 34.0666C36.888 29.4258 28.9615 22.6968 26.1978 20.7189C23.4341 18.7411 20.0846 16.6859 14.5129 17.3599L14.4687 17.3046C6.2217 24.0779 1.32422 32.5308 1.32422 41.7128C1.32422 49.2375 4.61877 56.2759 10.3563 62.3089C9.71509 60.7288 6.44265 47.3259 19.8412 40.7073V40.6962Z" fill="#FDF5EB" stroke="#1B2030" stroke-linecap="round" stroke-linejoin="round"/>
<path d="M87.0329 63.7895C84.634 52.1877 77.8684 47.4806 76.3318 46.8397C75.8785 46.6519 75.4583 46.5524 75.0935 46.5193C71.2906 47.9668 66.6587 49.0054 61.6619 49.0054C55.7365 49.0054 50.3417 47.5911 46.2071 45.7569C45.8755 45.8121 45.5217 45.9006 45.1238 46.0663C43.5761 46.7072 36.7663 51.4473 34.3563 63.1045C32.1011 73.9992 34.7874 76.8168 35.6939 78.0543C43.5539 80.5625 52.3536 81.9659 61.6508 81.9659C70.1963 81.9659 78.3327 80.7725 85.6953 78.64C86.6128 77.3914 89.2438 74.5627 87.0107 63.7895H87.0329Z" fill="#FDF5EB" stroke="#1B2030" stroke-linecap="round" stroke-linejoin="round"/>
<path d="M108.944 17.0395L108.182 16.8406C102.964 17.0837 100.808 18.1996 97.7899 20.2106C94.9488 22.1111 86.4366 29.691 85.4527 34.4754C84.9994 36.6853 85.1431 38.0444 85.4416 38.8731C87.8847 38.166 95.8221 37.9118 101.958 41.4918C117.855 50.7623 110.448 64.8172 108.701 66.563C117.026 59.7123 122 51.0827 122 41.7018C122 32.3208 117.125 23.857 108.944 17.0395Z" fill="#FDF5EB" stroke="#1B2030" stroke-linecap="round" stroke-linejoin="round"/>
</svg>
