<svg width="158" height="128" viewBox="0 0 158 128" fill="none" xmlns="http://www.w3.org/2000/svg">
<g clip-path="url(#clip0_130_876)">
<path d="M87.1984 127.421C84.5019 127.582 81.7646 127.663 79.0001 127.663C35.5576 127.663 0.340576 107.241 0.340576 82.0407" stroke="#1B2030" stroke-linecap="round" stroke-linejoin="round"/>
<path d="M142.073 109.302C130.729 118.115 114.026 124.469 94.7632 126.747" stroke="#1B2030" stroke-linecap="round" stroke-linejoin="round"/>
<path d="M156.55 74.3595C157.278 76.8593 157.66 79.4264 157.66 82.0407C157.66 89.8365 154.289 97.1808 148.338 103.602" stroke="#1B2030" stroke-linecap="round" stroke-linejoin="round"/>
<path d="M137.069 51.2687C145.682 56.7332 152.028 63.4172 155.263 70.8154" stroke="#1B2030" stroke-linecap="round" stroke-linejoin="round"/>
<path d="M20.0938 51.2687C11.4802 56.7332 5.13401 63.4172 1.89966 70.8154" stroke="#1B2030" stroke-linecap="round" stroke-linejoin="round"/>
<path d="M31.4514 107.294C19.9576 100.53 12.8896 91.3188 12.8896 81.1648C12.8896 74.3663 16.0627 67.9855 21.6122 62.4806" stroke="#1B2030" stroke-linecap="round" stroke-linejoin="round"/>
<path d="M112.215 113.689C102.458 116.923 91.1068 118.776 79.0001 118.776C66.2738 118.776 54.3918 116.727 44.3074 113.19" stroke="#1B2030" stroke-linecap="round" stroke-linejoin="round"/>
<path d="M145.11 81.1648C145.11 94.0814 133.664 105.475 116.226 112.247" stroke="#1B2030" stroke-linecap="round" stroke-linejoin="round"/>
<path d="M79.3406 33.6491C46.0982 33.6491 19.1543 51.4507 19.1543 73.4162C19.1543 95.3818 46.0982 113.183 79.3406 113.183C112.583 113.183 139.527 95.3818 139.527 73.4162C139.527 51.4507 112.583 33.6491 79.3406 33.6491ZM79.3406 80.6325C66.3895 80.6325 55.8966 73.9418 55.8966 70.8221C55.8966 67.7025 66.3963 61.0117 79.3406 61.0117C92.2848 61.0117 102.785 67.6823 102.785 70.8221C102.785 73.6723 92.2848 80.6325 79.3406 80.6325Z" fill="#1B2030" stroke="#1B2030" stroke-linecap="round" stroke-linejoin="round"/>
<path d="M66.083 45.2653C70.1413 52.4209 69.2561 61.0656 68.8203 62.2852L68.7113 62.5345C71.9048 61.6114 75.5137 61.0117 79.3473 61.0117C82.4863 61.0117 85.4755 61.4093 88.2128 62.0426C87.7702 59.6776 87.3753 51.7471 91.1612 45.0631C93.7895 40.4342 97.9567 37.6447 100.687 36.2162C94.0551 34.552 86.8578 33.6424 79.3404 33.6424C71.3056 33.6424 63.6453 34.6867 56.6387 36.5734C59.2874 37.9344 63.4683 40.6565 66.083 45.2653Z" fill="#FEF6EC" stroke="#1B2030" stroke-linecap="round" stroke-linejoin="round"/>
<path d="M37.6208 72.419C46.1663 68.2415 55.4472 70.0405 55.4472 70.0405L55.6515 70.0069C55.9238 69.205 56.0464 67.9181 55.6038 65.863C54.6165 61.2813 46.7178 54.6309 43.9601 52.6837C41.2024 50.7364 37.8591 48.7016 32.3096 49.3686L32.2688 49.3147C24.0433 56.0055 19.1543 64.3537 19.1543 73.4162C19.1543 80.8481 22.4431 87.8017 28.1628 93.7512C27.516 92.1948 24.2612 78.9548 37.6208 72.419Z" fill="#FEF6EC" stroke="#1B2030" stroke-linecap="round" stroke-linejoin="round"/>
<path d="M104.643 95.2268C102.253 83.7724 95.4987 79.1165 93.9666 78.4899C93.5172 78.3079 93.1019 78.2136 92.7342 78.1665C88.9346 79.5949 84.3248 80.6258 79.3405 80.6258C73.437 80.6258 68.0441 79.231 63.9178 77.4185C63.5909 77.4657 63.23 77.56 62.8419 77.7218C61.303 78.3551 54.5075 83.0312 52.1038 94.5463C49.8568 105.307 52.526 108.083 53.4384 109.316C61.2826 111.789 70.0596 113.177 79.3337 113.177C87.8588 113.177 95.9753 112.004 103.322 109.889C104.242 108.655 106.856 105.866 104.637 95.2201L104.643 95.2268Z" fill="#FEF6EC" stroke="#1B2030" stroke-linecap="round" stroke-linejoin="round"/>
<path d="M126.501 49.0587L125.745 48.8633C120.543 49.1059 118.384 50.2109 115.381 52.1986C112.549 54.0717 104.058 61.5642 103.07 66.2875C102.614 68.4706 102.764 69.8114 103.057 70.6267C105.495 69.926 113.407 69.6767 119.535 73.2141C135.4 82.3642 128.006 96.251 126.256 97.9759C134.563 91.211 139.52 82.6876 139.52 73.4162C139.52 64.1449 134.658 55.7899 126.494 49.0587H126.501Z" fill="#FEF6EC" stroke="#1B2030" stroke-linecap="round" stroke-linejoin="round"/>
<path d="M98.5721 58.5323L88.1685 48.4142L88.4283 72.137L98.9945 82.179C98.9945 82.179 98.5695 58.2956 98.5721 58.5323Z" fill="#1B2030" stroke="#1B2030" stroke-linecap="round" stroke-linejoin="round"/>
<path d="M122.023 58.2561L98.5407 58.5064L88.1342 48.3922L111.637 48.1417L122.023 58.2561Z" fill="#FBF5EC" stroke="#1B2030" stroke-linecap="round" stroke-linejoin="round"/>
<path d="M122.301 58.2769L98.5743 58.5298L98.8326 82.1054L122.559 81.8525L122.301 58.2769Z" fill="#FBF5EC" stroke="#1B2030" stroke-linecap="round" stroke-linejoin="round"/>
<path d="M110.655 78.61C115.047 78.5632 118.568 74.9877 118.521 70.6239C118.473 66.2601 114.874 62.7605 110.482 62.8073C106.09 62.8541 102.569 66.4296 102.617 70.7934C102.665 75.1572 106.264 78.6568 110.655 78.61Z" fill="url(#paint0_linear_130_876)"/>
<path d="M115.013 66.7846L110.635 65.5322C110.573 65.5126 110.505 65.5133 110.451 65.5342L106.101 66.8795C105.965 66.9216 105.872 67.0511 105.873 67.1932L105.925 71.9623C105.96 72.6588 106.233 73.3189 106.695 73.8417C107.15 74.3849 107.687 74.8663 108.277 75.2659C108.983 75.7591 109.744 76.1907 110.531 76.5477C110.613 76.5874 110.715 76.5863 110.796 76.5449C111.575 76.1712 112.319 75.7303 113.022 75.2154C113.603 74.8033 114.122 74.3106 114.572 73.7578C115.022 73.2253 115.28 72.5595 115.3 71.8625L115.248 67.0933C115.246 66.9512 115.149 66.8237 115.013 66.7846Z" fill="white"/>
<path d="M113.302 72.8107L111.178 67.8674C111.1 67.6449 110.895 67.4915 110.656 67.4941L110.472 67.496C110.234 67.4986 110.032 67.6563 109.959 67.8804L109.084 70.0479L108.403 70.0552C108.199 70.0574 108.031 70.2215 108.033 70.4312C108.035 70.6409 108.2 70.8016 108.412 70.7993L108.779 70.7954L107.944 72.8678C107.931 72.9153 107.918 72.9628 107.918 73.0102C107.919 73.1116 107.955 73.2127 108.023 73.2864C108.099 73.36 108.195 73.3928 108.297 73.3918C108.372 73.391 108.446 73.3631 108.507 73.3219C108.575 73.2738 108.622 73.2056 108.655 73.1376L109.576 70.8004L110.229 70.7935C110.434 70.7913 110.602 70.6271 110.6 70.4174C110.597 70.2077 110.432 70.0403 110.221 70.0426L109.874 70.0463L110.576 68.2527L112.597 73.0888C112.632 73.1629 112.68 73.2233 112.749 73.2699C112.81 73.3166 112.885 73.3361 112.96 73.3353C113.062 73.3342 113.164 73.2993 113.231 73.2242C113.299 73.149 113.338 73.0471 113.331 72.9457C113.33 72.8984 113.33 72.851 113.309 72.8039L113.302 72.8107Z" fill="url(#paint1_linear_130_876)"/>
<path d="M45.3412 53.3287L34.938 43.2509L35.1968 66.8801L45.7626 76.882C45.7626 76.882 45.3386 53.0928 45.3412 53.3287Z" fill="#1B2030" stroke="#1B2030" stroke-linecap="round" stroke-linejoin="round"/>
<path d="M68.7993 53.0524L45.3098 53.3028L34.9104 43.222L58.4136 42.9716L68.7993 53.0524Z" fill="#FBF5EC" stroke="#1B2030" stroke-linecap="round" stroke-linejoin="round"/>
<path d="M69.0697 53.0732L45.3435 53.326L45.6008 76.8086L69.327 76.5558L69.0697 53.0732Z" fill="#FBF5EC" stroke="#1B2030" stroke-linecap="round" stroke-linejoin="round"/>
<path d="M57.4258 72.9155C61.8776 72.8681 65.4474 69.2577 65.3992 64.8516C65.3509 60.4455 61.7028 56.912 57.251 56.9595C52.7991 57.0069 49.2293 60.6173 49.2776 65.0234C49.3259 69.4295 52.9739 72.9629 57.4258 72.9155Z" fill="url(#paint2_linear_130_876)"/>
<path d="M60.8997 68.0803L58.105 61.5868C58.0065 61.2914 57.7319 61.0921 57.4187 61.0955L57.1805 61.098C56.8673 61.1013 56.5973 61.3131 56.5051 61.6039L55.3517 64.46L54.453 64.4696C54.1875 64.4724 53.972 64.6903 53.9681 64.9599C53.9711 65.2295 54.1913 65.4428 54.4637 65.4466L54.9471 65.4414L53.8466 68.1622C53.8269 68.2231 53.8139 68.2839 53.8146 68.3445C53.8161 68.4793 53.8583 68.6069 53.9547 68.7069C54.0511 68.8002 54.181 68.8528 54.3171 68.8446C54.4192 68.8435 54.5142 68.8088 54.5952 68.7473C54.683 68.6857 54.7434 68.5974 54.79 68.5026L56.0023 65.4302L56.867 65.421C57.1325 65.4181 57.348 65.2002 57.3518 64.9306L57.3517 64.9171C57.3488 64.6543 57.1286 64.441 56.8562 64.4372L56.3932 64.4421L57.3207 62.0871L59.9844 68.4405C60.0263 68.5344 60.0954 68.6213 60.1845 68.681C60.2669 68.7407 60.3626 68.7734 60.4647 68.7723C60.6009 68.7776 60.7298 68.7291 60.824 68.627C60.9114 68.525 60.9644 68.3963 60.9561 68.2617C60.9555 68.201 60.9479 68.1337 60.9201 68.0801L60.8997 68.0803Z" fill="white"/>
<path d="M75.5458 63.726L65.1426 53.6482L65.4014 77.2774L75.9671 87.2793C75.9671 87.2793 75.5432 63.4901 75.5458 63.726Z" fill="#1B2030" stroke="#1B2030" stroke-linecap="round" stroke-linejoin="round"/>
<path d="M98.9971 63.4498L75.5143 63.7001L65.1082 53.6194L88.6113 53.3689L98.9971 63.4498Z" fill="#FBF5EC" stroke="#1B2030" stroke-linecap="round" stroke-linejoin="round"/>
<path d="M99.2741 63.4705L75.5479 63.7233L75.8051 87.2059L99.5313 86.9531L99.2741 63.4705Z" fill="#FBF5EC" stroke="#1B2030" stroke-linecap="round" stroke-linejoin="round"/>
<path d="M87.6803 82.2543C91.9592 82.2087 95.3903 78.7386 95.3439 74.5037C95.2975 70.2687 91.7912 66.8726 87.5123 66.9182C83.2334 66.9638 79.8023 70.4339 79.8487 74.6688C79.895 78.9038 83.4014 82.2999 87.6803 82.2543Z" fill="#25A17B"/>
<path fill-rule="evenodd" clip-rule="evenodd" d="M88.5362 75.2434C88.4818 75.2439 88.2097 75.2671 87.5969 75.2736C87.1068 75.2788 86.7662 75.269 86.6436 75.2635C84.7568 75.2028 83.3508 74.8943 83.3465 74.5035C83.3423 74.1126 84.7412 73.7743 86.6262 73.6733L86.64 74.9401C86.7627 74.9455 87.1169 74.962 87.6003 74.9568C88.1858 74.9506 88.4782 74.9205 88.5327 74.9199L88.5188 73.6531C90.3988 73.714 91.8048 74.0225 91.8091 74.4133C91.8133 74.8041 90.4144 75.1425 88.5362 75.2434ZM88.5174 73.5251L88.505 72.3931L91.1262 72.3652L91.1072 70.6334L83.9654 70.7095L83.9844 72.4413L86.6055 72.4133L86.6179 73.5454C84.488 73.6624 82.8927 74.0972 82.8982 74.6026C82.9038 75.108 84.5082 75.5019 86.6402 75.5803L86.68 79.2122L88.5727 79.192L88.5328 75.5534C90.6628 75.4364 92.2513 75.0016 92.2457 74.4962C92.2402 73.9909 90.6358 73.5969 88.5105 73.5184" fill="white"/>
<path d="M89.6698 32.7903L79.2666 22.7125L79.5254 46.3417L90.0912 56.3436C90.0912 56.3436 89.6672 32.5545 89.6698 32.7903Z" fill="#1B2030" stroke="#1B2030" stroke-linecap="round" stroke-linejoin="round"/>
<path d="M113.128 32.514L89.6454 32.7643L79.2393 22.6904L102.742 22.4399L113.128 32.514Z" fill="#FBF5EC" stroke="#1B2030" stroke-linecap="round" stroke-linejoin="round"/>
<path d="M113.398 32.5348L89.6721 32.7876L89.9294 56.2702L113.656 56.0174L113.398 32.5348Z" fill="#FBF5EC" stroke="#1B2030" stroke-linecap="round" stroke-linejoin="round"/>
<path d="M101.798 53.0734C106.314 53.0253 109.935 49.3631 109.886 44.8937C109.837 40.4243 106.136 36.8402 101.621 36.8883C97.1047 36.9364 93.4837 40.5986 93.5326 45.068C93.5816 49.5374 97.282 53.1216 101.798 53.0734Z" fill="white"/>
<path d="M101.798 53.0733C101.246 53.0791 100.694 53.0311 100.148 52.9291C98.5789 52.6291 97.134 51.8762 95.9916 50.7697C95.2346 50.0365 94.6327 49.1736 94.2137 48.2144C93.9973 47.7248 93.8351 47.2211 93.7205 46.7034C93.484 45.6277 93.4719 44.5226 93.6848 43.4421C93.8845 42.4022 94.2958 41.4139 94.8853 40.5316C95.7561 39.2217 96.9977 38.1908 98.4479 37.5621C98.9426 37.348 99.4515 37.1875 99.9745 37.0741C101.061 36.8402 102.178 36.8283 103.27 37.039C104.32 37.2367 105.319 37.6439 106.204 38.2275C107.527 39.0895 108.569 40.3184 109.204 41.7537C109.421 42.2434 109.583 42.7471 109.697 43.2647C109.934 44.3404 109.946 45.4455 109.733 46.526C109.533 47.5659 109.122 48.5542 108.533 49.4366C107.662 50.7465 106.42 51.7773 104.97 52.406C104.475 52.6202 103.966 52.7806 103.443 52.894C102.9 53.0076 102.349 53.0674 101.798 53.0733ZM101.622 37.0768C101.084 37.0825 100.54 37.1422 100.017 37.2556C98.9984 37.4754 98.0293 37.8901 97.1778 38.4787C95.9005 39.3482 94.913 40.5717 94.3225 41.9864C94.1235 42.467 93.9724 42.9673 93.8758 43.4738C93.6694 44.5272 93.6813 45.6121 93.9107 46.6609C94.1328 47.6694 94.5519 48.6286 95.1467 49.4714C96.0252 50.7357 97.2615 51.7131 98.691 52.2977C99.1766 52.4947 99.6821 52.6443 100.194 52.7399C101.258 52.9442 102.354 52.9325 103.414 52.7056C104.433 52.4858 105.402 52.0712 106.254 51.4893C107.531 50.6198 108.518 49.3963 109.109 47.9815C109.308 47.501 109.459 47.0007 109.556 46.4942C109.762 45.4407 109.75 44.3559 109.521 43.307C109.299 42.2986 108.88 41.3394 108.285 40.4966C107.406 39.2323 106.17 38.2548 104.74 37.6703C104.255 37.4733 103.749 37.3237 103.238 37.2281C102.705 37.1259 102.167 37.0777 101.629 37.0835L101.622 37.0768Z" fill="#E7247B"/>
<path d="M99.8163 40.6138C99.6867 40.595 99.6799 40.595 99.7411 40.5809C99.9383 40.5653 100.129 40.5768 100.32 40.6287C100.764 40.7251 101.169 40.9904 101.603 41.4576L101.72 41.5844L101.883 41.5557C102.549 41.434 103.231 41.5144 103.853 41.7774C104.011 41.8432 104.161 41.9292 104.299 42.0288C104.32 42.0825 104.334 42.143 104.341 42.1969C104.385 42.4795 104.367 42.7021 104.281 42.8648C104.234 42.9529 104.234 42.9799 104.262 43.0604C104.297 43.1207 104.359 43.1673 104.434 43.1665C104.577 43.1649 104.731 42.9341 104.802 42.6099L104.828 42.4815L104.883 42.5416C105.2 42.8887 105.45 43.3646 105.495 43.7011L105.51 43.7886L105.454 43.7083C105.378 43.5878 105.275 43.4811 105.151 43.4015C104.939 43.2689 104.72 43.2241 104.134 43.1966C103.603 43.1753 103.303 43.1313 103.002 43.0401C102.497 42.8837 102.236 42.6641 101.628 41.8954C101.448 41.6479 101.241 41.421 101.021 41.2076C100.643 40.8611 100.273 40.6831 99.8027 40.6139L99.8163 40.6138Z" fill="#E7247B"/>
<path d="M104.414 41.34C104.412 41.1581 104.451 40.9824 104.517 40.8133C104.53 40.7794 104.55 40.7455 104.57 40.7116C104.571 40.7453 104.557 40.7724 104.544 40.7995C104.498 40.9752 104.493 41.1572 104.53 41.3388C104.573 41.6146 104.594 41.6548 104.89 41.9482C105.028 42.0883 105.193 42.2617 105.249 42.3353L105.352 42.469L105.249 42.369C105.091 42.2291 104.926 42.1028 104.755 41.9901C104.713 41.9703 104.707 41.9704 104.68 41.9909C104.653 42.0181 104.653 42.0518 104.648 42.2271C104.651 42.4966 104.612 42.6722 104.519 42.8485C104.472 42.9433 104.465 42.9232 104.505 42.8149C104.538 42.7337 104.538 42.7 104.535 42.4372C104.529 41.9116 104.466 41.7842 104.089 41.5658C103.994 41.5129 103.836 41.4337 103.74 41.3943C103.679 41.3748 103.624 41.3484 103.569 41.3153C103.747 41.3471 103.917 41.3992 104.088 41.458C104.307 41.5366 104.341 41.5497 104.368 41.5359C104.389 41.5357 104.395 41.4817 104.4 41.3267L104.414 41.34Z" fill="#E7247B"/>
<path d="M100.087 42.2895C99.824 41.9352 99.6546 41.3911 99.6841 40.9797L99.6963 40.8515L99.7577 40.8644C99.8942 40.8899 100.031 40.9423 100.154 41.0084C100.401 41.1541 100.512 41.3483 100.626 41.8525C100.662 42.0004 100.705 42.1684 100.726 42.2221C100.796 42.3764 100.879 42.5237 100.976 42.6575C101.045 42.7578 100.998 42.8055 100.848 42.7936C100.616 42.7759 100.301 42.5636 100.093 42.2895L100.087 42.2895Z" fill="#E7247B"/>
<path d="M104.133 44.9009C102.909 44.4287 102.468 44.0088 102.46 43.2945C102.46 43.2338 102.459 43.1664 102.465 43.1057C102.499 43.1256 102.54 43.1521 102.568 43.1787C102.815 43.3716 103.095 43.4562 103.866 43.5559C104.316 43.6185 104.575 43.6696 104.807 43.7413C105.559 43.976 106.021 44.4698 106.137 45.1425C106.167 45.3983 106.156 45.6545 106.104 45.9044C106.065 46.0598 105.946 46.3374 105.912 46.3445C105.905 46.3446 105.891 46.311 105.891 46.2638C105.867 45.9945 105.735 45.7466 105.522 45.5803C105.275 45.374 104.939 45.2091 104.119 44.8943L104.133 44.9009Z" fill="#E7247B"/>
<path d="M103.277 45.1123C103.262 45.0248 103.241 44.9442 103.212 44.8569L103.177 44.7629L103.239 44.8296C103.329 44.9298 103.398 45.0504 103.441 45.1847C103.483 45.2988 103.49 45.3324 103.492 45.5211C103.494 45.7031 103.495 45.7435 103.455 45.8518C103.402 46.0073 103.315 46.143 103.201 46.2588C102.978 46.4836 102.694 46.6147 102.279 46.6663C102.204 46.6738 102 46.6962 101.81 46.7049C101.347 46.7368 101.041 46.7872 100.763 46.8845C100.736 46.8983 100.709 46.9053 100.682 46.9056C100.668 46.8923 100.857 46.7824 101.013 46.7066C101.23 46.6033 101.447 46.5403 101.93 46.4543C102.167 46.4113 102.419 46.3615 102.48 46.3406C103.07 46.1524 103.371 45.6842 103.27 45.1124L103.277 45.1123Z" fill="#E7247B"/>
<path d="M103.853 46.0897C103.686 45.7478 103.648 45.4112 103.733 45.1003C103.739 45.0666 103.759 45.0394 103.766 45.0393C103.794 45.0525 103.828 45.0656 103.855 45.0856C103.931 45.1319 104.081 45.2179 104.485 45.4293C104.985 45.6935 105.273 45.8994 105.467 46.1332C105.639 46.347 105.758 46.5951 105.801 46.8642C105.831 47.1065 105.82 47.3492 105.775 47.5855C105.665 48.0854 105.343 48.5133 104.896 48.7607C104.856 48.788 104.808 48.8088 104.768 48.8227C104.781 48.7754 104.794 48.7281 104.821 48.6873C104.967 48.3893 104.984 48.0521 104.865 47.7434C104.794 47.542 104.649 47.2875 104.358 46.8727C104.019 46.3844 103.936 46.2573 103.853 46.0829L103.853 46.0897Z" fill="#E7247B"/>
<path d="M99.2837 47.9983C99.7357 47.6161 100.291 47.3406 100.808 47.2542C101.073 47.2177 101.338 47.2216 101.605 47.2794C101.932 47.3568 102.227 47.5424 102.386 47.7632C102.538 47.9772 102.602 48.1653 102.674 48.5892C102.703 48.7574 102.732 48.9188 102.74 48.9592C102.79 49.1743 102.894 49.3485 103.01 49.4349C103.203 49.5744 103.536 49.5776 103.862 49.446C103.896 49.4322 103.93 49.4184 103.97 49.4112C103.984 49.4245 103.822 49.5341 103.707 49.5892C103.571 49.6648 103.422 49.7001 103.265 49.7018C102.966 49.7049 102.719 49.5593 102.511 49.2514C102.435 49.1242 102.366 48.9901 102.303 48.856C102.079 48.3663 101.969 48.2192 101.715 48.0534C101.503 47.9141 101.23 47.89 101 47.9936C100.769 48.1039 100.67 48.3813 100.782 48.6092C100.803 48.6495 100.823 48.6829 100.851 48.7163C100.947 48.8097 101.071 48.8758 101.2 48.8946C101.405 48.9194 101.594 48.7759 101.619 48.5734C101.619 48.5532 101.618 48.5397 101.618 48.5195C101.617 48.3712 101.561 48.2909 101.411 48.2251C101.212 48.1396 101.002 48.2429 101.004 48.4249C101.005 48.499 101.047 48.566 101.122 48.5854C101.177 48.6051 101.177 48.6118 101.136 48.5987C100.951 48.5603 100.908 48.345 101.056 48.2019C101.231 48.0248 101.593 48.1019 101.718 48.3364C101.774 48.4707 101.776 48.6122 101.736 48.7474C101.637 49.0113 101.339 49.156 101.039 49.0851C100.834 49.0333 100.752 48.9803 100.497 48.7336C100.063 48.3001 99.8921 48.2143 99.2783 48.1264L99.1624 48.1074L99.2973 47.9914L99.2837 47.9983Z" fill="#E7247B"/>
<path fill-rule="evenodd" clip-rule="evenodd" d="M97.4635 40.3026C98.9186 42.0123 99.633 42.5977 99.7435 42.7448C99.8333 42.8651 99.8005 42.98 99.6518 43.0692C99.5435 43.1243 99.4213 43.1592 99.299 43.174C99.1901 43.1752 99.0806 43.1292 98.9981 43.0492C98.9362 42.9959 98.701 42.648 98.1474 41.825C97.7251 41.1893 97.3723 40.6675 97.3585 40.6541C97.3585 40.6541 97.6061 41.0895 98.1012 41.9603C98.58 42.7908 98.7466 43.0855 98.7471 43.126C98.748 43.2068 98.728 43.2475 98.6272 43.3631C98.459 43.5468 98.3864 43.7565 98.3435 44.1882C98.2875 44.6673 98.1212 45.0127 97.6579 45.5971C97.3895 45.9437 97.3425 46.0048 97.2759 46.1403C97.1959 46.2894 97.1569 46.4583 97.1587 46.6267C97.1474 46.829 97.1768 47.0308 97.247 47.2255C97.3173 47.4269 97.4215 47.6212 97.546 47.7951C97.6913 48.016 97.7748 48.1768 97.7755 48.2375C97.7761 48.2914 97.7829 48.2913 98.0069 48.235C98.5364 48.1081 98.9697 47.8946 99.2051 47.636C99.3531 47.4727 99.3861 47.3848 99.3837 47.1692C99.3822 47.0277 99.3818 46.994 99.3401 46.9135C99.2774 46.7794 99.1605 46.6729 98.9067 46.5003C98.5708 46.2815 98.4258 46.1011 98.3891 45.8522C98.3528 45.6504 98.3852 45.5018 98.5716 45.1225C98.7578 44.7229 98.8036 44.554 98.8333 44.1561C98.8509 43.8998 98.877 43.7985 98.951 43.7168C99.0249 43.6284 99.0994 43.6007 99.2897 43.5717C99.6024 43.528 99.8056 43.4449 99.9673 43.2882C100.102 43.179 100.175 43.0165 100.173 42.8413L100.172 42.6998L100.096 42.6063C99.7996 42.2792 97.2699 40.0284 97.2495 40.0286C97.2495 40.0286 97.3393 40.1489 97.4634 40.2891L97.4635 40.3026ZM97.9238 46.8747C97.9906 46.7594 97.9551 46.6183 97.8385 46.5454C97.7357 46.4791 97.5727 46.5145 97.5737 46.6021C97.574 46.629 97.5878 46.6491 97.622 46.6622C97.6767 46.6886 97.6839 46.7222 97.637 46.7901C97.5901 46.858 97.5976 46.9186 97.6525 46.9584C97.7349 47.0249 97.857 46.9832 97.917 46.8747L97.9238 46.8747Z" fill="#E7247B"/>
<path fill-rule="evenodd" clip-rule="evenodd" d="M100.38 43.6407C100.218 43.7031 100.096 43.8391 100.051 44.0081C100.025 44.1095 100.04 44.2778 100.081 44.3313C100.151 44.4182 100.212 44.4377 100.382 44.4359C100.716 44.4324 101.007 44.2878 101.039 44.1055C101.065 43.9569 100.933 43.7561 100.755 43.6704C100.632 43.6245 100.503 43.6124 100.373 43.6408L100.38 43.6407ZM100.778 43.9397C100.832 43.865 100.804 43.7845 100.715 43.7382C100.544 43.6389 100.293 43.7225 100.294 43.8842C100.295 43.9651 100.426 44.0446 100.548 44.0433C100.637 44.0423 100.718 44.0078 100.772 43.9465L100.778 43.9397Z" fill="#E7247B"/>
<path d="M63.9088 36.1581L53.5056 26.0804L53.7644 49.7095L64.3302 59.7114C64.3302 59.7114 63.9062 35.9223 63.9088 36.1581Z" fill="#1B2030" stroke="#1B2030" stroke-linecap="round" stroke-linejoin="round"/>
<path d="M87.3672 35.8886L63.8776 36.1389L53.4783 26.0582L76.9814 25.8077L87.3672 35.8886Z" fill="#FBF5EC" stroke="#1B2030" stroke-linecap="round" stroke-linejoin="round"/>
<path d="M87.6373 35.9026L63.9111 36.1555L64.1684 59.638L87.8946 59.3852L87.6373 35.9026Z" fill="#FBF5EC" stroke="#1B2030" stroke-linecap="round" stroke-linejoin="round"/>
<path d="M77.066 10.7111L66.6628 0.633331L66.9217 24.2625L77.4874 34.2644C77.4874 34.2644 77.0635 10.4753 77.066 10.7111Z" fill="#1B2030" stroke="#1B2030" stroke-linecap="round" stroke-linejoin="round"/>
<path d="M100.517 10.4349L77.0346 10.6852L66.6284 0.604538L90.1316 0.354045L100.517 10.4349Z" fill="#FBF5EC" stroke="#1B2030" stroke-linecap="round" stroke-linejoin="round"/>
<path d="M100.794 10.4556L77.0681 10.7085L77.3254 34.191L101.052 33.9382L100.794 10.4556Z" fill="#FBF5EC" stroke="#1B2030" stroke-linecap="round" stroke-linejoin="round"/>
<path d="M89.2079 30.1262C93.5235 30.0802 96.984 26.5803 96.9372 22.3091C96.8904 18.0378 93.354 14.6125 89.0384 14.6585C84.7228 14.7045 81.2623 18.2043 81.3091 22.4756C81.3559 26.7469 84.8923 30.1721 89.2079 30.1262Z" fill="url(#paint3_linear_130_876)"/>
<path d="M92.5757 25.4389L89.8665 19.1442C89.771 18.8578 89.5049 18.6647 89.2013 18.6679L88.9703 18.6703C88.6667 18.6736 88.4049 18.8789 88.3156 19.1607L87.1975 21.9294L86.3263 21.9387C86.0689 21.9415 85.86 22.1527 85.8563 22.4141C85.8592 22.6754 86.0726 22.8821 86.3367 22.8858L86.8053 22.8808L85.7385 25.5183C85.7193 25.5773 85.7068 25.6363 85.7074 25.6951C85.7089 25.8257 85.7498 25.9494 85.8433 26.0464C85.9367 26.1368 86.0627 26.1877 86.1946 26.1798C86.2936 26.1788 86.3856 26.1451 86.4642 26.0855C86.5493 26.0258 86.6078 25.9402 86.653 25.8483L87.8282 22.8699L88.6664 22.861C88.9238 22.8583 89.1327 22.647 89.1364 22.3857L89.1362 22.3726C89.1335 22.1178 88.92 21.9111 88.6559 21.9074L88.2071 21.9121L89.1062 19.6292L91.6884 25.7881C91.729 25.8791 91.796 25.9633 91.8824 26.0212C91.9622 26.0791 92.055 26.1108 92.154 26.1098C92.2861 26.1149 92.4109 26.0678 92.5023 25.9689C92.587 25.87 92.6384 25.7453 92.6304 25.6147C92.6297 25.556 92.6224 25.4907 92.5955 25.4387L92.5757 25.4389Z" fill="white"/>
<g clip-path="url(#clip1_130_876)">
<mask id="mask0_130_876" style="mask-type:luminance" maskUnits="userSpaceOnUse" x="68" y="40" width="16" height="16">
<path d="M84 40H68V56H84V40Z" fill="white"/>
</mask>
<g mask="url(#mask0_130_876)">
<path d="M76 56C80.4181 56 84 52.4181 84 48C84 43.5819 80.4181 40 76 40C71.5819 40 68 43.5819 68 48C68 52.4181 71.5819 56 76 56Z" fill="url(#paint4_linear_130_876)"/>
<path d="M79.5195 43.17L78.5401 42.1919L75.2701 45.4619L78.5401 48.7331L79.5195 47.7538L77.2276 45.4619L79.5195 43.17ZM76.7301 50.5381L73.4601 47.2669L72.4807 48.2463L74.7726 50.5381L72.4807 52.83L73.4601 53.8081L76.7301 50.5381ZM74.852 45.8763L78.1226 49.1469L77.1476 50.1219L73.877 46.8513L74.852 45.8763Z" fill="white"/>
</g>
</g>
</g>
<defs>
<linearGradient id="paint0_linear_130_876" x1="116.403" y1="65.694" x2="104.73" y2="75.8384" gradientUnits="userSpaceOnUse">
<stop stop-color="#B45199"/>
<stop offset="1" stop-color="#34B9C5"/>
</linearGradient>
<linearGradient id="paint1_linear_130_876" x1="116.175" y1="69.5762" x2="112.418" y2="73.6759" gradientUnits="userSpaceOnUse">
<stop stop-color="#B45199"/>
<stop offset="1" stop-color="#34B9C5"/>
</linearGradient>
<linearGradient id="paint2_linear_130_876" x1="63.364" y1="59.9471" x2="51.484" y2="70.0617" gradientUnits="userSpaceOnUse">
<stop stop-color="#B45199"/>
<stop offset="1" stop-color="#34B9C5"/>
</linearGradient>
<linearGradient id="paint3_linear_130_876" x1="94.8455" y1="17.5494" x2="83.4876" y2="27.3513" gradientUnits="userSpaceOnUse">
<stop stop-color="#B45199"/>
<stop offset="1" stop-color="#34B9C5"/>
</linearGradient>
<linearGradient id="paint4_linear_130_876" x1="68" y1="48" x2="84" y2="48" gradientUnits="userSpaceOnUse">
<stop stop-color="#01AEC9"/>
<stop offset="1" stop-color="#1E8FCA"/>
</linearGradient>
<clipPath id="clip0_130_876">
<rect width="158" height="128" fill="white"/>
</clipPath>
<clipPath id="clip1_130_876">
<rect width="16" height="16" fill="white" transform="translate(68 40)"/>
</clipPath>
</defs>
</svg>
