<svg width="99" height="67" viewBox="0 0 99 67" fill="none" xmlns="http://www.w3.org/2000/svg">
<path d="M49.3377 0.936157C22.4658 0.936157 0.675659 15.4794 0.675659 33.4089C0.675659 51.3384 22.4658 65.8816 49.3377 65.8816C76.2097 65.8816 97.9998 51.3384 97.9998 33.4089C97.9998 15.4794 76.2097 0.936157 49.3377 0.936157ZM49.3377 39.3082C38.8707 39.3082 30.3829 33.8455 30.3829 31.2969C30.3829 28.7483 38.8707 23.2856 49.3377 23.2856C59.8048 23.2856 68.2926 28.7305 68.2926 31.2969C68.2926 33.6228 59.8048 39.3082 49.3377 39.3082Z" fill="#1B2030" stroke="#1B2030" stroke-linecap="round" stroke-linejoin="round"/>
<path d="M38.6213 10.4268C41.9023 16.2726 41.189 23.3303 40.8324 24.3284L40.7431 24.5333C43.3287 23.7848 46.2442 23.2947 49.338 23.2947C51.879 23.2947 54.2952 23.6155 56.5063 24.1412C56.1497 22.2075 55.8286 15.729 58.8956 10.2753C61.0176 6.4969 64.3876 4.21562 66.5987 3.04824C61.2315 1.69373 55.4185 0.94519 49.338 0.94519C42.8474 0.94519 36.6509 1.80067 30.9894 3.33341C33.1292 4.43841 36.5083 6.6662 38.6213 10.4268Z" fill="#FDF5EB" stroke="#1B2030" stroke-linecap="round" stroke-linejoin="round"/>
<path d="M15.6095 32.5979C22.5192 29.1849 30.0264 30.6553 30.0264 30.6553L30.1868 30.6286C30.4097 29.978 30.5077 28.9265 30.1511 27.2511C29.3576 23.5084 22.965 18.0815 20.736 16.4864C18.5071 14.8912 15.8058 13.2337 11.3123 13.7773L11.2766 13.7327C4.62545 19.1954 0.675659 26.0125 0.675659 33.4178C0.675659 39.4864 3.33269 45.1628 7.95995 50.0284C7.44284 48.7541 4.80364 37.9447 15.6095 32.6068V32.5979Z" fill="#FDF5EB" stroke="#1B2030" stroke-linecap="round" stroke-linejoin="round"/>
<path d="M69.7994 51.2227C67.8647 41.8658 62.4083 38.0696 61.169 37.5527C60.8035 37.4012 60.4646 37.3211 60.1704 37.2943C57.1034 38.4617 53.3678 39.2994 49.3379 39.2994C44.559 39.2994 40.2082 38.1587 36.8737 36.6794C36.6062 36.724 36.3209 36.7953 36 36.929C34.7518 37.4458 29.2597 41.2688 27.3161 50.6702C25.4973 59.4567 27.6637 61.7291 28.3948 62.7271C34.7339 64.75 41.8308 65.8817 49.3289 65.8817C56.2208 65.8817 62.7828 64.9193 68.7206 63.1994C69.4606 62.1925 71.5825 59.9112 69.7815 51.2227H69.7994Z" fill="#FDF5EB" stroke="#1B2030" stroke-linecap="round" stroke-linejoin="round"/>
<path d="M87.4706 13.5189L86.8555 13.3585C82.6472 13.5546 80.9086 14.4546 78.4746 16.0765C76.1832 17.6092 69.3182 23.7223 68.5247 27.5809C68.1591 29.3632 68.275 30.4593 68.5158 31.1276C70.4861 30.5573 76.8876 30.3523 81.8358 33.2396C94.6566 40.7162 88.6832 52.0513 87.2745 53.4593C93.988 47.9343 98.0001 40.9746 98.0001 33.4089C98.0001 25.8432 94.0682 19.0172 87.4706 13.5189Z" fill="#FDF5EB" stroke="#1B2030" stroke-linecap="round" stroke-linejoin="round"/>
</svg>
