<svg width="20" height="20" viewBox="0 0 20 20" fill="none" xmlns="http://www.w3.org/2000/svg">
<path d="M6.66658 13.3333H4.99992C4.55789 13.3333 4.13397 13.1577 3.82141 12.8451C3.50885 12.5325 3.33325 12.1086 3.33325 11.6666V4.99992C3.33325 4.55789 3.50885 4.13397 3.82141 3.82141C4.13397 3.50885 4.55789 3.33325 4.99992 3.33325H11.6666C12.1086 3.33325 12.5325 3.50885 12.8451 3.82141C13.1577 4.13397 13.3333 4.55789 13.3333 4.99992V6.66658M8.33325 16.6666H14.9999C15.4419 16.6666 15.8659 16.491 16.1784 16.1784C16.491 15.8659 16.6666 15.4419 16.6666 14.9999V8.33325C16.6666 7.89122 16.491 7.4673 16.1784 7.15474C15.8659 6.84218 15.4419 6.66658 14.9999 6.66658H8.33325C7.89122 6.66658 7.4673 6.84218 7.15474 7.15474C6.84218 7.4673 6.66658 7.89122 6.66658 8.33325V14.9999C6.66658 15.4419 6.84218 15.8659 7.15474 16.1784C7.4673 16.491 7.89122 16.6666 8.33325 16.6666Z" stroke="#1B2030" stroke-width="2" stroke-linecap="round" stroke-linejoin="round"/>
</svg>
