<svg viewBox="0 0 21 21" fill="none" xmlns="http://www.w3.org/2000/svg">
  <path d="M19.2769 14.1355C19.7543 12.9829 20 11.7476 20 10.5C20 7.98044 18.9991 5.56408 17.2175 3.78249C15.4359 2.00089 13.0196 1 10.5 1C7.98044 1 5.56408 2.00089 3.78249 3.78249C2.00089 5.56408 1 7.98044 1 10.5C1 11.7476 1.24572 12.9829 1.72314 14.1355C2.20056 15.2881 2.90033 16.3354 3.78249 17.2175C4.66464 18.0997 5.71191 18.7994 6.86451 19.2769C8.0171 19.7543 9.25244 20 10.5 20C11.7476 20 12.9829 19.7543 14.1355 19.2769C15.2881 18.7994 16.3354 18.0997 17.2175 17.2175C18.0997 16.3354 18.7994 15.2881 19.2769 14.1355Z" stroke="#1B2030" stroke-width="2" stroke-linecap="round" stroke-linejoin="round"/>
  <path d="M9.28409 12.3835V12.2386C9.28693 11.7415 9.33097 11.3452 9.41619 11.0497C9.50426 10.7543 9.6321 10.5156 9.79972 10.3338C9.96733 10.152 10.169 9.98722 10.4048 9.83949C10.581 9.72585 10.7386 9.60795 10.8778 9.4858C11.017 9.36364 11.1278 9.22869 11.2102 9.08097C11.2926 8.9304 11.3338 8.76278 11.3338 8.57812C11.3338 8.3821 11.2869 8.21023 11.1932 8.0625C11.0994 7.91477 10.973 7.80114 10.8139 7.72159C10.6577 7.64205 10.4844 7.60227 10.294 7.60227C10.1094 7.60227 9.93466 7.64347 9.76989 7.72585C9.60511 7.8054 9.47017 7.92472 9.36506 8.08381C9.25994 8.24006 9.20313 8.43466 9.1946 8.66761H7.45597C7.47017 8.09943 7.60653 7.63068 7.86506 7.26136C8.12358 6.8892 8.46591 6.61222 8.89205 6.4304C9.31818 6.24574 9.78835 6.15341 10.3026 6.15341C10.8679 6.15341 11.3679 6.24716 11.8026 6.43466C12.2372 6.61932 12.5781 6.88778 12.8253 7.24006C13.0724 7.59233 13.196 8.01705 13.196 8.5142C13.196 8.84659 13.1406 9.14205 13.0298 9.40057C12.9219 9.65625 12.7699 9.88352 12.5739 10.0824C12.3778 10.2784 12.1463 10.456 11.8793 10.6151C11.6548 10.7486 11.4702 10.8878 11.3253 11.0327C11.1832 11.1776 11.0767 11.3452 11.0057 11.5355C10.9375 11.7259 10.902 11.9602 10.8991 12.2386V12.3835H9.28409ZM10.1278 15.1108C9.84375 15.1108 9.60085 15.0114 9.39915 14.8125C9.20028 14.6108 9.10227 14.3693 9.10511 14.0881C9.10227 13.8097 9.20028 13.571 9.39915 13.3722C9.60085 13.1733 9.84375 13.0739 10.1278 13.0739C10.3977 13.0739 10.6349 13.1733 10.8395 13.3722C11.044 13.571 11.1477 13.8097 11.1506 14.0881C11.1477 14.2756 11.098 14.4474 11.0014 14.6037C10.9077 14.7571 10.7841 14.8807 10.6307 14.9744C10.4773 15.0653 10.3097 15.1108 10.1278 15.1108Z" fill="#1B2030"/>
</svg>
